SplineFontDB: 3.2
FontName: Spectral-Share-BoldItalic
FullName: Spectral Share Bold Italic
FamilyName: Spectral Share
Weight: Bold
Copyright: Copyright 2017 The Spectral Project Authors (https://github.com/productiontype/Spectral)
Version: 2.005; ttfautohint (v1.8.4.7-5d5b)
ItalicAngle: -10
UnderlinePosition: -148.48
UnderlineWidth: 51.2
Ascent: 819
Descent: 205
InvalidEm: 0
sfntRevision: 0x00020148
LayerCount: 2
Layer: 0 1 "Back" 1
Layer: 1 1 "Fore" 0
XUID: [1021 508 542950195 3242]
StyleMap: 0x0001
FSType: 0
OS2Version: 4
OS2_WeightWidthSlopeOnly: 0
OS2_UseTypoMetrics: 1
CreationTime: 1492190907
ModificationTime: 1758666517
PfmFamily: 81
TTFWeight: 700
TTFWidth: 5
LineGap: 0
VLineGap: 0
Panose: 0 0 0 0 0 0 0 0 0 0
OS2TypoAscent: 1084
OS2TypoAOffset: 0
OS2TypoDescent: -474
OS2TypoDOffset: 0
OS2TypoLinegap: 0
OS2WinAscent: 1084
OS2WinAOffset: 0
OS2WinDescent: 474
OS2WinDOffset: 0
HheadAscent: 1084
HheadAOffset: 0
HheadDescent: -474
HheadDOffset: 0
OS2SubXSize: 666
OS2SubYSize: 614
OS2SubXOff: -13
OS2SubYOff: 77
OS2SupXSize: 666
OS2SupYSize: 614
OS2SupXOff: 63
OS2SupYOff: 358
OS2StrikeYSize: 51
OS2StrikeYPos: 266
OS2CapHeight: 676
OS2XHeight: 471
OS2Vendor: 'PROD'
OS2CodePages: 20000197.00000000
OS2UnicodeRanges: a000027f.4000e43b.00000000.00000000
Lookup: 1 0 0 "'aalt' Access All Alternates lookup 0" { "'aalt' Access All Alternates lookup 0 subtable"  } ['aalt' ('DFLT' <'dflt' > 'cyrl' <'BGR ' 'SRB ' 'dflt' > 'latn' <'AZE ' 'CAT ' 'CRT ' 'MOL ' 'NLD ' 'ROM ' 'TRK ' 'dflt' > ) ]
Lookup: 3 0 0 "'aalt' Access All Alternates lookup 1" { "'aalt' Access All Alternates lookup 1 subtable"  } ['aalt' ('DFLT' <'dflt' > 'cyrl' <'BGR ' 'SRB ' 'dflt' > 'latn' <'AZE ' 'CAT ' 'CRT ' 'MOL ' 'NLD ' 'ROM ' 'TRK ' 'dflt' > ) ]

StartChar: .notdef
Encoding: 65536 -1 0
Width: 512
GlyphClass: 1
Flags: W
LayerCount: 2
Fore
SplineSet
56 0 m 1,0,-1
 56 768 l 1,1,-1
 456 768 l 1,2,-1
 456 0 l 1,3,-1
 56 0 l 1,0,-1
256 416 m 1,4,-1
 410 735 l 1,5,-1
 102 735 l 1,6,-1
 256 416 l 1,4,-1
87 63 m 1,7,-1
 241 384 l 1,8,-1
 87 705 l 1,9,-1
 87 63 l 1,7,-1
425 63 m 1,10,-1
 425 705 l 1,11,-1
 271 384 l 1,12,-1
 425 63 l 1,10,-1
102 33 m 1,13,-1
 410 33 l 1,14,-1
 256 352 l 1,15,-1
 102 33 l 1,13,-1
EndSplineSet
Validated: 1
EndChar

StartChar: A
Encoding: 65 65 9
Width: 736
GlyphClass: 2
Flags: W
AnchorPoint: "Anchor-3" 431 727 basechar 0
AnchorPoint: "Anchor-2" 528 0 basechar 0
AnchorPoint: "Anchor-0" 258 0 basechar 0
LayerCount: 2
Fore
SplineSet
-46 0 m 1,0,-1
 -43 16 l 1,1,-1
 15 48 l 1,2,-1
 373 681 l 1,3,-1
 478 681 l 1,4,-1
 608 51 l 1,5,-1
 667 16 l 1,6,-1
 664 0 l 1,7,-1
 332 0 l 1,8,-1
 335 16 l 1,9,-1
 421 54 l 1,10,-1
 390 212 l 1,11,-1
 174 212 l 1,12,-1
 84 51 l 1,13,-1
 157 16 l 1,14,-1
 153 0 l 1,15,-1
 -46 0 l 1,0,-1
206 268 m 1,16,-1
 379 268 l 1,17,-1
 333 498 l 1,18,-1
 206 268 l 1,16,-1
EndSplineSet
Validated: 1
Substitution2: "'c2sc' Capitals to Small Capitals lookup 59 subtable" a.sc
Substitution2: "Single Substitution lookup 21 subtable" ordfeminine
AlternateSubs2: "'aalt' Access All Alternates lookup 1 subtable" ordfeminine a.sc
Position2: "'cpsp' Capital Spacing lookup 0 subtable" dx=5 dy=0 dh=10 dv=0
EndChar

StartChar: B
Encoding: 66 66 10
Width: 694
GlyphClass: 1
Flags: W
LayerCount: 2
Fore
SplineSet
-31 0 m 1,0,-1
 -28 16 l 1,1,-1
 61 59 l 1,2,-1
 160 616 l 1,3,-1
 85 659 l 1,4,-1
 88 676 l 1,5,-1
 411 676 l 2,6,7
 478 676 478 676 529 660.5 c 128,-1,8
 580 645 580 645 609 614 c 128,-1,9
 638 583 638 583 638 536 c 0,10,11
 638 482 638 482 591.5 434 c 128,-1,12
 545 386 545 386 465 367 c 1,13,14
 551 355 551 355 594.5 314 c 128,-1,15
 638 273 638 273 638 212 c 0,16,17
 638 159 638 159 604 110 c 128,-1,18
 570 61 570 61 503 30.5 c 128,-1,19
 436 0 436 0 337 0 c 2,20,-1
 -31 0 l 1,0,-1
350 620 m 2,21,-1
 335 620 l 1,22,-1
 292 372 l 1,23,-1
 314 372 l 2,24,25
 382 372 382 372 420 412.5 c 128,-1,26
 458 453 458 453 458 510 c 0,27,28
 458 563 458 563 434 591.5 c 128,-1,29
 410 620 410 620 350 620 c 2,21,-1
330 326 m 2,30,-1
 284 326 l 1,31,-1
 237 56 l 1,32,-1
 300 56 l 2,33,34
 353 56 353 56 386 78.5 c 128,-1,35
 419 101 419 101 435 136.5 c 128,-1,36
 451 172 451 172 451 210 c 0,37,38
 451 267 451 267 423 296.5 c 128,-1,39
 395 326 395 326 330 326 c 2,30,-1
EndSplineSet
Validated: 1
Substitution2: "'c2sc' Capitals to Small Capitals lookup 59 subtable" b.sc
Substitution2: "'aalt' Access All Alternates lookup 0 subtable" b.sc
Position2: "'cpsp' Capital Spacing lookup 0 subtable" dx=5 dy=0 dh=10 dv=0
EndChar

StartChar: C
Encoding: 67 67 11
Width: 677
GlyphClass: 2
Flags: W
AnchorPoint: "Anchor-3" 444 727 basechar 0
AnchorPoint: "Anchor-0" 338 0 basechar 0
LayerCount: 2
Fore
SplineSet
337 -10 m 0,0,1
 247 -10 247 -10 180.5 25.5 c 128,-1,2
 114 61 114 61 77.5 123.5 c 128,-1,3
 41 186 41 186 41 266 c 0,4,5
 41 348 41 348 73 423.5 c 128,-1,6
 105 499 105 499 162.5 558 c 128,-1,7
 220 617 220 617 297 651.5 c 128,-1,8
 374 686 374 686 463 686 c 0,9,10
 525 686 525 686 562 671.5 c 128,-1,11
 599 657 599 657 633 637 c 1,12,-1
 615 438 l 1,13,-1
 597 438 l 1,14,-1
 515 622 l 1,15,16
 491 637 491 637 447 637 c 0,17,18
 400 637 400 637 359 606 c 128,-1,19
 318 575 318 575 287.5 521 c 128,-1,20
 257 467 257 467 239.5 395 c 128,-1,21
 222 323 222 323 222 240 c 0,22,23
 222 152 222 152 258.5 98 c 128,-1,24
 295 44 295 44 360 44 c 0,25,26
 383 44 383 44 406 48.5 c 128,-1,27
 429 53 429 53 453 66 c 1,28,-1
 584 224 l 1,29,-1
 602 224 l 1,30,-1
 559 45 l 1,31,32
 520 19 520 19 458.5 4.5 c 128,-1,33
 397 -10 397 -10 337 -10 c 0,0,1
EndSplineSet
Validated: 1
Substitution2: "'c2sc' Capitals to Small Capitals lookup 59 subtable" c.sc
Substitution2: "'aalt' Access All Alternates lookup 0 subtable" c.sc
Position2: "'cpsp' Capital Spacing lookup 0 subtable" dx=5 dy=0 dh=10 dv=0
EndChar

StartChar: D
Encoding: 68 68 12
Width: 775
GlyphClass: 2
Flags: W
AnchorPoint: "Anchor-3" 413 727 basechar 0
AnchorPoint: "Anchor-0" 321 0 basechar 0
LayerCount: 2
Fore
SplineSet
-31 0 m 1,0,-1
 -28 16 l 1,1,-1
 57 57 l 1,2,-1
 156 618 l 1,3,-1
 85 659 l 1,4,-1
 88 676 l 1,5,-1
 384 676 l 2,6,7
 497 676 497 676 575 639.5 c 128,-1,8
 653 603 653 603 693.5 537.5 c 128,-1,9
 734 472 734 472 734 384 c 0,10,11
 734 301 734 301 700 231.5 c 128,-1,12
 666 162 666 162 605 109.5 c 128,-1,13
 544 57 544 57 463.5 28.5 c 128,-1,14
 383 0 383 0 292 0 c 2,15,-1
 -31 0 l 1,0,-1
356 622 m 2,16,-1
 333 622 l 1,17,-1
 231 49 l 1,18,-1
 305 49 l 2,19,20
 374 49 374 49 430 93 c 128,-1,21
 486 137 486 137 520 215.5 c 128,-1,22
 554 294 554 294 554 396 c 0,23,24
 554 500 554 500 500.5 561 c 128,-1,25
 447 622 447 622 356 622 c 2,16,-1
EndSplineSet
Validated: 1
Substitution2: "'c2sc' Capitals to Small Capitals lookup 59 subtable" d.sc
Substitution2: "'aalt' Access All Alternates lookup 0 subtable" d.sc
Position2: "'cpsp' Capital Spacing lookup 0 subtable" dx=5 dy=0 dh=10 dv=0
EndChar

StartChar: E
Encoding: 69 69 13
Width: 638
GlyphClass: 2
Flags: W
AnchorPoint: "Anchor-3" 394 727 basechar 0
AnchorPoint: "Anchor-2" 446 0 basechar 0
AnchorPoint: "Anchor-0" 296 0 basechar 0
LayerCount: 2
Fore
SplineSet
-31 0 m 1,0,-1
 -28 16 l 1,1,-1
 61 59 l 1,2,-1
 160 616 l 1,3,-1
 85 659 l 1,4,-1
 88 676 l 1,5,-1
 624 676 l 1,6,-1
 593 498 l 1,7,-1
 578 498 l 1,8,-1
 523 620 l 1,9,-1
 335 620 l 1,10,-1
 292 372 l 1,11,-1
 415 372 l 1,12,-1
 495 462 l 1,13,-1
 511 462 l 1,14,-1
 471 238 l 1,15,-1
 455 238 l 1,16,-1
 407 326 l 1,17,-1
 284 326 l 1,18,-1
 237 56 l 1,19,-1
 441 56 l 1,20,-1
 555 224 l 1,21,-1
 571 224 l 1,22,-1
 531 0 l 1,23,-1
 -31 0 l 1,0,-1
EndSplineSet
Validated: 1
Substitution2: "'c2sc' Capitals to Small Capitals lookup 59 subtable" e.sc
Substitution2: "'aalt' Access All Alternates lookup 0 subtable" e.sc
Position2: "'cpsp' Capital Spacing lookup 0 subtable" dx=5 dy=0 dh=10 dv=0
EndChar

StartChar: F
Encoding: 70 70 14
Width: 614
GlyphClass: 1
Flags: W
LayerCount: 2
Fore
SplineSet
-31 0 m 1,0,-1
 -28 16 l 1,1,-1
 61 59 l 1,2,-1
 160 616 l 1,3,-1
 85 659 l 1,4,-1
 88 676 l 1,5,-1
 620 676 l 1,6,-1
 589 498 l 1,7,-1
 572 498 l 1,8,-1
 519 620 l 1,9,-1
 335 620 l 1,10,-1
 292 372 l 1,11,-1
 411 372 l 1,12,-1
 490 462 l 1,13,-1
 507 462 l 1,14,-1
 467 238 l 1,15,-1
 451 238 l 1,16,-1
 402 326 l 1,17,-1
 284 326 l 1,18,-1
 237 59 l 1,19,-1
 341 16 l 1,20,-1
 338 0 l 1,21,-1
 -31 0 l 1,0,-1
EndSplineSet
Validated: 1
Substitution2: "'c2sc' Capitals to Small Capitals lookup 59 subtable" f.sc
Substitution2: "'aalt' Access All Alternates lookup 0 subtable" f.sc
Position2: "'cpsp' Capital Spacing lookup 0 subtable" dx=5 dy=0 dh=10 dv=0
EndChar

StartChar: G
Encoding: 71 71 15
Width: 706
GlyphClass: 2
Flags: W
AnchorPoint: "Anchor-3" 458 727 basechar 0
AnchorPoint: "Anchor-0" 323 0 basechar 0
LayerCount: 2
Fore
SplineSet
312 -10 m 0,0,1
 233 -10 233 -10 172 25 c 128,-1,2
 111 60 111 60 76 122.5 c 128,-1,3
 41 185 41 185 41 264 c 0,4,5
 41 350 41 350 77.5 426.5 c 128,-1,6
 114 503 114 503 175.5 561.5 c 128,-1,7
 237 620 237 620 313 653 c 128,-1,8
 389 686 389 686 469 686 c 0,9,10
 519 686 519 686 553.5 680 c 128,-1,11
 588 674 588 674 613.5 662.5 c 128,-1,12
 639 651 639 651 663 637 c 1,13,-1
 643 450 l 1,14,-1
 627 450 l 1,15,-1
 546 621 l 1,16,17
 528 630 528 630 511.5 633.5 c 128,-1,18
 495 637 495 637 468 637 c 0,19,20
 418 637 418 637 373.5 603 c 128,-1,21
 329 569 329 569 294.5 512.5 c 128,-1,22
 260 456 260 456 240.5 384 c 128,-1,23
 221 312 221 312 221 237 c 0,24,25
 221 150 221 150 257 100 c 128,-1,26
 293 50 293 50 350 50 c 0,27,28
 368 50 368 50 391 53 c 1,29,-1
 425 245 l 1,30,-1
 352 298 l 1,31,-1
 355 314 l 1,32,-1
 685 314 l 1,33,-1
 682 298 l 1,34,-1
 600 245 l 1,35,-1
 570 76 l 1,36,37
 537 50 537 50 491.5 30.5 c 128,-1,38
 446 11 446 11 399 0.5 c 128,-1,39
 352 -10 352 -10 312 -10 c 0,0,1
EndSplineSet
Validated: 1
Substitution2: "'c2sc' Capitals to Small Capitals lookup 59 subtable" g.sc
Substitution2: "'aalt' Access All Alternates lookup 0 subtable" g.sc
Position2: "'cpsp' Capital Spacing lookup 0 subtable" dx=5 dy=0 dh=10 dv=0
EndChar

StartChar: H
Encoding: 72 72 16
Width: 787
GlyphClass: 2
Flags: W
AnchorPoint: "Anchor-3" 461 727 basechar 0
AnchorPoint: "Anchor-0" 332 0 basechar 0
LayerCount: 2
Fore
SplineSet
-31 0 m 1,0,-1
 -28 16 l 1,1,-1
 61 59 l 1,2,-1
 160 616 l 1,3,-1
 85 659 l 1,4,-1
 88 676 l 1,5,-1
 417 676 l 1,6,-1
 414 659 l 1,7,-1
 335 616 l 1,8,-1
 293 377 l 1,9,-1
 511 377 l 1,10,-1
 553 616 l 1,11,-1
 487 659 l 1,12,-1
 490 676 l 1,13,-1
 818 676 l 1,14,-1
 815 659 l 1,15,-1
 728 616 l 1,16,-1
 630 59 l 1,17,-1
 702 16 l 1,18,-1
 699 0 l 1,19,-1
 372 0 l 1,20,-1
 375 16 l 1,21,-1
 455 59 l 1,22,-1
 501 321 l 1,23,-1
 283 321 l 1,24,-1
 237 59 l 1,25,-1
 301 16 l 1,26,-1
 298 0 l 1,27,-1
 -31 0 l 1,0,-1
EndSplineSet
Validated: 1
Substitution2: "'c2sc' Capitals to Small Capitals lookup 59 subtable" h.sc
Substitution2: "'aalt' Access All Alternates lookup 0 subtable" h.sc
Position2: "'cpsp' Capital Spacing lookup 0 subtable" dx=5 dy=0 dh=10 dv=0
EndChar

StartChar: I
Encoding: 73 73 17
Width: 396
GlyphClass: 2
Flags: W
AnchorPoint: "Anchor-3" 266 727 basechar 0
AnchorPoint: "Anchor-2" 156 0 basechar 0
AnchorPoint: "Anchor-0" 138 0 basechar 0
LayerCount: 2
Fore
SplineSet
-31 0 m 1,0,-1
 -28 16 l 1,1,-1
 61 59 l 1,2,-1
 160 616 l 1,3,-1
 85 659 l 1,4,-1
 88 676 l 1,5,-1
 427 676 l 1,6,-1
 424 659 l 1,7,-1
 335 616 l 1,8,-1
 237 59 l 1,9,-1
 311 16 l 1,10,-1
 308 0 l 1,11,-1
 -31 0 l 1,0,-1
EndSplineSet
Validated: 1
Substitution2: "'c2sc' Capitals to Small Capitals lookup 59 subtable" i.sc
Substitution2: "'aalt' Access All Alternates lookup 0 subtable" i.sc
Position2: "'cpsp' Capital Spacing lookup 0 subtable" dx=5 dy=0 dh=10 dv=0
EndChar

StartChar: J
Encoding: 74 74 18
Width: 406
GlyphClass: 2
Flags: W
AnchorPoint: "Anchor-3" 286 727 basechar 0
LayerCount: 2
Fore
SplineSet
-39 -177 m 0,0,1
 -88 -177 -88 -177 -88 -142 c 0,2,3
 -88 -134 -88 -134 -85 -125 c 2,4,-1
 -66 -56 l 1,5,-1
 31 -76 l 1,6,7
 49 -58 49 -58 63 -20 c 128,-1,8
 77 18 77 18 89 89 c 2,9,-1
 182 616 l 1,10,-1
 97 659 l 1,11,-1
 99 676 l 1,12,-1
 439 676 l 1,13,-1
 437 659 l 1,14,-1
 357 616 l 1,15,-1
 287 234 l 2,16,17
 273 156 273 156 234 83 c 128,-1,18
 195 10 195 10 119 -68 c 0,19,20
 69 -119 69 -119 40 -142.5 c 128,-1,21
 11 -166 11 -166 -6 -171.5 c 128,-1,22
 -23 -177 -23 -177 -39 -177 c 0,0,1
EndSplineSet
Validated: 1
Substitution2: "'c2sc' Capitals to Small Capitals lookup 59 subtable" j.sc
Substitution2: "Single Substitution lookup 13 subtable" Jacute
AlternateSubs2: "'aalt' Access All Alternates lookup 1 subtable" Jacute j.sc
Position2: "'cpsp' Capital Spacing lookup 0 subtable" dx=5 dy=0 dh=10 dv=0
EndChar

StartChar: K
Encoding: 75 75 19
Width: 751
GlyphClass: 2
Flags: W
AnchorPoint: "Anchor-3" 465 727 basechar 0
AnchorPoint: "Anchor-0" 348 0 basechar 0
LayerCount: 2
Fore
SplineSet
-31 0 m 1,0,-1
 -28 16 l 1,1,-1
 61 59 l 1,2,-1
 160 616 l 1,3,-1
 85 659 l 1,4,-1
 88 676 l 1,5,-1
 428 676 l 1,6,-1
 424 659 l 1,7,-1
 335 616 l 1,8,-1
 237 59 l 1,9,-1
 312 16 l 1,10,-1
 308 0 l 1,11,-1
 -31 0 l 1,0,-1
471 0 m 1,12,-1
 289 339 l 1,13,-1
 584 624 l 1,14,-1
 517 659 l 1,15,-1
 520 676 l 1,16,-1
 752 676 l 1,17,-1
 748 659 l 1,18,-1
 686 635 l 1,19,-1
 439 404 l 1,20,-1
 645 53 l 1,21,-1
 702 16 l 1,22,-1
 699 0 l 1,23,-1
 471 0 l 1,12,-1
EndSplineSet
Validated: 1
Substitution2: "'c2sc' Capitals to Small Capitals lookup 59 subtable" k.sc
Substitution2: "'aalt' Access All Alternates lookup 0 subtable" k.sc
Position2: "'cpsp' Capital Spacing lookup 0 subtable" dx=5 dy=0 dh=10 dv=0
EndChar

StartChar: L
Encoding: 76 76 20
Width: 583
GlyphClass: 2
Flags: W
AnchorPoint: "Anchor-3" 266 727 basechar 0
AnchorPoint: "Anchor-2" 543 676 basechar 0
AnchorPoint: "Anchor-1" 496 364 basechar 0
AnchorPoint: "Anchor-0" 269 0 basechar 0
LayerCount: 2
Fore
SplineSet
-31 0 m 1,0,-1
 -28 16 l 1,1,-1
 61 59 l 1,2,-1
 160 616 l 1,3,-1
 85 659 l 1,4,-1
 88 676 l 1,5,-1
 437 676 l 1,6,-1
 434 659 l 1,7,-1
 335 616 l 1,8,-1
 236 56 l 1,9,-1
 404 56 l 1,10,-1
 531 251 l 1,11,-1
 548 251 l 1,12,-1
 501 0 l 1,13,-1
 -31 0 l 1,0,-1
EndSplineSet
Validated: 1
Substitution2: "'c2sc' Capitals to Small Capitals lookup 59 subtable" l.sc
Substitution2: "'aalt' Access All Alternates lookup 0 subtable" l.sc
Position2: "'cpsp' Capital Spacing lookup 0 subtable" dx=5 dy=0 dh=10 dv=0
EndChar

StartChar: M
Encoding: 77 77 21
Width: 963
GlyphClass: 2
Flags: W
AnchorPoint: "Anchor-0" 377 0 basechar 0
LayerCount: 2
Fore
SplineSet
-31 0 m 1,0,-1
 -28 16 l 1,1,-1
 61 59 l 1,2,-1
 179 617 l 1,3,-1
 98 659 l 1,4,-1
 101 676 l 1,5,-1
 374 676 l 1,6,-1
 473 243 l 1,7,-1
 707 676 l 1,8,-1
 964 676 l 1,9,-1
 961 659 l 1,10,-1
 873 616 l 1,11,-1
 811 59 l 1,12,-1
 879 16 l 1,13,-1
 876 0 l 1,14,-1
 551 0 l 1,15,-1
 554 16 l 1,16,-1
 637 58 l 1,17,-1
 688 509 l 1,18,-1
 407 -5 l 1,19,-1
 348 -5 l 1,20,-1
 225 534 l 1,21,-1
 129 58 l 1,22,-1
 208 16 l 1,23,-1
 204 0 l 1,24,-1
 -31 0 l 1,0,-1
EndSplineSet
Validated: 1
Substitution2: "'c2sc' Capitals to Small Capitals lookup 59 subtable" m.sc
Substitution2: "'aalt' Access All Alternates lookup 0 subtable" m.sc
Position2: "'cpsp' Capital Spacing lookup 0 subtable" dx=5 dy=0 dh=10 dv=0
EndChar

StartChar: N
Encoding: 78 78 22
Width: 769
GlyphClass: 2
Flags: W
AnchorPoint: "Anchor-3" 458 727 basechar 0
AnchorPoint: "Anchor-0" 339 0 basechar 0
LayerCount: 2
Fore
SplineSet
-26 0 m 1,0,-1
 -23 16 l 1,1,-1
 67 59 l 1,2,-1
 165 616 l 1,3,-1
 90 659 l 1,4,-1
 93 676 l 1,5,-1
 293 676 l 1,6,-1
 569 239 l 1,7,-1
 636 616 l 1,8,-1
 529 659 l 1,9,-1
 532 676 l 1,10,-1
 800 676 l 1,11,-1
 797 659 l 1,12,-1
 710 616 l 1,13,-1
 600 -5 l 1,14,-1
 520 -5 l 1,15,-1
 213 472 l 1,16,-1
 140 59 l 1,17,-1
 247 16 l 1,18,-1
 244 0 l 1,19,-1
 -26 0 l 1,0,-1
EndSplineSet
Validated: 1
Substitution2: "'c2sc' Capitals to Small Capitals lookup 59 subtable" n.sc
Substitution2: "'aalt' Access All Alternates lookup 0 subtable" n.sc
Position2: "'cpsp' Capital Spacing lookup 0 subtable" dx=5 dy=0 dh=10 dv=0
EndChar

StartChar: O
Encoding: 79 79 23
Width: 797
GlyphClass: 2
Flags: W
AnchorPoint: "Anchor-3" 466 727 basechar 0
AnchorPoint: "Anchor-2" 361 0 basechar 0
AnchorPoint: "Anchor-0" 343 0 basechar 0
LayerCount: 2
Fore
SplineSet
347 -10 m 0,0,1
 248 -10 248 -10 180 26 c 128,-1,2
 112 62 112 62 76.5 127.5 c 128,-1,3
 41 193 41 193 41 278 c 0,4,5
 41 364 41 364 72 438 c 128,-1,6
 103 512 103 512 159 568 c 128,-1,7
 215 624 215 624 289.5 655 c 128,-1,8
 364 686 364 686 450 686 c 0,9,10
 549 686 549 686 617 649.5 c 128,-1,11
 685 613 685 613 721 548.5 c 128,-1,12
 757 484 757 484 757 399 c 0,13,14
 757 313 757 313 727 239 c 128,-1,15
 697 165 697 165 642.5 108.5 c 128,-1,16
 588 52 588 52 513 21 c 128,-1,17
 438 -10 438 -10 347 -10 c 0,0,1
357 43 m 0,18,19
 405 43 405 43 444.5 73 c 128,-1,20
 484 103 484 103 512.5 156.5 c 128,-1,21
 541 210 541 210 556 279 c 128,-1,22
 571 348 571 348 571 426 c 0,23,24
 571 487 571 487 559 533.5 c 128,-1,25
 547 580 547 580 518.5 606 c 128,-1,26
 490 632 490 632 441 632 c 0,27,28
 396 632 396 632 356.5 601.5 c 128,-1,29
 317 571 317 571 288 518 c 128,-1,30
 259 465 259 465 242.5 396.5 c 128,-1,31
 226 328 226 328 226 251 c 0,32,33
 226 159 226 159 258.5 101 c 128,-1,34
 291 43 291 43 357 43 c 0,18,19
EndSplineSet
Validated: 1
Substitution2: "'c2sc' Capitals to Small Capitals lookup 59 subtable" o.sc
Substitution2: "Single Substitution lookup 21 subtable" ordmasculine
AlternateSubs2: "'aalt' Access All Alternates lookup 1 subtable" ordmasculine o.sc
Position2: "'cpsp' Capital Spacing lookup 0 subtable" dx=5 dy=0 dh=10 dv=0
EndChar

StartChar: P
Encoding: 80 80 24
Width: 661
GlyphClass: 1
Flags: W
LayerCount: 2
Fore
SplineSet
-31 0 m 1,0,-1
 -28 16 l 1,1,-1
 61 59 l 1,2,-1
 160 616 l 1,3,-1
 85 659 l 1,4,-1
 88 676 l 1,5,-1
 392 676 l 2,6,7
 529 676 529 676 592.5 635.5 c 128,-1,8
 656 595 656 595 656 516 c 0,9,10
 656 458 656 458 619.5 409 c 128,-1,11
 583 360 583 360 506.5 331.5 c 128,-1,12
 430 303 430 303 310 303 c 2,13,-1
 279 303 l 1,14,-1
 237 59 l 1,15,-1
 333 16 l 1,16,-1
 330 0 l 1,17,-1
 -31 0 l 1,0,-1
350 620 m 2,18,-1
 334 620 l 1,19,-1
 287 349 l 1,20,-1
 324 349 l 2,21,22
 376 349 376 349 408.5 371 c 128,-1,23
 441 393 441 393 456.5 430 c 128,-1,24
 472 467 472 467 472 511 c 0,25,26
 472 562 472 562 440.5 591 c 128,-1,27
 409 620 409 620 350 620 c 2,18,-1
EndSplineSet
Validated: 1
Substitution2: "'c2sc' Capitals to Small Capitals lookup 59 subtable" p.sc
Substitution2: "'aalt' Access All Alternates lookup 0 subtable" p.sc
Position2: "'cpsp' Capital Spacing lookup 0 subtable" dx=5 dy=0 dh=10 dv=0
EndChar

StartChar: Q
Encoding: 81 81 25
Width: 797
GlyphClass: 1
Flags: W
LayerCount: 2
Fore
SplineSet
627 -153 m 0,0,1
 589 -153 589 -153 530 -140 c 128,-1,2
 471 -127 471 -127 404 -94.5 c 128,-1,3
 337 -62 337 -62 271 -4 c 1,4,5
 158 16 158 16 99.5 91.5 c 128,-1,6
 41 167 41 167 41 278 c 0,7,8
 41 364 41 364 72 438 c 128,-1,9
 103 512 103 512 159 568 c 128,-1,10
 215 624 215 624 289.5 655 c 128,-1,11
 364 686 364 686 450 686 c 0,12,13
 549 686 549 686 617 649.5 c 128,-1,14
 685 613 685 613 721 548.5 c 128,-1,15
 757 484 757 484 757 399 c 0,16,17
 757 305 757 305 721 224 c 128,-1,18
 685 143 685 143 619.5 86.5 c 128,-1,19
 554 30 554 30 466 5 c 1,20,21
 526 -41 526 -41 565.5 -65 c 128,-1,22
 605 -89 605 -89 636 -97 c 128,-1,23
 667 -105 667 -105 698 -105 c 0,24,25
 716 -105 716 -105 734 -102 c 128,-1,26
 752 -99 752 -99 762 -95 c 1,27,-1
 753 -125 l 1,28,29
 730 -137 730 -137 698 -145 c 128,-1,30
 666 -153 666 -153 627 -153 c 0,0,1
357 43 m 0,31,32
 405 43 405 43 444.5 73 c 128,-1,33
 484 103 484 103 512.5 156.5 c 128,-1,34
 541 210 541 210 556 279 c 128,-1,35
 571 348 571 348 571 426 c 0,36,37
 571 487 571 487 559 533.5 c 128,-1,38
 547 580 547 580 518.5 606 c 128,-1,39
 490 632 490 632 441 632 c 0,40,41
 396 632 396 632 356.5 601.5 c 128,-1,42
 317 571 317 571 288 518 c 128,-1,43
 259 465 259 465 242.5 396.5 c 128,-1,44
 226 328 226 328 226 251 c 0,45,46
 226 159 226 159 258.5 101 c 128,-1,47
 291 43 291 43 357 43 c 0,31,32
EndSplineSet
Validated: 1
Substitution2: "'c2sc' Capitals to Small Capitals lookup 59 subtable" q.sc
Substitution2: "'aalt' Access All Alternates lookup 0 subtable" q.sc
Position2: "'cpsp' Capital Spacing lookup 0 subtable" dx=5 dy=0 dh=10 dv=0
EndChar

StartChar: R
Encoding: 82 82 26
Width: 742
GlyphClass: 2
Flags: W
AnchorPoint: "Anchor-3" 378 727 basechar 0
AnchorPoint: "Anchor-0" 307 0 basechar 0
LayerCount: 2
Fore
SplineSet
-31 0 m 1,0,-1
 -29 16 l 1,1,-1
 60 59 l 1,2,-1
 159 616 l 1,3,-1
 84 659 l 1,4,-1
 87 676 l 1,5,-1
 393 676 l 2,6,7
 509 676 509 676 572.5 637 c 128,-1,8
 636 598 636 598 636 523 c 0,9,10
 636 464 636 464 594.5 421.5 c 128,-1,11
 553 379 553 379 481 352 c 1,12,-1
 610 60 l 1,13,-1
 674 16 l 1,14,-1
 672 0 l 1,15,-1
 447 0 l 1,16,-1
 324 315 l 1,17,-1
 281 315 l 1,18,-1
 236 59 l 1,19,-1
 310 16 l 1,20,-1
 307 0 l 1,21,-1
 -31 0 l 1,0,-1
355 620 m 2,22,-1
 333 620 l 1,23,-1
 288 361 l 1,24,-1
 322 361 l 2,25,26
 389 361 389 361 425 405.5 c 128,-1,27
 461 450 461 450 461 511 c 0,28,29
 460 620 460 620 355 620 c 2,22,-1
EndSplineSet
Validated: 1
Substitution2: "'c2sc' Capitals to Small Capitals lookup 59 subtable" r.sc
Substitution2: "'aalt' Access All Alternates lookup 0 subtable" r.sc
Position2: "'cpsp' Capital Spacing lookup 0 subtable" dx=5 dy=0 dh=10 dv=0
EndChar

StartChar: S
Encoding: 83 83 27
Width: 586
GlyphClass: 2
Flags: W
AnchorPoint: "Anchor-3" 389 727 basechar 0
AnchorPoint: "Anchor-0" 239 0 basechar 0
LayerCount: 2
Fore
SplineSet
230 -10 m 0,0,1
 167 -10 167 -10 119 4.5 c 128,-1,2
 71 19 71 19 31 45 c 1,3,-1
 49 222 l 1,4,-1
 68 222 l 1,5,-1
 130 78 l 1,6,7
 144 67 144 67 167.5 55.5 c 128,-1,8
 191 44 191 44 226 44 c 0,9,10
 280 44 280 44 319 72 c 128,-1,11
 358 100 358 100 358 147 c 0,12,13
 358 178 358 178 345.5 198.5 c 128,-1,14
 333 219 333 219 301.5 241.5 c 128,-1,15
 270 264 270 264 215 299 c 0,16,17
 177 324 177 324 153 346.5 c 128,-1,18
 129 369 129 369 117.5 397 c 128,-1,19
 106 425 106 425 106 464 c 0,20,21
 106 525 106 525 142 576 c 128,-1,22
 178 627 178 627 240 656.5 c 128,-1,23
 302 686 302 686 380 686 c 0,24,25
 429 686 429 686 474 673 c 128,-1,26
 519 660 519 660 551 637 c 1,27,-1
 535 473 l 1,28,-1
 516 473 l 1,29,-1
 455 599 l 1,30,31
 441 613 441 613 422.5 622 c 128,-1,32
 404 631 404 631 375 631 c 0,33,34
 329 631 329 631 298 602 c 128,-1,35
 267 573 267 573 267 534 c 0,36,37
 267 510 267 510 276 491 c 128,-1,38
 285 472 285 472 308 452 c 128,-1,39
 331 432 331 432 374 404 c 0,40,41
 421 375 421 375 452.5 350.5 c 128,-1,42
 484 326 484 326 500 295.5 c 128,-1,43
 516 265 516 265 516 220 c 0,44,45
 516 159 516 159 479.5 106.5 c 128,-1,46
 443 54 443 54 379 22 c 128,-1,47
 315 -10 315 -10 230 -10 c 0,0,1
EndSplineSet
Validated: 1
Substitution2: "'c2sc' Capitals to Small Capitals lookup 59 subtable" s.sc
Substitution2: "'aalt' Access All Alternates lookup 0 subtable" s.sc
Position2: "'cpsp' Capital Spacing lookup 0 subtable" dx=5 dy=0 dh=10 dv=0
EndChar

StartChar: T
Encoding: 84 84 28
Width: 651
GlyphClass: 2
Flags: W
AnchorPoint: "Anchor-3" 396 727 basechar 0
AnchorPoint: "Anchor-0" 268 0 basechar 0
LayerCount: 2
Fore
SplineSet
81 0 m 1,0,-1
 84 16 l 1,1,-1
 191 59 l 1,2,-1
 292 620 l 1,3,-1
 172 620 l 1,4,-1
 62 439 l 1,5,-1
 46 439 l 1,6,-1
 86 676 l 1,7,-1
 692 676 l 1,8,-1
 652 439 l 1,9,-1
 636 439 l 1,10,-1
 587 620 l 1,11,-1
 467 620 l 1,12,-1
 367 59 l 1,13,-1
 462 16 l 1,14,-1
 459 0 l 1,15,-1
 81 0 l 1,0,-1
EndSplineSet
Validated: 1
Substitution2: "'c2sc' Capitals to Small Capitals lookup 59 subtable" t.sc
Substitution2: "'aalt' Access All Alternates lookup 0 subtable" t.sc
Position2: "'cpsp' Capital Spacing lookup 0 subtable" dx=5 dy=0 dh=10 dv=0
EndChar

StartChar: U
Encoding: 85 85 29
Width: 764
GlyphClass: 2
Flags: W
AnchorPoint: "Anchor-3" 512 727 basechar 0
AnchorPoint: "Anchor-2" 366 0 basechar 0
AnchorPoint: "Anchor-0" 343 0 basechar 0
LayerCount: 2
Fore
SplineSet
357 -10 m 0,0,1
 277 -10 277 -10 218 11.5 c 128,-1,2
 159 33 159 33 126 82.5 c 128,-1,3
 93 132 93 132 93 216 c 0,4,5
 93 257 93 257 102 309 c 2,6,-1
 156 616 l 1,7,-1
 80 659 l 1,8,-1
 83 676 l 1,9,-1
 424 676 l 1,10,-1
 421 659 l 1,11,-1
 331 616 l 1,12,-1
 275 297 l 2,13,14
 269 259 269 259 269 228 c 0,15,16
 269 173 269 173 288 140.5 c 128,-1,17
 307 108 307 108 340 93.5 c 128,-1,18
 373 79 373 79 414 79 c 256,19,20
 455 79 455 79 492.5 97 c 128,-1,21
 530 115 530 115 559 155 c 128,-1,22
 588 195 588 195 599 261 c 2,23,-1
 660 618 l 1,24,-1
 585 659 l 1,25,-1
 588 676 l 1,26,-1
 817 676 l 1,27,-1
 814 659 l 1,28,-1
 724 617 l 1,29,-1
 671 309 l 2,30,31
 651 189 651 189 607 119 c 128,-1,32
 563 49 563 49 500.5 19.5 c 128,-1,33
 438 -10 438 -10 357 -10 c 0,0,1
EndSplineSet
Validated: 1
Substitution2: "'c2sc' Capitals to Small Capitals lookup 59 subtable" u.sc
Substitution2: "'aalt' Access All Alternates lookup 0 subtable" u.sc
Position2: "'cpsp' Capital Spacing lookup 0 subtable" dx=5 dy=0 dh=10 dv=0
EndChar

StartChar: V
Encoding: 86 86 30
Width: 700
GlyphClass: 1
Flags: W
LayerCount: 2
Fore
SplineSet
262 -5 m 1,0,-1
 119 623 l 1,1,-1
 59 659 l 1,2,-1
 63 676 l 1,3,-1
 381 676 l 1,4,-1
 377 659 l 1,5,-1
 299 624 l 1,6,-1
 395 199 l 1,7,-1
 403 199 l 1,8,-1
 633 623 l 1,9,-1
 561 659 l 1,10,-1
 564 676 l 1,11,-1
 764 676 l 1,12,-1
 760 659 l 1,13,-1
 702 627 l 1,14,-1
 353 -5 l 1,15,-1
 262 -5 l 1,0,-1
EndSplineSet
Validated: 1
Substitution2: "'c2sc' Capitals to Small Capitals lookup 59 subtable" v.sc
Substitution2: "'aalt' Access All Alternates lookup 0 subtable" v.sc
Position2: "'cpsp' Capital Spacing lookup 0 subtable" dx=5 dy=0 dh=10 dv=0
EndChar

StartChar: W
Encoding: 87 87 31
Width: 976
GlyphClass: 2
Flags: W
AnchorPoint: "Anchor-3" 621 727 basechar 0
LayerCount: 2
Fore
SplineSet
197 -5 m 1,0,-1
 124 624 l 1,1,-1
 59 659 l 1,2,-1
 62 676 l 1,3,-1
 386 676 l 1,4,-1
 383 659 l 1,5,-1
 299 622 l 1,6,-1
 340 241 l 1,7,-1
 347 241 l 1,8,-1
 569 681 l 1,9,-1
 659 681 l 1,10,-1
 736 244 l 1,11,-1
 742 244 l 1,12,-1
 902 624 l 1,13,-1
 828 659 l 1,14,-1
 831 676 l 1,15,-1
 1040 676 l 1,16,-1
 1037 659 l 1,17,-1
 971 626 l 1,18,-1
 696 -5 l 1,19,-1
 605 -5 l 1,20,-1
 522 447 l 1,21,-1
 517 447 l 1,22,-1
 288 -5 l 1,23,-1
 197 -5 l 1,0,-1
EndSplineSet
Validated: 1
Substitution2: "'c2sc' Capitals to Small Capitals lookup 59 subtable" w.sc
Substitution2: "'aalt' Access All Alternates lookup 0 subtable" w.sc
Position2: "'cpsp' Capital Spacing lookup 0 subtable" dx=5 dy=0 dh=10 dv=0
EndChar

StartChar: X
Encoding: 88 88 32
Width: 738
GlyphClass: 1
Flags: W
LayerCount: 2
Fore
SplineSet
-47 0 m 1,0,-1
 -44 16 l 1,1,-1
 38 56 l 1,2,-1
 286 321 l 1,3,-1
 130 625 l 1,4,-1
 75 659 l 1,5,-1
 78 676 l 1,6,-1
 411 676 l 1,7,-1
 408 659 l 1,8,-1
 326 623 l 1,9,-1
 326 617 l 1,10,-1
 429 422 l 1,11,-1
 610 617 l 1,12,-1
 611 622 l 1,13,-1
 541 659 l 1,14,-1
 544 676 l 1,15,-1
 768 676 l 1,16,-1
 765 659 l 1,17,-1
 694 623 l 1,18,-1
 455 372 l 1,19,-1
 621 56 l 1,20,-1
 683 16 l 1,21,-1
 680 0 l 1,22,-1
 343 0 l 1,23,-1
 346 16 l 1,24,-1
 421 53 l 1,25,-1
 421 57 l 1,26,-1
 313 267 l 1,27,-1
 120 60 l 1,28,-1
 116 56 l 1,29,-1
 185 16 l 1,30,-1
 182 0 l 1,31,-1
 -47 0 l 1,0,-1
EndSplineSet
Validated: 1
Substitution2: "'c2sc' Capitals to Small Capitals lookup 59 subtable" x.sc
Substitution2: "'aalt' Access All Alternates lookup 0 subtable" x.sc
Position2: "'cpsp' Capital Spacing lookup 0 subtable" dx=5 dy=0 dh=10 dv=0
EndChar

StartChar: Y
Encoding: 89 89 33
Width: 706
GlyphClass: 2
Flags: W
AnchorPoint: "Anchor-3" 477 727 basechar 0
AnchorPoint: "Anchor-0" 309 0 basechar 0
LayerCount: 2
Fore
SplineSet
138 0 m 1,0,-1
 141 16 l 1,1,-1
 230 59 l 1,2,-1
 275 314 l 1,3,-1
 114 625 l 1,4,-1
 59 659 l 1,5,-1
 63 676 l 1,6,-1
 383 676 l 1,7,-1
 379 659 l 1,8,-1
 298 623 l 1,9,-1
 297 618 l 1,10,-1
 428 372 l 1,11,-1
 627 618 l 1,12,-1
 628 623 l 1,13,-1
 558 659 l 1,14,-1
 562 676 l 1,15,-1
 780 676 l 1,16,-1
 777 659 l 1,17,-1
 712 629 l 1,18,-1
 451 317 l 1,19,-1
 406 59 l 1,20,-1
 480 16 l 1,21,-1
 477 0 l 1,22,-1
 138 0 l 1,0,-1
EndSplineSet
Validated: 1
Substitution2: "'c2sc' Capitals to Small Capitals lookup 59 subtable" y.sc
Substitution2: "'aalt' Access All Alternates lookup 0 subtable" y.sc
Position2: "'cpsp' Capital Spacing lookup 0 subtable" dx=5 dy=0 dh=10 dv=0
EndChar

StartChar: Z
Encoding: 90 90 34
Width: 620
GlyphClass: 2
Flags: W
AnchorPoint: "Anchor-3" 382 727 basechar 0
AnchorPoint: "Anchor-0" 269 0 basechar 0
LayerCount: 2
Fore
SplineSet
-10 0 m 1,0,-1
 -4 38 l 1,1,-1
 414 620 l 1,2,-1
 200 620 l 1,3,-1
 89 452 l 1,4,-1
 73 452 l 1,5,-1
 115 676 l 1,6,-1
 625 676 l 1,7,-1
 618 638 l 1,8,-1
 207 67 l 1,9,-1
 434 67 l 1,10,-1
 549 234 l 1,11,-1
 565 234 l 1,12,-1
 521 0 l 1,13,-1
 -10 0 l 1,0,-1
EndSplineSet
Validated: 1
Substitution2: "'c2sc' Capitals to Small Capitals lookup 59 subtable" z.sc
Substitution2: "'aalt' Access All Alternates lookup 0 subtable" z.sc
Position2: "'cpsp' Capital Spacing lookup 0 subtable" dx=5 dy=0 dh=10 dv=0
EndChar

StartChar: Aogonek
Encoding: 260 260 45
Width: 736
GlyphClass: 1
Flags: W
LayerCount: 2
Fore
SplineSet
-46 0 m 1,0,-1
 -43 16 l 1,1,-1
 15 49 l 1,2,-1
 373 681 l 1,3,-1
 478 681 l 1,4,-1
 608 54 l 1,5,-1
 667 16 l 1,6,-1
 664 0 l 1,7,-1
 530 0 l 1,8,9
 513 -31 513 -31 500.5 -65 c 128,-1,10
 488 -99 488 -99 488 -133 c 0,11,12
 488 -187 488 -187 543 -187 c 0,13,14
 554 -187 554 -187 566.5 -182.5 c 128,-1,15
 579 -178 579 -178 586 -171 c 1,16,-1
 590 -171 l 1,17,-1
 584 -194 l 1,18,19
 569 -218 569 -218 544.5 -232 c 128,-1,20
 520 -246 520 -246 486 -246 c 0,21,22
 442 -246 442 -246 417.5 -224 c 128,-1,23
 393 -202 393 -202 393 -164 c 0,24,25
 393 -119 393 -119 423.5 -77.5 c 128,-1,26
 454 -36 454 -36 493 0 c 1,27,-1
 332 0 l 1,28,-1
 335 16 l 1,29,-1
 421 54 l 1,30,-1
 390 212 l 1,31,-1
 174 212 l 1,32,-1
 85 52 l 1,33,-1
 157 16 l 1,34,-1
 153 0 l 1,35,-1
 -46 0 l 1,0,-1
206 268 m 1,36,-1
 379 268 l 1,37,-1
 333 498 l 1,38,-1
 206 268 l 1,36,-1
EndSplineSet
Validated: 1
Substitution2: "'c2sc' Capitals to Small Capitals lookup 59 subtable" aogonek.sc
Substitution2: "'aalt' Access All Alternates lookup 0 subtable" aogonek.sc
Position2: "'cpsp' Capital Spacing lookup 0 subtable" dx=5 dy=0 dh=10 dv=0
EndChar

StartChar: AE
Encoding: 198 198 59
Width: 986
GlyphClass: 2
Flags: W
AnchorPoint: "Anchor-3" 618 727 basechar 0
LayerCount: 2
Fore
SplineSet
-46 0 m 1,0,-1
 -43 16 l 1,1,-1
 19 48 l 1,2,-1
 500 676 l 1,3,-1
 971 676 l 1,4,-1
 940 498 l 1,5,-1
 925 498 l 1,6,-1
 870 620 l 1,7,-1
 682 620 l 1,8,-1
 640 377 l 1,9,-1
 763 377 l 1,10,-1
 843 467 l 1,11,-1
 859 467 l 1,12,-1
 817 232 l 1,13,-1
 801 232 l 1,14,-1
 753 321 l 1,15,-1
 630 321 l 1,16,-1
 584 56 l 1,17,-1
 788 56 l 1,18,-1
 902 224 l 1,19,-1
 919 224 l 1,20,-1
 879 0 l 1,21,-1
 316 0 l 1,22,-1
 319 16 l 1,23,-1
 409 59 l 1,24,-1
 439 232 l 1,25,-1
 231 232 l 1,26,-1
 91 49 l 1,27,-1
 157 16 l 1,28,-1
 153 0 l 1,29,-1
 -46 0 l 1,0,-1
274 289 m 1,30,-1
 450 289 l 1,31,-1
 502 586 l 1,32,-1
 274 289 l 1,30,-1
EndSplineSet
Validated: 1
Substitution2: "'c2sc' Capitals to Small Capitals lookup 59 subtable" ae.sc
Substitution2: "'aalt' Access All Alternates lookup 0 subtable" ae.sc
Position2: "'cpsp' Capital Spacing lookup 0 subtable" dx=5 dy=0 dh=10 dv=0
EndChar

StartChar: Ccedilla
Encoding: 199 199 65
Width: 677
GlyphClass: 1
Flags: W
LayerCount: 2
Fore
SplineSet
306 -246 m 0,0,1
 280 -246 280 -246 262.5 -240 c 128,-1,2
 245 -234 245 -234 231 -226 c 1,3,-1
 236 -204 l 1,4,-1
 240 -204 l 1,5,6
 249 -208 249 -208 263.5 -210.5 c 128,-1,7
 278 -213 278 -213 290 -213 c 0,8,9
 317 -213 317 -213 332 -201.5 c 128,-1,10
 347 -190 347 -190 347 -171 c 0,11,12
 347 -153 347 -153 328 -136.5 c 128,-1,13
 309 -120 309 -120 258 -110 c 1,14,-1
 316 -10 l 1,15,16
 232 -5 232 -5 170.5 31.5 c 128,-1,17
 109 68 109 68 75 128.5 c 128,-1,18
 41 189 41 189 41 266 c 0,19,20
 41 348 41 348 73 423.5 c 128,-1,21
 105 499 105 499 162.5 558 c 128,-1,22
 220 617 220 617 297 651.5 c 128,-1,23
 374 686 374 686 463 686 c 0,24,25
 525 686 525 686 562 671.5 c 128,-1,26
 599 657 599 657 633 637 c 1,27,-1
 615 438 l 1,28,-1
 597 438 l 1,29,-1
 515 622 l 1,30,31
 491 637 491 637 447 637 c 0,32,33
 400 637 400 637 359 606 c 128,-1,34
 318 575 318 575 287.5 521 c 128,-1,35
 257 467 257 467 239.5 395 c 128,-1,36
 222 323 222 323 222 240 c 0,37,38
 222 152 222 152 258.5 98 c 128,-1,39
 295 44 295 44 360 44 c 0,40,41
 383 44 383 44 406 48.5 c 128,-1,42
 429 53 429 53 453 66 c 1,43,-1
 584 224 l 1,44,-1
 602 224 l 1,45,-1
 559 45 l 1,46,47
 522 20 522 20 466.5 6 c 128,-1,48
 411 -8 411 -8 353 -10 c 1,49,-1
 334 -44 l 1,50,51
 386 -56 386 -56 408 -82 c 128,-1,52
 430 -108 430 -108 430 -140 c 0,53,54
 430 -186 430 -186 395 -216 c 128,-1,55
 360 -246 360 -246 306 -246 c 0,0,1
EndSplineSet
Validated: 1
Substitution2: "'c2sc' Capitals to Small Capitals lookup 59 subtable" ccedilla.sc
Substitution2: "'aalt' Access All Alternates lookup 0 subtable" ccedilla.sc
Position2: "'cpsp' Capital Spacing lookup 0 subtable" dx=5 dy=0 dh=10 dv=0
EndChar

StartChar: Ccedillaacute
Encoding: 7688 7688 66
Width: 677
GlyphClass: 1
Flags: W
LayerCount: 2
Fore
SplineSet
431 727 m 1,0,-1
 525 883 l 1,1,-1
 663 883 l 1,2,-1
 659 851 l 1,3,-1
 457 727 l 1,4,-1
 431 727 l 1,0,-1
306 -246 m 0,5,6
 280 -246 280 -246 262.5 -240 c 128,-1,7
 245 -234 245 -234 231 -226 c 1,8,-1
 236 -204 l 1,9,-1
 240 -204 l 1,10,11
 249 -208 249 -208 263.5 -210.5 c 128,-1,12
 278 -213 278 -213 290 -213 c 0,13,14
 317 -213 317 -213 332 -201.5 c 128,-1,15
 347 -190 347 -190 347 -171 c 0,16,17
 347 -153 347 -153 328 -136.5 c 128,-1,18
 309 -120 309 -120 258 -110 c 1,19,-1
 316 -10 l 1,20,21
 232 -5 232 -5 170.5 31.5 c 128,-1,22
 109 68 109 68 75 128.5 c 128,-1,23
 41 189 41 189 41 266 c 0,24,25
 41 348 41 348 73 423.5 c 128,-1,26
 105 499 105 499 162.5 558 c 128,-1,27
 220 617 220 617 297 651.5 c 128,-1,28
 374 686 374 686 463 686 c 0,29,30
 525 686 525 686 562 671.5 c 128,-1,31
 599 657 599 657 633 637 c 1,32,-1
 615 438 l 1,33,-1
 597 438 l 1,34,-1
 515 622 l 1,35,36
 491 637 491 637 447 637 c 0,37,38
 400 637 400 637 359 606 c 128,-1,39
 318 575 318 575 287.5 521 c 128,-1,40
 257 467 257 467 239.5 395 c 128,-1,41
 222 323 222 323 222 240 c 0,42,43
 222 152 222 152 258.5 98 c 128,-1,44
 295 44 295 44 360 44 c 0,45,46
 383 44 383 44 406 48.5 c 128,-1,47
 429 53 429 53 453 66 c 1,48,-1
 584 224 l 1,49,-1
 602 224 l 1,50,-1
 559 45 l 1,51,52
 522 20 522 20 466.5 6 c 128,-1,53
 411 -8 411 -8 353 -10 c 1,54,-1
 334 -44 l 1,55,56
 386 -56 386 -56 408 -82 c 128,-1,57
 430 -108 430 -108 430 -140 c 0,58,59
 430 -186 430 -186 395 -216 c 128,-1,60
 360 -246 360 -246 306 -246 c 0,5,6
EndSplineSet
Validated: 1
Substitution2: "'c2sc' Capitals to Small Capitals lookup 59 subtable" ccedillaacute.sc
Substitution2: "'aalt' Access All Alternates lookup 0 subtable" ccedillaacute.sc
Position2: "'cpsp' Capital Spacing lookup 0 subtable" dx=5 dy=0 dh=10 dv=0
EndChar

StartChar: Dcroat
Encoding: 272 272 68
Width: 775
GlyphClass: 1
Flags: W
LayerCount: 2
Fore
SplineSet
-31 0 m 1,0,-1
 -28 16 l 1,1,-1
 57 57 l 1,2,-1
 103 323 l 1,3,-1
 26 323 l 1,4,-1
 35 376 l 1,5,-1
 113 376 l 1,6,-1
 156 618 l 1,7,-1
 85 659 l 1,8,-1
 88 676 l 1,9,-1
 384 676 l 2,10,11
 497 676 497 676 575 639.5 c 128,-1,12
 653 603 653 603 693.5 537.5 c 128,-1,13
 734 472 734 472 734 384 c 0,14,15
 734 301 734 301 700 231.5 c 128,-1,16
 666 162 666 162 605 109.5 c 128,-1,17
 544 57 544 57 463.5 28.5 c 128,-1,18
 383 0 383 0 292 0 c 2,19,-1
 -31 0 l 1,0,-1
403 323 m 1,20,-1
 280 323 l 1,21,-1
 231 49 l 1,22,-1
 305 49 l 2,23,24
 374 49 374 49 430 93 c 128,-1,25
 486 137 486 137 520 215.5 c 128,-1,26
 554 294 554 294 554 396 c 0,27,28
 554 500 554 500 500.5 561 c 128,-1,29
 447 622 447 622 356 622 c 2,30,-1
 333 622 l 1,31,-1
 289 376 l 1,32,-1
 413 376 l 1,33,-1
 403 323 l 1,20,-1
EndSplineSet
Validated: 1
Substitution2: "'c2sc' Capitals to Small Capitals lookup 59 subtable" dcroat.sc
Substitution2: "'aalt' Access All Alternates lookup 0 subtable" dcroat.sc
Position2: "'cpsp' Capital Spacing lookup 0 subtable" dx=5 dy=0 dh=10 dv=0
EndChar

StartChar: Eogonek
Encoding: 280 280 80
Width: 638
GlyphClass: 1
Flags: W
LayerCount: 2
Fore
SplineSet
-31 0 m 1,0,-1
 -28 16 l 1,1,-1
 61 59 l 1,2,-1
 160 616 l 1,3,-1
 85 659 l 1,4,-1
 88 676 l 1,5,-1
 624 676 l 1,6,-1
 593 498 l 1,7,-1
 578 498 l 1,8,-1
 523 620 l 1,9,-1
 335 620 l 1,10,-1
 292 372 l 1,11,-1
 415 372 l 1,12,-1
 495 462 l 1,13,-1
 511 462 l 1,14,-1
 471 238 l 1,15,-1
 455 238 l 1,16,-1
 407 326 l 1,17,-1
 284 326 l 1,18,-1
 237 56 l 1,19,-1
 441 56 l 1,20,-1
 555 224 l 1,21,-1
 571 224 l 1,22,-1
 531 0 l 1,23,-1
 446 0 l 1,24,25
 429 -31 429 -31 416.5 -65 c 128,-1,26
 404 -99 404 -99 404 -133 c 0,27,28
 404 -187 404 -187 459 -187 c 0,29,30
 470 -187 470 -187 482.5 -182.5 c 128,-1,31
 495 -178 495 -178 502 -171 c 1,32,-1
 506 -171 l 1,33,-1
 500 -194 l 1,34,35
 485 -218 485 -218 460.5 -232 c 128,-1,36
 436 -246 436 -246 402 -246 c 0,37,38
 358 -246 358 -246 333.5 -224 c 128,-1,39
 309 -202 309 -202 309 -164 c 0,40,41
 309 -119 309 -119 339.5 -77.5 c 128,-1,42
 370 -36 370 -36 409 0 c 1,43,-1
 -31 0 l 1,0,-1
EndSplineSet
Validated: 1
Substitution2: "'c2sc' Capitals to Small Capitals lookup 59 subtable" eogonek.sc
Substitution2: "'aalt' Access All Alternates lookup 0 subtable" eogonek.sc
Position2: "'cpsp' Capital Spacing lookup 0 subtable" dx=5 dy=0 dh=10 dv=0
EndChar

StartChar: Ecedillabreve
Encoding: 7708 7708 92
Width: 638
GlyphClass: 1
Flags: W
LayerCount: 2
Fore
SplineSet
394 727 m 0,0,1
 317 727 317 727 285 764 c 128,-1,2
 253 801 253 801 247 883 c 1,3,-1
 272 883 l 1,4,5
 286 842 286 842 319.5 826 c 128,-1,6
 353 810 353 810 407 810 c 0,7,8
 459 810 459 810 497.5 825 c 128,-1,9
 536 840 536 840 561 883 c 1,10,-1
 587 883 l 1,11,12
 557 803 557 803 510.5 765 c 128,-1,13
 464 727 464 727 394 727 c 0,0,1
-31 0 m 1,14,-1
 -28 16 l 1,15,-1
 61 59 l 1,16,-1
 160 616 l 1,17,-1
 85 659 l 1,18,-1
 88 676 l 1,19,-1
 624 676 l 1,20,-1
 593 498 l 1,21,-1
 578 498 l 1,22,-1
 523 620 l 1,23,-1
 335 620 l 1,24,-1
 292 372 l 1,25,-1
 415 372 l 1,26,-1
 495 462 l 1,27,-1
 511 462 l 1,28,-1
 471 238 l 1,29,-1
 455 238 l 1,30,-1
 407 326 l 1,31,-1
 284 326 l 1,32,-1
 237 56 l 1,33,-1
 441 56 l 1,34,-1
 555 224 l 1,35,-1
 571 224 l 1,36,-1
 531 0 l 1,37,-1
 316 0 l 1,38,-1
 292 -44 l 1,39,40
 344 -56 344 -56 366 -82 c 128,-1,41
 388 -108 388 -108 388 -140 c 0,42,43
 388 -186 388 -186 353 -216 c 128,-1,44
 318 -246 318 -246 264 -246 c 0,45,46
 238 -246 238 -246 220.5 -240 c 128,-1,47
 203 -234 203 -234 189 -226 c 1,48,-1
 194 -204 l 1,49,-1
 198 -204 l 1,50,51
 207 -208 207 -208 221.5 -210.5 c 128,-1,52
 236 -213 236 -213 248 -213 c 0,53,54
 275 -213 275 -213 290 -201.5 c 128,-1,55
 305 -190 305 -190 305 -171 c 0,56,57
 305 -153 305 -153 286 -136.5 c 128,-1,58
 267 -120 267 -120 216 -110 c 1,59,-1
 281 0 l 1,60,-1
 -31 0 l 1,14,-1
EndSplineSet
Validated: 1
Substitution2: "'c2sc' Capitals to Small Capitals lookup 59 subtable" ecedillabreve.sc
Substitution2: "'aalt' Access All Alternates lookup 0 subtable" ecedillabreve.sc
Position2: "'cpsp' Capital Spacing lookup 0 subtable" dx=5 dy=0 dh=10 dv=0
EndChar

StartChar: Hbar
Encoding: 294 294 100
Width: 787
GlyphClass: 1
Flags: W
LayerCount: 2
Fore
SplineSet
-31 0 m 1,0,-1
 -28 16 l 1,1,-1
 61 59 l 1,2,-1
 136 480 l 1,3,-1
 53 480 l 1,4,-1
 65 534 l 1,5,-1
 145 534 l 1,6,-1
 160 616 l 1,7,-1
 85 659 l 1,8,-1
 88 676 l 1,9,-1
 417 676 l 1,10,-1
 414 659 l 1,11,-1
 335 616 l 1,12,-1
 321 534 l 1,13,-1
 539 534 l 1,14,-1
 553 616 l 1,15,-1
 487 659 l 1,16,-1
 490 676 l 1,17,-1
 818 676 l 1,18,-1
 815 659 l 1,19,-1
 728 616 l 1,20,-1
 714 534 l 1,21,-1
 793 534 l 1,22,-1
 781 480 l 1,23,-1
 705 480 l 1,24,-1
 630 59 l 1,25,-1
 702 16 l 1,26,-1
 699 0 l 1,27,-1
 372 0 l 1,28,-1
 375 16 l 1,29,-1
 455 59 l 1,30,-1
 501 321 l 1,31,-1
 283 321 l 1,32,-1
 237 59 l 1,33,-1
 301 16 l 1,34,-1
 298 0 l 1,35,-1
 -31 0 l 1,0,-1
293 377 m 1,36,-1
 511 377 l 1,37,-1
 529 480 l 1,38,-1
 311 480 l 1,39,-1
 293 377 l 1,36,-1
EndSplineSet
Validated: 1
Substitution2: "'c2sc' Capitals to Small Capitals lookup 59 subtable" hbar.sc
Substitution2: "'aalt' Access All Alternates lookup 0 subtable" hbar.sc
Position2: "'cpsp' Capital Spacing lookup 0 subtable" dx=5 dy=0 dh=10 dv=0
EndChar

StartChar: Iogonek
Encoding: 302 302 111
Width: 396
GlyphClass: 1
Flags: W
LayerCount: 2
Fore
SplineSet
-31 0 m 1,0,-1
 -28 16 l 1,1,-1
 61 59 l 1,2,-1
 160 616 l 1,3,-1
 85 659 l 1,4,-1
 88 676 l 1,5,-1
 427 676 l 1,6,-1
 424 659 l 1,7,-1
 335 616 l 1,8,-1
 237 59 l 1,9,-1
 311 16 l 1,10,-1
 308 0 l 1,11,-1
 157 0 l 1,12,13
 140 -31 140 -31 127.5 -65 c 128,-1,14
 115 -99 115 -99 115 -133 c 0,15,16
 115 -187 115 -187 169 -187 c 0,17,18
 180 -187 180 -187 192.5 -182.5 c 128,-1,19
 205 -178 205 -178 212 -171 c 1,20,-1
 216 -171 l 1,21,-1
 210 -194 l 1,22,23
 195 -218 195 -218 170.5 -232 c 128,-1,24
 146 -246 146 -246 113 -246 c 0,25,26
 69 -246 69 -246 44 -224 c 128,-1,27
 19 -202 19 -202 19 -164 c 0,28,29
 19 -119 19 -119 49.5 -77.5 c 128,-1,30
 80 -36 80 -36 119 0 c 1,31,-1
 -31 0 l 1,0,-1
EndSplineSet
Validated: 1
Substitution2: "'c2sc' Capitals to Small Capitals lookup 59 subtable" iogonek.sc
Substitution2: "'aalt' Access All Alternates lookup 0 subtable" iogonek.sc
Position2: "'cpsp' Capital Spacing lookup 0 subtable" dx=5 dy=0 dh=10 dv=0
EndChar

StartChar: Lslash
Encoding: 321 321 124
Width: 583
GlyphClass: 1
Flags: W
LayerCount: 2
Fore
SplineSet
-31 0 m 1,0,-1
 -28 16 l 1,1,-1
 61 59 l 1,2,-1
 92 233 l 1,3,-1
 3 183 l 1,4,-1
 14 253 l 1,5,-1
 104 303 l 1,6,-1
 160 616 l 1,7,-1
 85 659 l 1,8,-1
 88 676 l 1,9,-1
 437 676 l 1,10,-1
 434 659 l 1,11,-1
 335 616 l 1,12,-1
 295 393 l 1,13,-1
 456 481 l 1,14,-1
 443 412 l 1,15,-1
 283 325 l 1,16,-1
 236 56 l 1,17,-1
 404 56 l 1,18,-1
 531 251 l 1,19,-1
 548 251 l 1,20,-1
 501 0 l 1,21,-1
 -31 0 l 1,0,-1
EndSplineSet
Validated: 1
Substitution2: "'c2sc' Capitals to Small Capitals lookup 59 subtable" lslash.sc
Substitution2: "'aalt' Access All Alternates lookup 0 subtable" lslash.sc
Position2: "'cpsp' Capital Spacing lookup 0 subtable" dx=5 dy=0 dh=10 dv=0
EndChar

StartChar: Oogonek
Encoding: 490 490 145
Width: 797
GlyphClass: 1
Flags: W
LayerCount: 2
Fore
SplineSet
318 -246 m 0,0,1
 274 -246 274 -246 249.5 -224 c 128,-1,2
 225 -202 225 -202 225 -164 c 0,3,4
 225 -121 225 -121 252 -82 c 128,-1,5
 279 -43 279 -43 314 -9 c 1,6,7
 225 -3 225 -3 164 35 c 128,-1,8
 103 73 103 73 72 135.5 c 128,-1,9
 41 198 41 198 41 278 c 0,10,11
 41 364 41 364 72 438 c 128,-1,12
 103 512 103 512 159 568 c 128,-1,13
 215 624 215 624 289.5 655 c 128,-1,14
 364 686 364 686 450 686 c 0,15,16
 549 686 549 686 617 649.5 c 128,-1,17
 685 613 685 613 721 548 c 128,-1,18
 757 483 757 483 757 399 c 0,19,20
 757 314 757 314 727.5 240.5 c 128,-1,21
 698 167 698 167 645 111 c 128,-1,22
 592 55 592 55 518.5 23.5 c 128,-1,23
 445 -8 445 -8 357 -10 c 1,24,25
 341 -39 341 -39 331 -70.5 c 128,-1,26
 321 -102 321 -102 321 -133 c 0,27,28
 321 -187 321 -187 375 -187 c 0,29,30
 386 -187 386 -187 398.5 -182.5 c 128,-1,31
 411 -178 411 -178 418 -171 c 1,32,-1
 422 -171 l 1,33,-1
 416 -194 l 1,34,35
 401 -218 401 -218 376.5 -232 c 128,-1,36
 352 -246 352 -246 318 -246 c 0,0,1
357 43 m 0,37,38
 405 43 405 43 444.5 73 c 128,-1,39
 484 103 484 103 512.5 156.5 c 128,-1,40
 541 210 541 210 556 279 c 128,-1,41
 571 348 571 348 571 426 c 0,42,43
 571 487 571 487 559 533.5 c 128,-1,44
 547 580 547 580 518.5 606 c 128,-1,45
 490 632 490 632 441 632 c 0,46,47
 396 632 396 632 356.5 601.5 c 128,-1,48
 317 571 317 571 288 518 c 128,-1,49
 259 465 259 465 242.5 396.5 c 128,-1,50
 226 328 226 328 226 251 c 0,51,52
 226 159 226 159 258.5 101 c 128,-1,53
 291 43 291 43 357 43 c 0,37,38
EndSplineSet
Validated: 1
Substitution2: "'c2sc' Capitals to Small Capitals lookup 59 subtable" oogonek.sc
Substitution2: "'aalt' Access All Alternates lookup 0 subtable" oogonek.sc
Position2: "'cpsp' Capital Spacing lookup 0 subtable" dx=5 dy=0 dh=10 dv=0
EndChar

StartChar: Oslash
Encoding: 216 216 161
Width: 797
GlyphClass: 2
Flags: W
AnchorPoint: "Anchor-3" 466 727 basechar 0
LayerCount: 2
Fore
SplineSet
-12 -10 m 1,0,-1
 98 93 l 1,1,2
 41 167 41 167 41 278 c 0,3,4
 41 364 41 364 72 438 c 128,-1,5
 103 512 103 512 159.5 568 c 128,-1,6
 216 624 216 624 290.5 655 c 128,-1,7
 365 686 365 686 451 686 c 0,8,9
 518 686 518 686 571 668.5 c 128,-1,10
 624 651 624 651 662 621 c 1,11,-1
 732 686 l 1,12,-1
 810 686 l 1,13,-1
 699 583 l 1,14,15
 756 509 756 509 757 399 c 0,16,17
 757 313 757 313 727 239 c 128,-1,18
 697 165 697 165 642.5 108.5 c 128,-1,19
 588 52 588 52 513 21 c 128,-1,20
 438 -10 438 -10 347 -10 c 0,21,22
 279 -10 279 -10 226.5 7.5 c 128,-1,23
 174 25 174 25 136 55 c 1,24,-1
 66 -10 l 1,25,-1
 -12 -10 l 1,0,-1
226 251 m 0,26,27
 226 232 226 232 227 214 c 1,28,-1
 561 526 l 1,29,30
 549 575 549 575 520.5 603.5 c 128,-1,31
 492 632 492 632 441 632 c 0,32,33
 396 632 396 632 356.5 601.5 c 128,-1,34
 317 571 317 571 288 518 c 128,-1,35
 259 465 259 465 242.5 396.5 c 128,-1,36
 226 328 226 328 226 251 c 0,26,27
357 43 m 0,37,38
 405 43 405 43 444.5 73 c 128,-1,39
 484 103 484 103 512.5 156.5 c 128,-1,40
 541 210 541 210 556 279 c 128,-1,41
 571 348 571 348 571 426 c 0,42,43
 571 445 571 445 570 462 c 1,44,-1
 239 152 l 1,45,46
 252 102 252 102 281.5 72.5 c 128,-1,47
 311 43 311 43 357 43 c 0,37,38
EndSplineSet
Validated: 1
Substitution2: "'c2sc' Capitals to Small Capitals lookup 59 subtable" oslash.sc
Substitution2: "'aalt' Access All Alternates lookup 0 subtable" oslash.sc
Position2: "'cpsp' Capital Spacing lookup 0 subtable" dx=5 dy=0 dh=10 dv=0
EndChar

StartChar: Ohorn
Encoding: 416 416 163
Width: 797
GlyphClass: 2
Flags: W
AnchorPoint: "Anchor-3" 466 727 basechar 0
AnchorPoint: "Anchor-2" 361 0 basechar 0
AnchorPoint: "Anchor-0" 343 0 basechar 0
LayerCount: 2
Fore
SplineSet
347 -10 m 0,0,1
 248 -10 248 -10 180 26 c 128,-1,2
 112 62 112 62 76.5 127.5 c 128,-1,3
 41 193 41 193 41 278 c 0,4,5
 41 364 41 364 72 438 c 128,-1,6
 103 512 103 512 159 568 c 128,-1,7
 215 624 215 624 289.5 655 c 128,-1,8
 364 686 364 686 450 686 c 0,9,10
 519 686 519 686 573 668 c 1,11,-1
 630 668 l 2,12,13
 657 668 657 668 674.5 670.5 c 128,-1,14
 692 673 692 673 707 679 c 1,15,-1
 722 771 l 1,16,-1
 778 771 l 2,17,18
 803 771 803 771 813 760 c 128,-1,19
 823 749 823 749 823 728 c 0,20,21
 823 686 823 686 790.5 657 c 128,-1,22
 758 628 758 628 684 628 c 2,23,-1
 651 628 l 1,24,25
 703 590 703 590 730 531 c 128,-1,26
 757 472 757 472 757 399 c 0,27,28
 757 313 757 313 727 239 c 128,-1,29
 697 165 697 165 642.5 108.5 c 128,-1,30
 588 52 588 52 513 21 c 128,-1,31
 438 -10 438 -10 347 -10 c 0,0,1
357 43 m 0,32,33
 405 43 405 43 444.5 73 c 128,-1,34
 484 103 484 103 512.5 156.5 c 128,-1,35
 541 210 541 210 556 279 c 128,-1,36
 571 348 571 348 571 426 c 0,37,38
 571 487 571 487 559 533.5 c 128,-1,39
 547 580 547 580 518.5 606 c 128,-1,40
 490 632 490 632 441 632 c 0,41,42
 396 632 396 632 356.5 601.5 c 128,-1,43
 317 571 317 571 288 518 c 128,-1,44
 259 465 259 465 242.5 396.5 c 128,-1,45
 226 328 226 328 226 251 c 0,46,47
 226 159 226 159 258.5 101 c 128,-1,48
 291 43 291 43 357 43 c 0,32,33
EndSplineSet
Validated: 1
Substitution2: "'c2sc' Capitals to Small Capitals lookup 59 subtable" ohorn.sc
Substitution2: "'aalt' Access All Alternates lookup 0 subtable" ohorn.sc
Position2: "'cpsp' Capital Spacing lookup 0 subtable" dx=5 dy=0 dh=10 dv=0
EndChar

StartChar: OE
Encoding: 338 338 169
Width: 1034
GlyphClass: 1
Flags: W
LayerCount: 2
Fore
SplineSet
391 0 m 2,0,1
 278 0 278 0 200 36.5 c 128,-1,2
 122 73 122 73 81.5 138.5 c 128,-1,3
 41 204 41 204 41 292 c 0,4,5
 41 375 41 375 72 444.5 c 128,-1,6
 103 514 103 514 161.5 566 c 128,-1,7
 220 618 220 618 301.5 647 c 128,-1,8
 383 676 383 676 483 676 c 2,9,-1
 1019 676 l 1,10,-1
 988 498 l 1,11,-1
 973 498 l 1,12,-1
 919 620 l 1,13,-1
 730 620 l 1,14,-1
 688 377 l 1,15,-1
 811 377 l 1,16,-1
 891 467 l 1,17,-1
 907 467 l 1,18,-1
 865 232 l 1,19,-1
 849 232 l 1,20,-1
 801 321 l 1,21,-1
 678 321 l 1,22,-1
 632 56 l 1,23,-1
 837 56 l 1,24,-1
 950 224 l 1,25,-1
 967 224 l 1,26,-1
 927 0 l 1,27,-1
 391 0 l 2,0,1
419 54 m 2,28,-1
 456 54 l 1,29,-1
 556 627 l 1,30,-1
 490 627 l 2,31,32
 404 627 404 627 344.5 583 c 128,-1,33
 285 539 285 539 253 461 c 128,-1,34
 221 383 221 383 221 280 c 0,35,36
 221 168 221 168 274.5 111 c 128,-1,37
 328 54 328 54 419 54 c 2,28,-1
EndSplineSet
Validated: 1
Substitution2: "'c2sc' Capitals to Small Capitals lookup 59 subtable" oe.sc
Substitution2: "'aalt' Access All Alternates lookup 0 subtable" oe.sc
Position2: "'cpsp' Capital Spacing lookup 0 subtable" dx=5 dy=0 dh=10 dv=0
EndChar

StartChar: Scedilla
Encoding: 350 350 181
Width: 586
GlyphClass: 1
Flags: W
LayerCount: 2
Fore
SplineSet
207 -246 m 0,0,1
 181 -246 181 -246 163 -240 c 128,-1,2
 145 -234 145 -234 132 -226 c 1,3,-1
 136 -204 l 1,4,-1
 140 -204 l 1,5,6
 149 -208 149 -208 163.5 -210.5 c 128,-1,7
 178 -213 178 -213 190 -213 c 0,8,9
 217 -213 217 -213 232.5 -201.5 c 128,-1,10
 248 -190 248 -190 248 -171 c 0,11,12
 248 -153 248 -153 229 -136.5 c 128,-1,13
 210 -120 210 -120 159 -110 c 1,14,-1
 217 -10 l 1,15,16
 159 -8 159 -8 114 7 c 128,-1,17
 69 22 69 22 31 45 c 1,18,-1
 49 222 l 1,19,-1
 68 222 l 1,20,-1
 130 78 l 1,21,22
 144 67 144 67 167.5 55.5 c 128,-1,23
 191 44 191 44 226 44 c 0,24,25
 280 44 280 44 319 72 c 128,-1,26
 358 100 358 100 358 147 c 0,27,28
 358 177 358 177 345.5 197 c 128,-1,29
 333 217 333 217 301.5 239 c 128,-1,30
 270 261 270 261 215 296 c 0,31,32
 177 321 177 321 153 343.5 c 128,-1,33
 129 366 129 366 117.5 394 c 128,-1,34
 106 422 106 422 106 464 c 0,35,36
 106 525 106 525 142 576 c 128,-1,37
 178 627 178 627 240 656.5 c 128,-1,38
 302 686 302 686 380 686 c 0,39,40
 429 686 429 686 474 673 c 128,-1,41
 519 660 519 660 551 637 c 1,42,-1
 535 473 l 1,43,-1
 516 473 l 1,44,-1
 455 599 l 1,45,46
 441 613 441 613 422.5 622 c 128,-1,47
 404 631 404 631 375 631 c 0,48,49
 329 631 329 631 298 602 c 128,-1,50
 267 573 267 573 267 534 c 0,51,52
 267 499 267 499 290 472 c 128,-1,53
 313 445 313 445 374 408 c 0,54,55
 422 378 422 378 453 352.5 c 128,-1,56
 484 327 484 327 500 296 c 128,-1,57
 516 265 516 265 516 220 c 0,58,59
 516 162 516 162 483 111 c 128,-1,60
 450 60 450 60 391 27.5 c 128,-1,61
 332 -5 332 -5 254 -9 c 1,62,-1
 234 -44 l 1,63,64
 286 -56 286 -56 308.5 -82 c 128,-1,65
 331 -108 331 -108 331 -140 c 0,66,67
 331 -186 331 -186 296 -216 c 128,-1,68
 261 -246 261 -246 207 -246 c 0,0,1
EndSplineSet
Validated: 1
Substitution2: "'c2sc' Capitals to Small Capitals lookup 59 subtable" scedilla.sc
Substitution2: "'locl' Localized Forms in Latin lookup 14 subtable" Scommaaccent
Substitution2: "'locl' Localized Forms in Latin lookup 11 subtable" Scommaaccent
AlternateSubs2: "'aalt' Access All Alternates lookup 1 subtable" Scommaaccent scedilla.sc
Position2: "'cpsp' Capital Spacing lookup 0 subtable" dx=5 dy=0 dh=10 dv=0
EndChar

StartChar: Tbar
Encoding: 358 358 190
Width: 651
GlyphClass: 1
Flags: W
LayerCount: 2
Fore
SplineSet
130 323 m 1,0,-1
 139 376 l 1,1,-1
 248 376 l 1,2,-1
 292 620 l 1,3,-1
 172 620 l 1,4,-1
 62 439 l 1,5,-1
 46 439 l 1,6,-1
 86 676 l 1,7,-1
 692 676 l 1,8,-1
 652 439 l 1,9,-1
 636 439 l 1,10,-1
 587 620 l 1,11,-1
 467 620 l 1,12,-1
 423 376 l 1,13,-1
 532 376 l 1,14,-1
 523 323 l 1,15,-1
 414 323 l 1,16,-1
 367 59 l 1,17,-1
 462 16 l 1,18,-1
 459 0 l 1,19,-1
 81 0 l 1,20,-1
 84 16 l 1,21,-1
 191 59 l 1,22,-1
 239 323 l 1,23,-1
 130 323 l 1,0,-1
EndSplineSet
Validated: 1
Substitution2: "'c2sc' Capitals to Small Capitals lookup 59 subtable" tbar.sc
Substitution2: "'aalt' Access All Alternates lookup 0 subtable" tbar.sc
Position2: "'cpsp' Capital Spacing lookup 0 subtable" dx=5 dy=0 dh=10 dv=0
EndChar

StartChar: Tcedilla
Encoding: 354 354 191
Width: 651
GlyphClass: 1
Flags: W
LayerCount: 2
Fore
SplineSet
81 0 m 1,0,-1
 84 16 l 1,1,-1
 191 59 l 1,2,-1
 292 620 l 1,3,-1
 172 620 l 1,4,-1
 62 439 l 1,5,-1
 46 439 l 1,6,-1
 86 676 l 1,7,-1
 692 676 l 1,8,-1
 652 439 l 1,9,-1
 636 439 l 1,10,-1
 587 620 l 1,11,-1
 467 620 l 1,12,-1
 367 59 l 1,13,-1
 462 16 l 1,14,-1
 459 0 l 1,15,-1
 283 0 l 1,16,-1
 258 -44 l 1,17,18
 310 -56 310 -56 332 -82 c 128,-1,19
 354 -108 354 -108 354 -140 c 0,20,21
 354 -186 354 -186 319.5 -216 c 128,-1,22
 285 -246 285 -246 230 -246 c 0,23,24
 204 -246 204 -246 186.5 -240 c 128,-1,25
 169 -234 169 -234 156 -226 c 1,26,-1
 160 -204 l 1,27,-1
 164 -204 l 1,28,29
 173 -208 173 -208 187.5 -210.5 c 128,-1,30
 202 -213 202 -213 214 -213 c 0,31,32
 241 -213 241 -213 256 -201.5 c 128,-1,33
 271 -190 271 -190 271 -171 c 0,34,35
 271 -153 271 -153 252 -136.5 c 128,-1,36
 233 -120 233 -120 182 -110 c 1,37,-1
 247 0 l 1,38,-1
 81 0 l 1,0,-1
EndSplineSet
Validated: 1
Substitution2: "'c2sc' Capitals to Small Capitals lookup 59 subtable" tcedilla.sc
Substitution2: "'aalt' Access All Alternates lookup 0 subtable" tcedilla.sc
Position2: "'cpsp' Capital Spacing lookup 0 subtable" dx=5 dy=0 dh=10 dv=0
EndChar

StartChar: Uogonek
Encoding: 370 370 203
Width: 764
GlyphClass: 1
Flags: W
LayerCount: 2
Fore
SplineSet
419 -194 m 1,0,1
 404 -218 404 -218 379.5 -232 c 128,-1,2
 355 -246 355 -246 322 -246 c 0,3,4
 278 -246 278 -246 253 -224 c 128,-1,5
 228 -202 228 -202 228 -164 c 0,6,7
 228 -121 228 -121 255 -82 c 128,-1,8
 282 -43 282 -43 318 -9 c 1,9,10
 215 -2 215 -2 154 49 c 128,-1,11
 93 100 93 100 93 216 c 0,12,13
 93 257 93 257 102 309 c 2,14,-1
 156 616 l 1,15,-1
 80 659 l 1,16,-1
 83 676 l 1,17,-1
 424 676 l 1,18,-1
 421 659 l 1,19,-1
 331 616 l 1,20,-1
 275 297 l 2,21,22
 269 259 269 259 269 228 c 0,23,24
 269 173 269 173 288 140.5 c 128,-1,25
 307 108 307 108 340 93.5 c 128,-1,26
 373 79 373 79 414 79 c 256,27,28
 455 79 455 79 492.5 97 c 128,-1,29
 530 115 530 115 559 155 c 128,-1,30
 588 195 588 195 599 261 c 2,31,-1
 660 618 l 1,32,-1
 585 659 l 1,33,-1
 588 676 l 1,34,-1
 817 676 l 1,35,-1
 814 659 l 1,36,-1
 724 617 l 1,37,-1
 671 309 l 2,38,39
 651 189 651 189 607.5 119 c 128,-1,40
 564 49 564 49 501.5 19.5 c 128,-1,41
 439 -10 439 -10 360 -10 c 1,42,43
 344 -39 344 -39 334 -70.5 c 128,-1,44
 324 -102 324 -102 324 -133 c 0,45,46
 324 -187 324 -187 378 -187 c 0,47,48
 389 -187 389 -187 401.5 -182.5 c 128,-1,49
 414 -178 414 -178 421 -171 c 1,50,-1
 425 -171 l 1,51,-1
 419 -194 l 1,0,1
EndSplineSet
Validated: 1
Substitution2: "'c2sc' Capitals to Small Capitals lookup 59 subtable" uogonek.sc
Substitution2: "'aalt' Access All Alternates lookup 0 subtable" uogonek.sc
Position2: "'cpsp' Capital Spacing lookup 0 subtable" dx=5 dy=0 dh=10 dv=0
EndChar

StartChar: Uhorn
Encoding: 431 431 210
Width: 764
GlyphClass: 2
Flags: W
AnchorPoint: "Anchor-3" 512 727 basechar 0
AnchorPoint: "Anchor-2" 366 0 basechar 0
AnchorPoint: "Anchor-0" 343 0 basechar 0
LayerCount: 2
Fore
SplineSet
357 -10 m 0,0,1
 277 -10 277 -10 218 11.5 c 128,-1,2
 159 33 159 33 126 82.5 c 128,-1,3
 93 132 93 132 93 216 c 0,4,5
 93 257 93 257 102 309 c 2,6,-1
 156 616 l 1,7,-1
 80 659 l 1,8,-1
 83 676 l 1,9,-1
 424 676 l 1,10,-1
 421 659 l 1,11,-1
 331 616 l 1,12,-1
 275 297 l 2,13,14
 269 259 269 259 269 228 c 0,15,16
 269 173 269 173 288 140.5 c 128,-1,17
 307 108 307 108 340 93.5 c 128,-1,18
 373 79 373 79 414 79 c 256,19,20
 455 79 455 79 492.5 97 c 128,-1,21
 530 115 530 115 559 155 c 128,-1,22
 588 195 588 195 599 261 c 2,23,-1
 660 618 l 1,24,-1
 585 659 l 1,25,-1
 588 676 l 1,26,-1
 759 676 l 2,27,28
 786 676 786 676 803.5 678.5 c 128,-1,29
 821 681 821 681 836 688 c 1,30,-1
 850 771 l 1,31,-1
 906 771 l 2,32,33
 931 771 931 771 941 760 c 128,-1,34
 951 749 951 749 951 728 c 256,35,36
 951 708 951 708 940.5 692.5 c 128,-1,37
 930 677 930 677 900 663.5 c 128,-1,38
 870 650 870 650 813 636 c 2,39,-1
 723 613 l 1,40,-1
 671 309 l 2,41,42
 651 189 651 189 607.5 119 c 128,-1,43
 564 49 564 49 501 19.5 c 128,-1,44
 438 -10 438 -10 357 -10 c 0,0,1
EndSplineSet
Validated: 1
Substitution2: "'c2sc' Capitals to Small Capitals lookup 59 subtable" uhorn.sc
Substitution2: "'aalt' Access All Alternates lookup 0 subtable" uhorn.sc
Position2: "'cpsp' Capital Spacing lookup 0 subtable" dx=5 dy=0 dh=10 dv=0
EndChar

StartChar: Schwa
Encoding: 399 399 233
Width: 687
GlyphClass: 1
Flags: W
LayerCount: 2
Fore
SplineSet
281 -9 m 0,0,1
 160 -9 160 -9 98 53 c 128,-1,2
 36 115 36 115 36 226 c 0,3,4
 36 243 36 243 36.5 261.5 c 128,-1,5
 37 280 37 280 40 299 c 1,6,-1
 47 306 l 1,7,-1
 466 306 l 1,8,9
 469 337 469 337 469 370 c 0,10,11
 469 464 469 464 424.5 515.5 c 128,-1,12
 380 567 380 567 283 567 c 0,13,14
 222 567 222 567 175 547 c 128,-1,15
 128 527 128 527 79 485 c 1,16,-1
 75 485 l 1,17,-1
 83 532 l 1,18,19
 128 600 128 600 203 643 c 128,-1,20
 278 686 278 686 369 686 c 0,21,22
 503 686 503 686 577 614.5 c 128,-1,23
 651 543 651 543 651 420 c 0,24,25
 651 327 651 327 623 248.5 c 128,-1,26
 595 170 595 170 545 112 c 128,-1,27
 495 54 495 54 427.5 22.5 c 128,-1,28
 360 -9 360 -9 281 -9 c 0,0,1
207 205 m 0,29,30
 207 118 207 118 230 83.5 c 128,-1,31
 253 49 253 49 303 49 c 0,32,33
 359 49 359 49 400 104.5 c 128,-1,34
 441 160 441 160 459 250 c 1,35,-1
 210 250 l 1,36,37
 209 238 209 238 208 226.5 c 128,-1,38
 207 215 207 215 207 205 c 0,29,30
EndSplineSet
Validated: 1
Substitution2: "'c2sc' Capitals to Small Capitals lookup 59 subtable" schwa.sc
Substitution2: "'aalt' Access All Alternates lookup 0 subtable" schwa.sc
Position2: "'cpsp' Capital Spacing lookup 0 subtable" dx=5 dy=0 dh=10 dv=0
EndChar

StartChar: Eng
Encoding: 330 330 234
Width: 757
GlyphClass: 1
Flags: W
LayerCount: 2
Fore
SplineSet
-26 0 m 1,0,-1
 -23 16 l 1,1,-1
 67 59 l 1,2,-1
 165 616 l 1,3,-1
 90 659 l 1,4,-1
 93 676 l 1,5,-1
 293 676 l 1,6,-1
 569 239 l 1,7,-1
 636 616 l 1,8,-1
 529 659 l 1,9,-1
 532 676 l 1,10,-1
 800 676 l 1,11,-1
 797 659 l 1,12,-1
 710 616 l 1,13,-1
 601 0 l 2,14,15
 577 -135 577 -135 523.5 -190.5 c 128,-1,16
 470 -246 470 -246 392 -246 c 0,17,18
 353 -246 353 -246 335.5 -234.5 c 128,-1,19
 318 -223 318 -223 318 -202 c 0,20,21
 318 -193 318 -193 322 -176 c 2,22,-1
 330 -128 l 1,23,-1
 485 -128 l 1,24,25
 500 -109 500 -109 509 -80 c 128,-1,26
 518 -51 518 -51 525 -13 c 1,27,-1
 213 472 l 1,28,-1
 140 59 l 1,29,-1
 247 16 l 1,30,-1
 244 0 l 1,31,-1
 -26 0 l 1,0,-1
EndSplineSet
Validated: 1
Substitution2: "'c2sc' Capitals to Small Capitals lookup 59 subtable" eng.sc
Substitution2: "'aalt' Access All Alternates lookup 0 subtable" eng.sc
Position2: "'cpsp' Capital Spacing lookup 0 subtable" dx=5 dy=0 dh=10 dv=0
EndChar

StartChar: Thorn
Encoding: 222 222 236
Width: 641
GlyphClass: 1
Flags: W
LayerCount: 2
Fore
SplineSet
426 676 m 1,0,-1
 423 659 l 1,1,-1
 334 616 l 1,2,-1
 321 539 l 1,3,-1
 370 539 l 2,4,5
 507 539 507 539 570.5 498.5 c 128,-1,6
 634 458 634 458 634 379 c 0,7,8
 634 321 634 321 597 272 c 128,-1,9
 560 223 560 223 484 194.5 c 128,-1,10
 408 166 408 166 288 166 c 2,11,-1
 255 166 l 1,12,-1
 237 59 l 1,13,-1
 311 16 l 1,14,-1
 308 0 l 1,15,-1
 -31 0 l 1,16,-1
 -28 16 l 1,17,-1
 61 59 l 1,18,-1
 160 616 l 1,19,-1
 85 659 l 1,20,-1
 88 676 l 1,21,-1
 426 676 l 1,0,-1
328 482 m 2,22,-1
 310 482 l 1,23,-1
 263 212 l 1,24,-1
 301 212 l 2,25,26
 353 212 353 212 386 234 c 128,-1,27
 419 256 419 256 434.5 293 c 128,-1,28
 450 330 450 330 450 374 c 0,29,30
 450 425 450 425 418.5 453.5 c 128,-1,31
 387 482 387 482 328 482 c 2,22,-1
EndSplineSet
Validated: 1
Substitution2: "'c2sc' Capitals to Small Capitals lookup 59 subtable" thorn.sc
Substitution2: "'aalt' Access All Alternates lookup 0 subtable" thorn.sc
Position2: "'cpsp' Capital Spacing lookup 0 subtable" dx=5 dy=0 dh=10 dv=0
EndChar

StartChar: uni0402
Encoding: 1026 1026 240
Width: 811
GlyphClass: 1
Flags: W
LayerCount: 2
Fore
SplineSet
71 0 m 1,0,-1
 74 16 l 1,1,-1
 181 59 l 1,2,-1
 282 620 l 1,3,-1
 172 620 l 1,4,-1
 62 439 l 1,5,-1
 46 439 l 1,6,-1
 86 676 l 1,7,-1
 692 676 l 1,8,-1
 652 470 l 1,9,-1
 636 470 l 1,10,-1
 587 620 l 1,11,-1
 457 620 l 1,12,-1
 409 351 l 1,13,14
 436 370 436 370 482 384.5 c 128,-1,15
 528 399 528 399 589 399 c 0,16,17
 674 399 674 399 714.5 356 c 128,-1,18
 755 313 755 313 755 244 c 0,19,20
 755 185 755 185 726 113 c 128,-1,21
 697 41 697 41 635 -33 c 256,22,23
 573 -107 573 -107 520 -142 c 128,-1,24
 467 -177 467 -177 434 -177 c 0,25,26
 412 -177 412 -177 401.5 -168 c 128,-1,27
 391 -159 391 -159 391 -144 c 0,28,29
 391 -137 391 -137 393 -128.5 c 128,-1,30
 395 -120 395 -120 399 -109 c 2,31,-1
 420 -54 l 1,32,-1
 493 -77 l 1,33,34
 512 -59 512 -59 524.5 -28.5 c 128,-1,35
 537 2 537 2 547 57 c 2,36,-1
 568 181 l 2,37,38
 570 194 570 194 571.5 206.5 c 128,-1,39
 573 219 573 219 573 229 c 0,40,41
 573 268 573 268 553.5 290.5 c 128,-1,42
 534 313 534 313 485 313 c 0,43,44
 457 313 457 313 435.5 307 c 128,-1,45
 414 301 414 301 398 292 c 1,46,-1
 356 59 l 1,47,-1
 452 16 l 1,48,-1
 449 0 l 1,49,-1
 71 0 l 1,0,-1
EndSplineSet
Validated: 1
Substitution2: "'c2sc' Capitals to Small Capitals lookup 59 subtable" uni0452.sc
Substitution2: "'aalt' Access All Alternates lookup 0 subtable" uni0452.sc
EndChar

StartChar: uni0404
Encoding: 1028 1028 241
Width: 677
GlyphClass: 1
Flags: W
LayerCount: 2
Fore
SplineSet
337 -10 m 0,0,1
 247 -10 247 -10 180.5 25.5 c 128,-1,2
 114 61 114 61 77.5 123.5 c 128,-1,3
 41 186 41 186 41 266 c 0,4,5
 41 348 41 348 73 423.5 c 128,-1,6
 105 499 105 499 162.5 558 c 128,-1,7
 220 617 220 617 297 651.5 c 128,-1,8
 374 686 374 686 463 686 c 0,9,10
 525 686 525 686 562 671.5 c 128,-1,11
 599 657 599 657 633 637 c 1,12,-1
 615 438 l 1,13,-1
 597 438 l 1,14,-1
 515 622 l 1,15,16
 491 637 491 637 447 637 c 0,17,18
 398 637 398 637 355.5 603.5 c 128,-1,19
 313 570 313 570 282 512 c 128,-1,20
 251 454 251 454 236 377 c 1,21,-1
 397 377 l 1,22,-1
 474 467 l 1,23,-1
 490 467 l 1,24,-1
 450 232 l 1,25,-1
 433 232 l 1,26,-1
 387 321 l 1,27,-1
 226 321 l 1,28,29
 222 281 222 281 222 240 c 0,30,31
 222 152 222 152 258.5 98 c 128,-1,32
 295 44 295 44 360 44 c 0,33,34
 383 44 383 44 406 48.5 c 128,-1,35
 429 53 429 53 453 66 c 1,36,-1
 584 224 l 1,37,-1
 602 224 l 1,38,-1
 559 45 l 1,39,40
 520 19 520 19 458.5 4.5 c 128,-1,41
 397 -10 397 -10 337 -10 c 0,0,1
EndSplineSet
Validated: 1
Substitution2: "'c2sc' Capitals to Small Capitals lookup 59 subtable" uni0454.sc
Substitution2: "'aalt' Access All Alternates lookup 0 subtable" uni0454.sc
EndChar

StartChar: uni0409
Encoding: 1033 1033 246
Width: 977
GlyphClass: 1
Flags: W
LayerCount: 2
Fore
SplineSet
282 493 m 2,0,1
 260 368 260 368 235.5 275 c 128,-1,2
 211 182 211 182 178 115 c 0,3,4
 146 47 146 47 112.5 18.5 c 128,-1,5
 79 -10 79 -10 34 -10 c 0,6,7
 2 -10 2 -10 -12 -0.5 c 128,-1,8
 -26 9 -26 9 -26 33 c 0,9,10
 -26 46 -26 46 -23 62 c 2,11,-1
 -12 119 l 1,12,-1
 74 119 l 1,13,14
 104 151 104 151 128.5 198 c 128,-1,15
 153 245 153 245 174 316.5 c 128,-1,16
 195 388 195 388 213 494 c 2,17,-1
 234 616 l 1,18,-1
 152 659 l 1,19,-1
 155 676 l 1,20,-1
 755 676 l 1,21,-1
 752 659 l 1,22,-1
 652 616 l 1,23,-1
 615 407 l 1,24,-1
 666 407 l 2,25,26
 801 407 801 407 879 360.5 c 128,-1,27
 957 314 957 314 957 219 c 0,28,29
 957 157 957 157 913.5 107 c 128,-1,30
 870 57 870 57 797 28.5 c 128,-1,31
 724 0 724 0 633 0 c 2,32,-1
 287 0 l 1,33,-1
 290 16 l 1,34,-1
 379 60 l 1,35,-1
 477 620 l 1,36,-1
 303 620 l 1,37,-1
 282 493 l 2,0,1
554 56 m 1,38,-1
 601 56 l 2,39,40
 656 56 656 56 694 78 c 128,-1,41
 732 100 732 100 752 137.5 c 128,-1,42
 772 175 772 175 772 220 c 0,43,44
 772 291 772 291 734 320.5 c 128,-1,45
 696 350 696 350 625 350 c 2,46,-1
 605 350 l 1,47,-1
 554 56 l 1,38,-1
EndSplineSet
Validated: 1
Substitution2: "'c2sc' Capitals to Small Capitals lookup 59 subtable" uni0459.sc
Substitution2: "'aalt' Access All Alternates lookup 0 subtable" uni0459.sc
EndChar

StartChar: uni040A
Encoding: 1034 1034 247
Width: 1054
GlyphClass: 1
Flags: W
LayerCount: 2
Fore
SplineSet
-31 0 m 1,0,-1
 -28 16 l 1,1,-1
 61 59 l 1,2,-1
 160 616 l 1,3,-1
 85 659 l 1,4,-1
 88 676 l 1,5,-1
 417 676 l 1,6,-1
 414 659 l 1,7,-1
 335 616 l 1,8,-1
 294 386 l 1,9,-1
 513 386 l 1,10,-1
 554 616 l 1,11,-1
 479 659 l 1,12,-1
 482 676 l 1,13,-1
 831 676 l 1,14,-1
 828 659 l 1,15,-1
 729 616 l 1,16,-1
 688 386 l 1,17,-1
 742 386 l 2,18,19
 877 386 877 386 955.5 342.5 c 128,-1,20
 1034 299 1034 299 1034 209 c 0,21,22
 1034 150 1034 150 990.5 102.5 c 128,-1,23
 947 55 947 55 874 27.5 c 128,-1,24
 801 0 801 0 710 0 c 2,25,-1
 364 0 l 1,26,-1
 367 16 l 1,27,-1
 456 60 l 1,28,-1
 503 330 l 1,29,-1
 285 330 l 1,30,-1
 237 59 l 1,31,-1
 301 16 l 1,32,-1
 298 0 l 1,33,-1
 -31 0 l 1,0,-1
631 56 m 1,34,-1
 678 56 l 2,35,36
 733 56 733 56 771 77 c 128,-1,37
 809 98 809 98 829 133 c 128,-1,38
 849 168 849 168 849 210 c 0,39,40
 849 276 849 276 811 303 c 128,-1,41
 773 330 773 330 701 330 c 2,42,-1
 679 330 l 1,43,-1
 631 56 l 1,34,-1
EndSplineSet
Validated: 1
Substitution2: "'c2sc' Capitals to Small Capitals lookup 59 subtable" uni045A.sc
Substitution2: "'aalt' Access All Alternates lookup 0 subtable" uni045A.sc
EndChar

StartChar: uni040B
Encoding: 1035 1035 248
Width: 879
GlyphClass: 1
Flags: W
LayerCount: 2
Fore
SplineSet
71 0 m 5,0,-1
 74 16 l 5,1,-1
 181 59 l 5,2,-1
 282 620 l 5,3,-1
 172 620 l 5,4,-1
 62 439 l 5,5,-1
 46 439 l 5,6,-1
 86 676 l 5,7,-1
 692 676 l 5,8,-1
 652 470 l 5,9,-1
 636 470 l 5,10,-1
 587 620 l 5,11,-1
 457 620 l 5,12,-1
 409 351 l 5,13,14
 436 370 436 370 482 384.5 c 132,-1,15
 528 399 528 399 589 399 c 4,16,17
 591 399 591 399 592 399 c 4,18,19
 684 399 684 399 720 344 c 4,20,21
 744 307 744 307 744 254 c 4,22,23
 744 252 744 252 744 250 c 4,24,25
 744 224 744 224 739 194 c 6,26,-1
 716 59 l 5,27,-1
 798 16 l 5,28,-1
 795 0 l 5,29,-1
 526 0 l 5,30,-1
 560 190 l 6,31,32
 563 210 563 210 563 228 c 4,33,34
 562 256 562 256 554 278 c 4,35,36
 540 313 540 313 483 313 c 4,37,38
 455 313 455 313 434 307 c 132,-1,39
 413 301 413 301 398 292 c 5,40,-1
 356 59 l 5,41,-1
 452 16 l 5,42,-1
 449 0 l 5,43,-1
 71 0 l 5,0,-1
EndSplineSet
Validated: 1
Substitution2: "'c2sc' Capitals to Small Capitals lookup 59 subtable" uni045B.sc
Substitution2: "'aalt' Access All Alternates lookup 0 subtable" uni045B.sc
EndChar

StartChar: uni040F
Encoding: 1039 1039 249
Width: 777
GlyphClass: 1
Flags: W
LayerCount: 2
Fore
SplineSet
253 0 m 1,0,-1
 -31 0 l 1,1,-1
 -28 16 l 1,2,-1
 59 59 l 1,3,-1
 158 616 l 1,4,-1
 85 659 l 1,5,-1
 88 676 l 1,6,-1
 416 676 l 1,7,-1
 413 659 l 1,8,-1
 333 616 l 1,9,-1
 234 56 l 1,10,-1
 442 56 l 1,11,-1
 541 616 l 1,12,-1
 476 659 l 1,13,-1
 479 676 l 1,14,-1
 808 676 l 1,15,-1
 805 659 l 1,16,-1
 716 616 l 1,17,-1
 617 59 l 1,18,-1
 692 16 l 1,19,-1
 689 0 l 1,20,-1
 388 0 l 1,21,-1
 297 -180 l 1,22,-1
 281 -180 l 1,23,-1
 253 0 l 1,0,-1
EndSplineSet
Validated: 1
Substitution2: "'c2sc' Capitals to Small Capitals lookup 59 subtable" uni045F.sc
Substitution2: "'aalt' Access All Alternates lookup 0 subtable" uni045F.sc
EndChar

StartChar: uni0411
Encoding: 1041 1041 251
Width: 686
GlyphClass: 1
Flags: W
LayerCount: 2
Fore
SplineSet
88 676 m 1,0,-1
 630 676 l 1,1,-1
 599 498 l 1,2,-1
 583 498 l 1,3,-1
 529 620 l 1,4,-1
 335 620 l 1,5,-1
 296 395 l 1,6,-1
 348 395 l 2,7,8
 483 395 483 395 561.5 350.5 c 128,-1,9
 640 306 640 306 640 213 c 0,10,11
 640 153 640 153 596.5 104 c 128,-1,12
 553 55 553 55 480 27.5 c 128,-1,13
 407 0 407 0 315 0 c 2,14,-1
 -31 0 l 1,15,-1
 -28 16 l 1,16,-1
 61 60 l 1,17,-1
 160 616 l 1,18,-1
 85 659 l 1,19,-1
 88 676 l 1,0,-1
237 56 m 1,20,-1
 284 56 l 2,21,22
 339 56 339 56 377 77.5 c 128,-1,23
 415 99 415 99 435 135 c 128,-1,24
 455 171 455 171 455 214 c 0,25,26
 455 282 455 282 417 310.5 c 128,-1,27
 379 339 379 339 307 339 c 2,28,-1
 286 339 l 1,29,-1
 237 56 l 1,20,-1
EndSplineSet
Validated: 1
Substitution2: "'c2sc' Capitals to Small Capitals lookup 59 subtable" uni0431.sc
Substitution2: "'aalt' Access All Alternates lookup 0 subtable" uni0431.sc
EndChar

StartChar: uni0413
Encoding: 1043 1043 253
Width: 593
GlyphClass: 2
Flags: W
AnchorPoint: "Anchor-3" 386 727 basechar 0
LayerCount: 2
Fore
SplineSet
-31 0 m 1,0,-1
 -28 16 l 1,1,-1
 61 59 l 1,2,-1
 160 616 l 1,3,-1
 85 659 l 1,4,-1
 88 676 l 1,5,-1
 609 676 l 1,6,-1
 579 498 l 1,7,-1
 562 498 l 1,8,-1
 509 620 l 1,9,-1
 335 620 l 1,10,-1
 237 59 l 1,11,-1
 341 16 l 1,12,-1
 338 0 l 1,13,-1
 -31 0 l 1,0,-1
EndSplineSet
Validated: 1
Substitution2: "'c2sc' Capitals to Small Capitals lookup 59 subtable" uni0433.sc
Substitution2: "'aalt' Access All Alternates lookup 0 subtable" uni0433.sc
EndChar

StartChar: uni0492
Encoding: 1170 1170 255
Width: 588
GlyphClass: 1
Flags: W
LayerCount: 2
Fore
SplineSet
-36 0 m 1,0,-1
 -33 16 l 1,1,-1
 56 59 l 1,2,-1
 102 323 l 1,3,-1
 26 323 l 1,4,-1
 35 376 l 1,5,-1
 113 376 l 1,6,-1
 155 616 l 1,7,-1
 80 659 l 1,8,-1
 83 676 l 1,9,-1
 604 676 l 1,10,-1
 573 498 l 1,11,-1
 557 498 l 1,12,-1
 504 620 l 1,13,-1
 330 620 l 1,14,-1
 287 376 l 1,15,-1
 446 376 l 1,16,-1
 437 323 l 1,17,-1
 278 323 l 1,18,-1
 231 59 l 1,19,-1
 336 16 l 1,20,-1
 333 0 l 1,21,-1
 -36 0 l 1,0,-1
EndSplineSet
Validated: 1
Substitution2: "'c2sc' Capitals to Small Capitals lookup 59 subtable" uni0493.sc
Substitution2: "'aalt' Access All Alternates lookup 0 subtable" uni0493.sc
EndChar

StartChar: uni0414
Encoding: 1044 1044 256
Width: 712
GlyphClass: 1
Flags: W
LayerCount: 2
Fore
SplineSet
92 0 m 1,0,-1
 -50 -180 l 1,1,-1
 -67 -180 l 1,2,-1
 -25 56 l 1,3,-1
 41 56 l 1,4,5
 88 123 88 123 125.5 227 c 128,-1,6
 163 331 163 331 191 494 c 2,7,-1
 213 616 l 1,8,-1
 130 659 l 1,9,-1
 133 676 l 1,10,-1
 743 676 l 1,11,-1
 740 659 l 1,12,-1
 651 616 l 1,13,-1
 552 56 l 1,14,-1
 644 56 l 1,15,-1
 602 -180 l 1,16,-1
 586 -180 l 1,17,-1
 507 0 l 1,18,-1
 92 0 l 1,0,-1
260 493 m 2,19,20
 234 342 234 342 199 233 c 128,-1,21
 164 124 164 124 121 56 c 1,22,-1
 377 56 l 1,23,-1
 476 620 l 1,24,-1
 282 620 l 1,25,-1
 260 493 l 2,19,20
EndSplineSet
Validated: 1
Substitution2: "'c2sc' Capitals to Small Capitals lookup 59 subtable" uni0434.sc
Substitution2: "'ss06' Style Set 6 lookup 19 subtable" uni0414.bgr
Substitution2: "'locl' Localized Forms in Cyrillic lookup 17 subtable" uni0414.bgr
AlternateSubs2: "'aalt' Access All Alternates lookup 1 subtable" uni0414.bgr uni0434.sc
EndChar

StartChar: uni0416
Encoding: 1046 1046 259
Width: 1105
GlyphClass: 1
Flags: W
LayerCount: 2
Fore
SplineSet
325 0 m 1,0,-1
 327 16 l 1,1,-1
 417 59 l 1,2,-1
 515 616 l 1,3,-1
 440 659 l 1,4,-1
 442 676 l 1,5,-1
 782 676 l 1,6,-1
 779 659 l 1,7,-1
 690 616 l 1,8,-1
 592 59 l 1,9,-1
 667 16 l 1,10,-1
 664 0 l 1,11,-1
 325 0 l 1,0,-1
825 0 m 1,12,-1
 643 339 l 1,13,-1
 938 624 l 1,14,-1
 871 659 l 1,15,-1
 874 676 l 1,16,-1
 1106 676 l 1,17,-1
 1102 659 l 1,18,-1
 1040 635 l 1,19,-1
 794 404 l 1,20,-1
 999 53 l 1,21,-1
 1057 16 l 1,22,-1
 1054 0 l 1,23,-1
 825 0 l 1,12,-1
162 0 m 1,24,-1
 -72 0 l 1,25,-1
 -69 16 l 1,26,-1
 1 53 l 1,27,-1
 333 418 l 1,28,-1
 191 625 l 1,29,-1
 106 659 l 1,30,-1
 109 676 l 1,31,-1
 350 676 l 1,32,-1
 347 659 l 1,33,-1
 275 627 l 1,34,-1
 463 339 l 1,35,-1
 162 0 l 1,24,-1
EndSplineSet
Validated: 1
Substitution2: "'c2sc' Capitals to Small Capitals lookup 59 subtable" uni0436.sc
Substitution2: "'ss06' Style Set 6 lookup 19 subtable" uni0416.bgr
Substitution2: "'locl' Localized Forms in Cyrillic lookup 17 subtable" uni0416.bgr
AlternateSubs2: "'aalt' Access All Alternates lookup 1 subtable" uni0416.bgr uni0436.sc
EndChar

StartChar: uni0417
Encoding: 1047 1047 260
Width: 666
GlyphClass: 1
Flags: W
LayerCount: 2
Fore
SplineSet
340 635 m 0,0,1
 320 635 320 635 305.5 631.5 c 128,-1,2
 291 628 291 628 278 621 c 1,3,-1
 123 438 l 1,4,-1
 104 438 l 1,5,-1
 155 637 l 1,6,7
 204 661 204 661 255.5 673.5 c 128,-1,8
 307 686 307 686 377 686 c 0,9,10
 496 686 496 686 553 644.5 c 128,-1,11
 610 603 610 603 610 537 c 0,12,13
 610 497 610 497 584.5 457.5 c 128,-1,14
 559 418 559 418 509 389.5 c 128,-1,15
 459 361 459 361 386 352 c 1,16,17
 482 343 482 343 533.5 305 c 128,-1,18
 585 267 585 267 585 209 c 0,19,20
 585 154 585 154 547.5 103.5 c 128,-1,21
 510 53 510 53 434.5 21.5 c 128,-1,22
 359 -10 359 -10 244 -10 c 0,23,24
 183 -10 183 -10 124 4.5 c 128,-1,25
 65 19 65 19 31 45 c 1,26,-1
 44 224 l 1,27,-1
 62 224 l 1,28,-1
 162 60 l 1,29,30
 179 52 179 52 198 49 c 128,-1,31
 217 46 217 46 237 46 c 0,32,33
 289 46 289 46 325 68.5 c 128,-1,34
 361 91 361 91 380 126.5 c 128,-1,35
 399 162 399 162 399 198 c 0,36,37
 399 230 399 230 384.5 258 c 128,-1,38
 370 286 370 286 339 303.5 c 128,-1,39
 308 321 308 321 260 321 c 2,40,-1
 200 321 l 1,41,-1
 210 377 l 1,42,-1
 265 377 l 2,43,44
 318 377 318 377 353.5 401 c 128,-1,45
 389 425 389 425 407.5 462 c 128,-1,46
 426 499 426 499 426 535 c 0,47,48
 426 575 426 575 404 605 c 128,-1,49
 382 635 382 635 340 635 c 0,0,1
EndSplineSet
Validated: 1
Substitution2: "'c2sc' Capitals to Small Capitals lookup 59 subtable" uni0437.sc
Substitution2: "'aalt' Access All Alternates lookup 0 subtable" uni0437.sc
EndChar

StartChar: uni0418
Encoding: 1048 1048 261
Width: 797
GlyphClass: 2
Flags: W
AnchorPoint: "Anchor-3" 468 727 basechar 0
LayerCount: 2
Fore
SplineSet
-31 0 m 1,0,-1
 -28 16 l 1,1,-1
 61 59 l 1,2,-1
 160 616 l 1,3,-1
 85 659 l 1,4,-1
 88 676 l 1,5,-1
 417 676 l 1,6,-1
 414 659 l 1,7,-1
 335 616 l 1,8,-1
 262 205 l 1,9,-1
 556 573 l 1,10,-1
 563 616 l 1,11,-1
 498 659 l 1,12,-1
 501 676 l 1,13,-1
 828 676 l 1,14,-1
 825 659 l 1,15,-1
 738 616 l 1,16,-1
 640 59 l 1,17,-1
 713 16 l 1,18,-1
 710 0 l 1,19,-1
 382 0 l 1,20,-1
 385 16 l 1,21,-1
 465 59 l 1,22,-1
 539 475 l 1,23,-1
 245 106 l 1,24,-1
 237 59 l 1,25,-1
 301 16 l 1,26,-1
 298 0 l 1,27,-1
 -31 0 l 1,0,-1
EndSplineSet
Validated: 1
Substitution2: "'c2sc' Capitals to Small Capitals lookup 59 subtable" uni0438.sc
Substitution2: "'aalt' Access All Alternates lookup 0 subtable" uni0438.sc
EndChar

StartChar: uni041B
Encoding: 1051 1051 266
Width: 723
GlyphClass: 1
Flags: W
LayerCount: 2
Fore
SplineSet
297 0 m 1,0,-1
 300 16 l 1,1,-1
 389 59 l 1,2,-1
 487 620 l 1,3,-1
 303 620 l 1,4,-1
 282 493 l 2,5,6
 260 368 260 368 235.5 275 c 128,-1,7
 211 182 211 182 178 115 c 0,8,9
 146 47 146 47 112.5 18.5 c 128,-1,10
 79 -10 79 -10 34 -10 c 0,11,12
 2 -10 2 -10 -12 -0.5 c 128,-1,13
 -26 9 -26 9 -26 33 c 0,14,15
 -26 46 -26 46 -23 62 c 2,16,-1
 -12 119 l 1,17,-1
 74 119 l 1,18,19
 104 151 104 151 128.5 198 c 128,-1,20
 153 245 153 245 174 316.5 c 128,-1,21
 195 388 195 388 213 494 c 2,22,-1
 234 616 l 1,23,-1
 152 659 l 1,24,-1
 155 676 l 1,25,-1
 755 676 l 1,26,-1
 752 659 l 1,27,-1
 663 616 l 1,28,-1
 564 59 l 1,29,-1
 639 16 l 1,30,-1
 636 0 l 1,31,-1
 297 0 l 1,0,-1
EndSplineSet
Validated: 1
Substitution2: "'c2sc' Capitals to Small Capitals lookup 59 subtable" uni043B.sc
Substitution2: "'ss06' Style Set 6 lookup 19 subtable" uni041B.bgr
Substitution2: "'locl' Localized Forms in Cyrillic lookup 17 subtable" uni041B.bgr
AlternateSubs2: "'aalt' Access All Alternates lookup 1 subtable" uni041B.bgr uni043B.sc
EndChar

StartChar: uni041F
Encoding: 1055 1055 270
Width: 777
GlyphClass: 1
Flags: W
LayerCount: 2
Fore
SplineSet
-31 0 m 1,0,-1
 -28 16 l 1,1,-1
 61 59 l 1,2,-1
 160 616 l 1,3,-1
 85 659 l 1,4,-1
 88 676 l 1,5,-1
 808 676 l 1,6,-1
 805 659 l 1,7,-1
 718 616 l 1,8,-1
 620 59 l 1,9,-1
 692 16 l 1,10,-1
 689 0 l 1,11,-1
 361 0 l 1,12,-1
 365 16 l 1,13,-1
 444 59 l 1,14,-1
 543 620 l 1,15,-1
 335 620 l 1,16,-1
 237 59 l 1,17,-1
 301 16 l 1,18,-1
 298 0 l 1,19,-1
 -31 0 l 1,0,-1
EndSplineSet
Validated: 1
Substitution2: "'c2sc' Capitals to Small Capitals lookup 59 subtable" uni043F.sc
Substitution2: "'aalt' Access All Alternates lookup 0 subtable" uni043F.sc
EndChar

StartChar: uni0423
Encoding: 1059 1059 274
Width: 710
GlyphClass: 2
Flags: W
AnchorPoint: "Anchor-3" 477 727 basechar 0
LayerCount: 2
Fore
SplineSet
425 191 m 2,0,1
 353 81 353 81 296 36.5 c 128,-1,2
 239 -8 239 -8 182 -8 c 0,3,4
 127 -8 127 -8 127 32 c 0,5,6
 127 36 127 36 128 43 c 128,-1,7
 129 50 129 50 131 60 c 2,8,-1
 142 119 l 1,9,-1
 257 119 l 1,10,11
 291 138 291 138 325 172 c 1,12,-1
 146 604 l 1,13,-1
 59 659 l 1,14,-1
 62 676 l 1,15,-1
 382 676 l 1,16,-1
 379 659 l 1,17,-1
 311 629 l 1,18,-1
 311 622 l 1,19,-1
 434 336 l 1,20,-1
 445 336 l 1,21,-1
 625 616 l 1,22,-1
 625 624 l 1,23,-1
 558 659 l 1,24,-1
 561 676 l 1,25,-1
 783 676 l 1,26,-1
 780 659 l 1,27,-1
 702 620 l 1,28,-1
 425 191 l 2,0,1
EndSplineSet
Validated: 1
Substitution2: "'c2sc' Capitals to Small Capitals lookup 59 subtable" uni0443.sc
Substitution2: "'aalt' Access All Alternates lookup 0 subtable" uni0443.sc
EndChar

StartChar: uni0424
Encoding: 1060 1060 277
Width: 917
GlyphClass: 1
Flags: W
LayerCount: 2
Fore
SplineSet
217 -20 m 1,0,-1
 220 -4 l 1,1,-1
 319 39 l 1,2,-1
 327 82 l 1,3,4
 182 88 182 88 106.5 148 c 128,-1,5
 31 208 31 208 31 306 c 0,6,7
 31 383 31 383 76.5 447 c 128,-1,8
 122 511 122 511 208 550 c 128,-1,9
 294 589 294 589 417 594 c 1,10,-1
 424 637 l 1,11,-1
 341 680 l 1,12,-1
 344 696 l 1,13,-1
 701 696 l 1,14,-1
 698 680 l 1,15,-1
 599 637 l 1,16,-1
 592 594 l 1,17,18
 737 588 737 588 812 528 c 128,-1,19
 887 468 887 468 887 370 c 0,20,21
 887 293 887 293 842 229.5 c 128,-1,22
 797 166 797 166 711 126.5 c 128,-1,23
 625 87 625 87 502 82 c 1,24,-1
 495 39 l 1,25,-1
 578 -4 l 1,26,-1
 574 -20 l 1,27,-1
 217 -20 l 1,0,-1
215 306 m 0,28,29
 215 235 215 235 249 192.5 c 128,-1,30
 283 150 283 150 337 139 c 1,31,-1
 408 541 l 1,32,33
 355 538 355 538 311 509.5 c 128,-1,34
 267 481 267 481 241 429.5 c 128,-1,35
 215 378 215 378 215 306 c 0,28,29
702 370 m 0,36,37
 702 440 702 440 669 482.5 c 128,-1,38
 636 525 636 525 582 537 c 1,39,-1
 511 135 l 1,40,41
 564 138 564 138 607 167 c 128,-1,42
 650 196 650 196 676 247 c 128,-1,43
 702 298 702 298 702 370 c 0,36,37
EndSplineSet
Validated: 1
Substitution2: "'c2sc' Capitals to Small Capitals lookup 59 subtable" uni0444.sc
Substitution2: "'aalt' Access All Alternates lookup 0 subtable" uni0444.sc
EndChar

StartChar: uni0426
Encoding: 1062 1062 279
Width: 777
GlyphClass: 1
Flags: W
LayerCount: 2
Fore
SplineSet
571 0 m 1,0,-1
 -31 0 l 1,1,-1
 -28 16 l 1,2,-1
 59 59 l 1,3,-1
 158 616 l 1,4,-1
 85 659 l 1,5,-1
 88 676 l 1,6,-1
 416 676 l 1,7,-1
 413 659 l 1,8,-1
 333 616 l 1,9,-1
 234 56 l 1,10,-1
 442 56 l 1,11,-1
 541 616 l 1,12,-1
 476 659 l 1,13,-1
 479 676 l 1,14,-1
 808 676 l 1,15,-1
 805 659 l 1,16,-1
 716 616 l 1,17,-1
 616 56 l 1,18,-1
 709 56 l 1,19,-1
 667 -180 l 1,20,-1
 650 -180 l 1,21,-1
 571 0 l 1,0,-1
EndSplineSet
Validated: 1
Substitution2: "'c2sc' Capitals to Small Capitals lookup 59 subtable" uni0446.sc
Substitution2: "'aalt' Access All Alternates lookup 0 subtable" uni0446.sc
EndChar

StartChar: uni0427
Encoding: 1063 1063 280
Width: 775
GlyphClass: 1
Flags: W
LayerCount: 2
Fore
SplineSet
359 0 m 5,0,-1
 362 16 l 5,1,-1
 442 59 l 5,2,-1
 485 303 l 5,3,4
 453 289 453 289 416 278.5 c 132,-1,5
 379 268 379 268 334 268 c 4,6,7
 225 268 225 268 172 323 c 4,8,9
 133 363 133 363 133 435 c 4,10,11
 133 461 133 461 138 490 c 6,12,-1
 160 616 l 5,13,-1
 85 659 l 5,14,-1
 88 676 l 5,15,-1
 417 676 l 5,16,-1
 414 659 l 5,17,-1
 335 616 l 5,18,-1
 311 485 l 6,19,20
 306 458 306 458 306 436 c 4,21,22
 306 398 306 398 321 378 c 4,23,24
 344 346 344 346 406 345 c 4,25,26
 426 345 426 345 449 348.5 c 132,-1,27
 472 352 472 352 496 360 c 5,28,-1
 541 616 l 5,29,-1
 475 659 l 5,30,-1
 478 676 l 5,31,-1
 806 676 l 5,32,-1
 803 659 l 5,33,-1
 716 616 l 5,34,-1
 617 59 l 5,35,-1
 690 16 l 5,36,-1
 687 0 l 5,37,-1
 359 0 l 5,0,-1
EndSplineSet
Validated: 1
Substitution2: "'c2sc' Capitals to Small Capitals lookup 59 subtable" uni0447.sc
Substitution2: "'aalt' Access All Alternates lookup 0 subtable" uni0447.sc
EndChar

StartChar: uni0428
Encoding: 1064 1064 281
Width: 1102
GlyphClass: 1
Flags: W
LayerCount: 2
Fore
SplineSet
416 676 m 1,0,-1
 413 659 l 1,1,-1
 333 616 l 1,2,-1
 234 56 l 1,3,-1
 415 56 l 1,4,-1
 513 616 l 1,5,-1
 443 659 l 1,6,-1
 446 676 l 1,7,-1
 774 676 l 1,8,-1
 771 659 l 1,9,-1
 688 616 l 1,10,-1
 590 56 l 1,11,-1
 768 56 l 1,12,-1
 866 616 l 1,13,-1
 802 659 l 1,14,-1
 805 676 l 1,15,-1
 1134 676 l 1,16,-1
 1130 659 l 1,17,-1
 1041 616 l 1,18,-1
 943 59 l 1,19,-1
 1018 16 l 1,20,-1
 1015 0 l 1,21,-1
 -31 0 l 1,22,-1
 -28 16 l 1,23,-1
 59 59 l 1,24,-1
 158 616 l 1,25,-1
 85 659 l 1,26,-1
 88 676 l 1,27,-1
 416 676 l 1,0,-1
EndSplineSet
Validated: 1
Substitution2: "'c2sc' Capitals to Small Capitals lookup 59 subtable" uni0448.sc
Substitution2: "'aalt' Access All Alternates lookup 0 subtable" uni0448.sc
EndChar

StartChar: uni0429
Encoding: 1065 1065 282
Width: 1102
GlyphClass: 1
Flags: W
LayerCount: 2
Fore
SplineSet
416 676 m 1,0,-1
 413 659 l 1,1,-1
 333 616 l 1,2,-1
 234 56 l 1,3,-1
 415 56 l 1,4,-1
 513 616 l 1,5,-1
 443 659 l 1,6,-1
 446 676 l 1,7,-1
 774 676 l 1,8,-1
 771 659 l 1,9,-1
 688 616 l 1,10,-1
 590 56 l 1,11,-1
 768 56 l 1,12,-1
 866 616 l 1,13,-1
 802 659 l 1,14,-1
 805 676 l 1,15,-1
 1134 676 l 1,16,-1
 1130 659 l 1,17,-1
 1041 616 l 1,18,-1
 943 56 l 1,19,-1
 1035 56 l 1,20,-1
 993 -180 l 1,21,-1
 977 -180 l 1,22,-1
 898 0 l 1,23,-1
 -31 0 l 1,24,-1
 -28 16 l 1,25,-1
 59 59 l 1,26,-1
 158 616 l 1,27,-1
 85 659 l 1,28,-1
 88 676 l 1,29,-1
 416 676 l 1,0,-1
EndSplineSet
Validated: 1
Substitution2: "'c2sc' Capitals to Small Capitals lookup 59 subtable" uni0449.sc
Substitution2: "'aalt' Access All Alternates lookup 0 subtable" uni0449.sc
EndChar

StartChar: uni042A
Encoding: 1066 1066 283
Width: 771
GlyphClass: 1
Flags: W
LayerCount: 2
Fore
SplineSet
548 676 m 1,0,-1
 545 659 l 1,1,-1
 445 616 l 1,2,-1
 409 407 l 1,3,-1
 459 407 l 2,4,5
 594 407 594 407 672.5 360.5 c 128,-1,6
 751 314 751 314 751 219 c 0,7,8
 751 157 751 157 707.5 107 c 128,-1,9
 664 57 664 57 590.5 28.5 c 128,-1,10
 517 0 517 0 426 0 c 2,11,-1
 80 0 l 1,12,-1
 83 16 l 1,13,-1
 172 60 l 1,14,-1
 270 620 l 1,15,-1
 184 620 l 1,16,-1
 62 439 l 1,17,-1
 46 439 l 1,18,-1
 88 676 l 1,19,-1
 548 676 l 1,0,-1
347 56 m 1,20,-1
 394 56 l 2,21,22
 449 56 449 56 487 78 c 128,-1,23
 525 100 525 100 545 137.5 c 128,-1,24
 565 175 565 175 565 220 c 0,25,26
 565 291 565 291 527 320.5 c 128,-1,27
 489 350 489 350 418 350 c 2,28,-1
 398 350 l 1,29,-1
 347 56 l 1,20,-1
EndSplineSet
Validated: 1
Substitution2: "'c2sc' Capitals to Small Capitals lookup 59 subtable" uni044A.sc
Substitution2: "'aalt' Access All Alternates lookup 0 subtable" uni044A.sc
EndChar

StartChar: uni042C
Encoding: 1068 1068 285
Width: 660
GlyphClass: 1
Flags: W
LayerCount: 2
Fore
SplineSet
88 676 m 1,0,-1
 437 676 l 1,1,-1
 434 659 l 1,2,-1
 335 616 l 1,3,-1
 298 407 l 1,4,-1
 348 407 l 2,5,6
 483 407 483 407 561.5 360.5 c 128,-1,7
 640 314 640 314 640 219 c 0,8,9
 640 157 640 157 596.5 107 c 128,-1,10
 553 57 553 57 480 28.5 c 128,-1,11
 407 0 407 0 315 0 c 2,12,-1
 -31 0 l 1,13,-1
 -28 16 l 1,14,-1
 61 60 l 1,15,-1
 160 616 l 1,16,-1
 85 659 l 1,17,-1
 88 676 l 1,0,-1
237 56 m 1,18,-1
 284 56 l 2,19,20
 339 56 339 56 377 78 c 128,-1,21
 415 100 415 100 435 137.5 c 128,-1,22
 455 175 455 175 455 220 c 0,23,24
 455 291 455 291 417 320.5 c 128,-1,25
 379 350 379 350 307 350 c 2,26,-1
 288 350 l 1,27,-1
 237 56 l 1,18,-1
EndSplineSet
Validated: 1
Substitution2: "'c2sc' Capitals to Small Capitals lookup 59 subtable" uni044C.sc
Substitution2: "'aalt' Access All Alternates lookup 0 subtable" uni044C.sc
EndChar

StartChar: uni042D
Encoding: 1069 1069 286
Width: 673
GlyphClass: 1
Flags: W
LayerCount: 2
Fore
SplineSet
247 467 m 1,0,-1
 293 379 l 1,1,-1
 451 379 l 1,2,3
 452 401 452 401 452 423 c 0,4,5
 452 528 452 528 416.5 580 c 128,-1,6
 381 632 381 632 315 632 c 0,7,8
 296 632 296 632 275.5 627 c 128,-1,9
 255 622 255 622 231 610 c 1,10,-1
 100 452 l 1,11,-1
 82 452 l 1,12,-1
 125 631 l 1,13,14
 164 657 164 657 223 671.5 c 128,-1,15
 282 686 282 686 337 686 c 0,16,17
 425 686 425 686 491.5 651.5 c 128,-1,18
 558 617 558 617 595.5 555.5 c 128,-1,19
 633 494 633 494 633 410 c 0,20,21
 633 328 633 328 600 252.5 c 128,-1,22
 567 177 567 177 509.5 117.5 c 128,-1,23
 452 58 452 58 374 24 c 128,-1,24
 296 -10 296 -10 206 -10 c 0,25,26
 143 -10 143 -10 104.5 3.5 c 128,-1,27
 66 17 66 17 31 39 c 1,28,-1
 48 238 l 1,29,-1
 67 238 l 1,30,-1
 148 54 l 1,31,32
 162 45 162 45 179 42 c 128,-1,33
 196 39 196 39 221 39 c 0,34,35
 279 39 279 39 325.5 76.5 c 128,-1,36
 372 114 372 114 402 178.5 c 128,-1,37
 432 243 432 243 444 323 c 1,38,-1
 283 323 l 1,39,-1
 206 232 l 1,40,-1
 189 232 l 1,41,-1
 230 467 l 1,42,-1
 247 467 l 1,0,-1
EndSplineSet
Validated: 1
Substitution2: "'c2sc' Capitals to Small Capitals lookup 59 subtable" uni044D.sc
Substitution2: "'aalt' Access All Alternates lookup 0 subtable" uni044D.sc
EndChar

StartChar: uni042E
Encoding: 1070 1070 287
Width: 1094
GlyphClass: 1
Flags: W
LayerCount: 2
Fore
SplineSet
-31 0 m 1,0,-1
 -28 16 l 1,1,-1
 61 59 l 1,2,-1
 160 616 l 1,3,-1
 85 659 l 1,4,-1
 88 676 l 1,5,-1
 417 676 l 1,6,-1
 414 659 l 1,7,-1
 335 616 l 1,8,-1
 293 377 l 1,9,-1
 370 377 l 1,10,11
 392 466 392 466 447 536 c 128,-1,12
 502 606 502 606 582 646 c 128,-1,13
 662 686 662 686 757 686 c 256,14,15
 852 686 852 686 918.5 649.5 c 128,-1,16
 985 613 985 613 1019.5 548.5 c 128,-1,17
 1054 484 1054 484 1054 399 c 0,18,19
 1054 313 1054 313 1024.5 239 c 128,-1,20
 995 165 995 165 942 108.5 c 128,-1,21
 889 52 889 52 815.5 21 c 128,-1,22
 742 -10 742 -10 654 -10 c 0,23,24
 558 -10 558 -10 492 26 c 128,-1,25
 426 62 426 62 392 127.5 c 128,-1,26
 358 193 358 193 358 278 c 0,27,28
 358 300 358 300 360 321 c 1,29,-1
 283 321 l 1,30,-1
 237 59 l 1,31,-1
 301 16 l 1,32,-1
 298 0 l 1,33,-1
 -31 0 l 1,0,-1
665 43 m 0,34,35
 711 43 711 43 748 73 c 128,-1,36
 785 103 785 103 812.5 156.5 c 128,-1,37
 840 210 840 210 854 279 c 128,-1,38
 868 348 868 348 868 426 c 0,39,40
 868 517 868 517 842 574.5 c 128,-1,41
 816 632 816 632 749 632 c 0,42,43
 706 632 706 632 668.5 601.5 c 128,-1,44
 631 571 631 571 603 518 c 128,-1,45
 575 465 575 465 559.5 396.5 c 128,-1,46
 544 328 544 328 544 251 c 0,47,48
 544 159 544 159 574.5 101 c 128,-1,49
 605 43 605 43 665 43 c 0,34,35
EndSplineSet
Validated: 1
Substitution2: "'c2sc' Capitals to Small Capitals lookup 59 subtable" uni044E.sc
Substitution2: "'aalt' Access All Alternates lookup 0 subtable" uni044E.sc
EndChar

StartChar: uni042F
Encoding: 1071 1071 288
Width: 755
GlyphClass: 1
Flags: W
LayerCount: 2
Fore
SplineSet
194 0 m 1,0,-1
 -51 0 l 1,1,-1
 -48 16 l 1,2,-1
 37 60 l 1,3,-1
 260 318 l 1,4,5
 191 331 191 331 153.5 369.5 c 128,-1,6
 116 408 116 408 116 467 c 0,7,8
 116 530 116 530 158.5 577.5 c 128,-1,9
 201 625 201 625 274 650.5 c 128,-1,10
 347 676 347 676 440 676 c 2,11,-1
 786 676 l 1,12,-1
 783 659 l 1,13,-1
 694 615 l 1,14,-1
 596 59 l 1,15,-1
 671 16 l 1,16,-1
 668 0 l 1,17,-1
 329 0 l 1,18,-1
 332 16 l 1,19,-1
 421 59 l 1,20,-1
 462 295 l 1,21,-1
 429 295 l 1,22,-1
 194 0 l 1,0,-1
449 346 m 2,23,-1
 471 346 l 1,24,-1
 519 620 l 1,25,-1
 472 620 l 2,26,27
 390 620 390 620 345.5 574.5 c 128,-1,28
 301 529 301 529 301 466 c 0,29,30
 301 400 301 400 339 373 c 128,-1,31
 377 346 377 346 449 346 c 2,23,-1
EndSplineSet
Validated: 1
Substitution2: "'c2sc' Capitals to Small Capitals lookup 59 subtable" uni044F.sc
Substitution2: "'aalt' Access All Alternates lookup 0 subtable" uni044F.sc
EndChar

StartChar: uni0490
Encoding: 1168 1168 289
Width: 590
GlyphClass: 1
Flags: W
LayerCount: 2
Fore
SplineSet
-31 0 m 1,0,-1
 -28 16 l 1,1,-1
 61 59 l 1,2,-1
 160 616 l 1,3,-1
 85 659 l 1,4,-1
 88 676 l 1,5,-1
 478 676 l 1,6,-1
 621 856 l 1,7,-1
 637 856 l 1,8,-1
 596 620 l 1,9,-1
 335 620 l 1,10,-1
 237 59 l 1,11,-1
 341 16 l 1,12,-1
 338 0 l 1,13,-1
 -31 0 l 1,0,-1
EndSplineSet
Validated: 1
Substitution2: "'c2sc' Capitals to Small Capitals lookup 59 subtable" uni0491.sc
Substitution2: "'aalt' Access All Alternates lookup 0 subtable" uni0491.sc
EndChar

StartChar: uni049A
Encoding: 1178 1178 290
Width: 772
GlyphClass: 1
Flags: W
LayerCount: 2
Fore
SplineSet
-31 0 m 1,0,-1
 -28 16 l 1,1,-1
 61 59 l 1,2,-1
 160 616 l 1,3,-1
 85 659 l 1,4,-1
 88 676 l 1,5,-1
 428 676 l 1,6,-1
 424 659 l 1,7,-1
 335 616 l 1,8,-1
 237 59 l 1,9,-1
 312 16 l 1,10,-1
 308 0 l 1,11,-1
 -31 0 l 1,0,-1
471 0 m 1,12,-1
 289 339 l 1,13,-1
 584 624 l 1,14,-1
 517 659 l 1,15,-1
 520 676 l 1,16,-1
 752 676 l 1,17,-1
 748 659 l 1,18,-1
 686 635 l 1,19,-1
 439 404 l 1,20,-1
 643 56 l 1,21,-1
 729 56 l 1,22,-1
 687 -180 l 1,23,-1
 671 -180 l 1,24,-1
 592 0 l 1,25,-1
 471 0 l 1,12,-1
EndSplineSet
Validated: 1
Substitution2: "'c2sc' Capitals to Small Capitals lookup 59 subtable" uni049B.sc
Substitution2: "'aalt' Access All Alternates lookup 0 subtable" uni049B.sc
EndChar

StartChar: uni0496
Encoding: 1174 1174 291
Width: 1126
GlyphClass: 1
Flags: W
LayerCount: 2
Fore
SplineSet
325 0 m 1,0,-1
 327 16 l 1,1,-1
 417 59 l 1,2,-1
 515 616 l 1,3,-1
 440 659 l 1,4,-1
 442 676 l 1,5,-1
 782 676 l 1,6,-1
 779 659 l 1,7,-1
 690 616 l 1,8,-1
 592 59 l 1,9,-1
 667 16 l 1,10,-1
 664 0 l 1,11,-1
 325 0 l 1,0,-1
825 0 m 1,12,-1
 643 339 l 1,13,-1
 938 624 l 1,14,-1
 871 659 l 1,15,-1
 874 676 l 1,16,-1
 1106 676 l 1,17,-1
 1102 659 l 1,18,-1
 1040 635 l 1,19,-1
 794 404 l 1,20,-1
 997 56 l 1,21,-1
 1086 56 l 1,22,-1
 1044 -180 l 1,23,-1
 1028 -180 l 1,24,-1
 949 0 l 1,25,-1
 825 0 l 1,12,-1
162 0 m 1,26,-1
 -72 0 l 1,27,-1
 -69 16 l 1,28,-1
 1 53 l 1,29,-1
 333 418 l 1,30,-1
 191 625 l 1,31,-1
 106 659 l 1,32,-1
 109 676 l 1,33,-1
 350 676 l 1,34,-1
 347 659 l 1,35,-1
 275 627 l 1,36,-1
 463 339 l 1,37,-1
 162 0 l 1,26,-1
EndSplineSet
Validated: 1
Substitution2: "'c2sc' Capitals to Small Capitals lookup 59 subtable" uni0497.sc
Substitution2: "'aalt' Access All Alternates lookup 0 subtable" uni0497.sc
EndChar

StartChar: uni04B2
Encoding: 1202 1202 292
Width: 758
GlyphClass: 1
Flags: W
LayerCount: 2
Fore
SplineSet
-47 0 m 1,0,-1
 -44 16 l 1,1,-1
 38 56 l 1,2,-1
 286 321 l 1,3,-1
 130 625 l 1,4,-1
 75 659 l 1,5,-1
 78 676 l 1,6,-1
 411 676 l 1,7,-1
 408 659 l 1,8,-1
 326 623 l 1,9,-1
 326 617 l 1,10,-1
 429 422 l 1,11,-1
 610 617 l 1,12,-1
 611 622 l 1,13,-1
 541 659 l 1,14,-1
 544 676 l 1,15,-1
 768 676 l 1,16,-1
 765 659 l 1,17,-1
 694 623 l 1,18,-1
 456 372 l 1,19,-1
 622 56 l 1,20,-1
 709 56 l 1,21,-1
 667 -180 l 1,22,-1
 650 -180 l 1,23,-1
 571 0 l 1,24,-1
 343 0 l 1,25,-1
 346 16 l 1,26,-1
 421 53 l 1,27,-1
 421 57 l 1,28,-1
 313 267 l 1,29,-1
 120 60 l 1,30,-1
 116 56 l 1,31,-1
 185 16 l 1,32,-1
 182 0 l 1,33,-1
 -47 0 l 1,0,-1
EndSplineSet
Validated: 1
Substitution2: "'c2sc' Capitals to Small Capitals lookup 59 subtable" uni04B3.sc
Substitution2: "'aalt' Access All Alternates lookup 0 subtable" uni04B3.sc
EndChar

StartChar: uni04A2
Encoding: 1186 1186 293
Width: 787
GlyphClass: 1
Flags: W
LayerCount: 2
Fore
SplineSet
-31 0 m 1,0,-1
 -28 16 l 1,1,-1
 61 59 l 1,2,-1
 160 616 l 1,3,-1
 85 659 l 1,4,-1
 88 676 l 1,5,-1
 417 676 l 1,6,-1
 414 659 l 1,7,-1
 335 616 l 1,8,-1
 293 377 l 1,9,-1
 511 377 l 1,10,-1
 553 616 l 1,11,-1
 487 659 l 1,12,-1
 490 676 l 1,13,-1
 818 676 l 1,14,-1
 815 659 l 1,15,-1
 728 616 l 1,16,-1
 630 56 l 1,17,-1
 722 56 l 1,18,-1
 680 -180 l 1,19,-1
 664 -180 l 1,20,-1
 585 0 l 1,21,-1
 372 0 l 1,22,-1
 375 16 l 1,23,-1
 455 59 l 1,24,-1
 501 321 l 1,25,-1
 283 321 l 1,26,-1
 237 59 l 1,27,-1
 301 16 l 1,28,-1
 298 0 l 1,29,-1
 -31 0 l 1,0,-1
EndSplineSet
Validated: 1
Substitution2: "'c2sc' Capitals to Small Capitals lookup 59 subtable" uni04A3.sc
Substitution2: "'aalt' Access All Alternates lookup 0 subtable" uni04A3.sc
EndChar

StartChar: uni04B6
Encoding: 1206 1206 294
Width: 775
GlyphClass: 1
Flags: W
LayerCount: 2
Fore
SplineSet
359 0 m 5,0,-1
 362 16 l 5,1,-1
 442 59 l 5,2,-1
 485 303 l 5,3,4
 453 289 453 289 416 278.5 c 132,-1,5
 379 268 379 268 334 268 c 4,6,7
 225 268 225 268 172 323 c 4,8,9
 133 363 133 363 133 435 c 4,10,11
 133 461 133 461 138 490 c 6,12,-1
 160 616 l 5,13,-1
 85 659 l 5,14,-1
 88 676 l 5,15,-1
 417 676 l 5,16,-1
 414 659 l 5,17,-1
 335 616 l 5,18,-1
 311 485 l 6,19,20
 306 458 306 458 306 436 c 4,21,22
 306 398 306 398 321 378 c 4,23,24
 344 346 344 346 406 345 c 4,25,26
 426 345 426 345 449 348.5 c 132,-1,27
 472 352 472 352 496 360 c 5,28,-1
 541 616 l 5,29,-1
 475 659 l 5,30,-1
 478 676 l 5,31,-1
 806 676 l 5,32,-1
 803 659 l 5,33,-1
 716 616 l 5,34,-1
 617 56 l 5,35,-1
 715 56 l 5,36,-1
 673 -180 l 5,37,-1
 656 -180 l 5,38,-1
 578 0 l 5,39,-1
 359 0 l 5,0,-1
EndSplineSet
Validated: 1
Substitution2: "'c2sc' Capitals to Small Capitals lookup 59 subtable" uni04B7.sc
Substitution2: "'aalt' Access All Alternates lookup 0 subtable" uni04B7.sc
EndChar

StartChar: uni04B0
Encoding: 1200 1200 296
Width: 706
GlyphClass: 1
Flags: W
LayerCount: 2
Fore
SplineSet
138 0 m 1,0,-1
 141 16 l 1,1,-1
 230 59 l 1,2,-1
 265 259 l 1,3,-1
 117 259 l 1,4,-1
 127 315 l 1,5,-1
 274 315 l 1,6,-1
 114 625 l 1,7,-1
 59 659 l 1,8,-1
 63 676 l 1,9,-1
 383 676 l 1,10,-1
 379 659 l 1,11,-1
 298 623 l 1,12,-1
 297 618 l 1,13,-1
 428 372 l 1,14,-1
 627 618 l 1,15,-1
 628 623 l 1,16,-1
 558 659 l 1,17,-1
 562 676 l 1,18,-1
 780 676 l 1,19,-1
 777 659 l 1,20,-1
 712 629 l 1,21,-1
 451 317 l 1,22,-1
 451 315 l 1,23,-1
 599 315 l 1,24,-1
 589 259 l 1,25,-1
 440 259 l 1,26,-1
 406 59 l 1,27,-1
 480 16 l 1,28,-1
 477 0 l 1,29,-1
 138 0 l 1,0,-1
EndSplineSet
Validated: 1
Substitution2: "'c2sc' Capitals to Small Capitals lookup 59 subtable" uni04B1.sc
Substitution2: "'aalt' Access All Alternates lookup 0 subtable" uni04B1.sc
EndChar

StartChar: uni04BA
Encoding: 1210 1210 297
Width: 772
GlyphClass: 1
Flags: W
LayerCount: 2
Fore
SplineSet
464 190 m 6,0,1
 469 217 469 217 469 239 c 4,2,3
 469 277 469 277 454 298 c 4,4,5
 431 331 431 331 370 331 c 4,6,7
 350 331 350 331 326.5 327.5 c 132,-1,8
 303 324 303 324 280 315 c 5,9,-1
 234 59 l 5,10,-1
 300 16 l 5,11,-1
 297 0 l 5,12,-1
 -31 0 l 5,13,-1
 -28 16 l 5,14,-1
 59 59 l 5,15,-1
 158 616 l 5,16,-1
 85 659 l 5,17,-1
 88 676 l 5,18,-1
 416 676 l 5,19,-1
 413 659 l 5,20,-1
 333 616 l 5,21,-1
 290 373 l 5,22,23
 322 387 322 387 359 397.5 c 132,-1,24
 396 408 396 408 441 408 c 4,25,26
 552 408 552 408 604 353 c 4,27,28
 642 314 642 314 642 245 c 4,29,30
 642 243 642 243 642 241 c 4,31,32
 642 215 642 215 637 185 c 6,33,-1
 615 59 l 5,34,-1
 690 16 l 5,35,-1
 687 0 l 5,36,-1
 358 0 l 5,37,-1
 361 16 l 5,38,-1
 440 59 l 5,39,-1
 464 190 l 6,0,1
EndSplineSet
Validated: 1
Substitution2: "'c2sc' Capitals to Small Capitals lookup 59 subtable" uni04BB.sc
Substitution2: "'aalt' Access All Alternates lookup 0 subtable" uni04BB.sc
EndChar

StartChar: uni04E8
Encoding: 1256 1256 300
Width: 797
GlyphClass: 1
Flags: W
LayerCount: 2
Fore
SplineSet
347 -10 m 0,0,1
 248 -10 248 -10 180 26 c 128,-1,2
 112 62 112 62 76.5 127.5 c 128,-1,3
 41 193 41 193 41 278 c 0,4,5
 41 364 41 364 72 438 c 128,-1,6
 103 512 103 512 159 568 c 128,-1,7
 215 624 215 624 289.5 655 c 128,-1,8
 364 686 364 686 450 686 c 0,9,10
 549 686 549 686 617 649.5 c 128,-1,11
 685 613 685 613 721 548.5 c 128,-1,12
 757 484 757 484 757 399 c 0,13,14
 757 313 757 313 727 239 c 128,-1,15
 697 165 697 165 642.5 108.5 c 128,-1,16
 588 52 588 52 513 21 c 128,-1,17
 438 -10 438 -10 347 -10 c 0,0,1
441 632 m 0,18,19
 393 632 393 632 352.5 598.5 c 128,-1,20
 312 565 312 565 282.5 507.5 c 128,-1,21
 253 450 253 450 239 376 c 1,22,-1
 569 376 l 1,23,24
 571 401 571 401 571 426 c 0,25,26
 571 487 571 487 559 533.5 c 128,-1,27
 547 580 547 580 518.5 606 c 128,-1,28
 490 632 490 632 441 632 c 0,18,19
357 43 m 0,29,30
 410 43 410 43 452.5 79.5 c 128,-1,31
 495 116 495 116 523.5 178.5 c 128,-1,32
 552 241 552 241 563 319 c 1,33,-1
 229 319 l 1,34,35
 226 285 226 285 226 251 c 0,36,37
 226 159 226 159 258.5 101 c 128,-1,38
 291 43 291 43 357 43 c 0,29,30
EndSplineSet
Validated: 1
Substitution2: "'c2sc' Capitals to Small Capitals lookup 59 subtable" uni04E9.sc
Substitution2: "'aalt' Access All Alternates lookup 0 subtable" uni04E9.sc
EndChar

StartChar: uni0462
Encoding: 1122 1122 301
Width: 780
GlyphClass: 1
Flags: W
LayerCount: 2
Fore
SplineSet
157 509 m 1,0,-1
 44 380 l 1,1,-1
 28 380 l 1,2,-1
 60 565 l 1,3,-1
 249 565 l 1,4,-1
 258 616 l 1,5,-1
 174 659 l 1,6,-1
 177 676 l 1,7,-1
 574 676 l 1,8,-1
 571 659 l 1,9,-1
 453 616 l 1,10,-1
 443 565 l 1,11,-1
 663 565 l 1,12,-1
 630 380 l 1,13,-1
 613 380 l 1,14,-1
 546 509 l 1,15,-1
 433 509 l 1,16,-1
 404 345 l 1,17,-1
 458 345 l 2,18,19
 593 345 593 345 671.5 306.5 c 128,-1,20
 750 268 750 268 750 188 c 0,21,22
 750 135 750 135 706.5 92 c 128,-1,23
 663 49 663 49 589.5 24.5 c 128,-1,24
 516 0 516 0 425 0 c 2,25,-1
 58 0 l 1,26,-1
 61 16 l 1,27,-1
 160 59 l 1,28,-1
 239 509 l 1,29,-1
 157 509 l 1,0,-1
354 56 m 1,30,-1
 393 56 l 2,31,32
 475 56 475 56 519.5 95.5 c 128,-1,33
 564 135 564 135 564 189 c 256,34,35
 564 243 564 243 526 266 c 128,-1,36
 488 289 488 289 417 289 c 2,37,-1
 395 289 l 1,38,-1
 354 56 l 1,30,-1
EndSplineSet
Validated: 1
Substitution2: "'c2sc' Capitals to Small Capitals lookup 59 subtable" uni0463.sc
Substitution2: "'aalt' Access All Alternates lookup 0 subtable" uni0463.sc
EndChar

StartChar: uni0472
Encoding: 1138 1138 302
Width: 797
GlyphClass: 1
Flags: W
LayerCount: 2
Fore
SplineSet
347 -10 m 4,0,1
 248 -10 248 -10 180 26 c 132,-1,2
 112 62 112 62 76.5 127.5 c 132,-1,3
 41 193 41 193 41 278 c 4,4,5
 41 364 41 364 72 438 c 132,-1,6
 103 512 103 512 159 568 c 132,-1,7
 215 624 215 624 289.5 655 c 132,-1,8
 364 686 364 686 450 686 c 4,9,10
 549 686 549 686 617 649.5 c 132,-1,11
 685 613 685 613 721 548.5 c 132,-1,12
 757 484 757 484 757 399 c 4,13,14
 757 313 757 313 727 239 c 132,-1,15
 697 165 697 165 642.5 108.5 c 132,-1,16
 588 52 588 52 513 21 c 132,-1,17
 438 -10 438 -10 347 -10 c 4,0,1
441 632 m 4,18,19
 391 632 391 632 349 595.5 c 132,-1,20
 307 559 307 559 277.5 496.5 c 132,-1,21
 248 434 248 434 234 356 c 5,22,23
 290 388 290 388 330 398 c 4,24,25
 360 406 360 406 385 406 c 4,26,27
 393 406 393 406 400 406 c 4,28,29
 429 402 429 402 450.5 393 c 132,-1,30
 472 384 472 384 490 375 c 132,-1,31
 508 366 508 366 527 365 c 4,32,33
 528 365 528 365 530 365 c 4,34,35
 548 365 548 365 569 377 c 5,36,37
 571 402 571 402 571 426 c 4,38,39
 571 487 571 487 559 533.5 c 132,-1,40
 547 580 547 580 518.5 606 c 132,-1,41
 490 632 490 632 441 632 c 4,18,19
357 43 m 4,42,43
 411 43 411 43 454 81 c 132,-1,44
 497 119 497 119 525.5 183.5 c 132,-1,45
 554 248 554 248 565 329 c 5,46,47
 512 295 512 295 474 283 c 4,48,49
 445 274 445 274 423 274 c 4,50,51
 417 274 417 274 411 274 c 4,52,53
 385 278 385 278 365 287.5 c 132,-1,54
 345 297 345 297 326 306 c 4,55,56
 307 314 307 314 284 316 c 4,57,58
 282 316 282 316 279 317 c 4,59,60
 257 317 257 317 228 304 c 5,61,62
 226 277 226 277 226 251 c 4,63,64
 226 159 226 159 258.5 101 c 132,-1,65
 291 43 291 43 357 43 c 4,42,43
EndSplineSet
Validated: 1
Substitution2: "'c2sc' Capitals to Small Capitals lookup 59 subtable" uni0473.sc
Substitution2: "'aalt' Access All Alternates lookup 0 subtable" uni0473.sc
EndChar

StartChar: uni0474
Encoding: 1140 1140 303
Width: 777
GlyphClass: 1
Flags: W
LayerCount: 2
Fore
SplineSet
584 395 m 2,0,-1
 353 -5 l 1,1,-1
 262 -5 l 1,2,-1
 119 623 l 1,3,-1
 59 659 l 1,4,-1
 63 676 l 1,5,-1
 381 676 l 1,6,-1
 377 659 l 1,7,-1
 299 624 l 1,8,-1
 395 199 l 1,9,-1
 404 199 l 1,10,-1
 558 478 l 2,11,12
 597 548 597 548 625 589.5 c 128,-1,13
 653 631 653 631 675.5 652 c 128,-1,14
 698 673 698 673 719 679.5 c 128,-1,15
 740 686 740 686 764 686 c 0,16,17
 814 686 814 686 814 645 c 0,18,19
 814 638 814 638 813 629 c 128,-1,20
 812 620 812 620 810 611 c 2,21,-1
 801 557 l 1,22,-1
 700 557 l 1,23,24
 682 543 682 543 666 524 c 128,-1,25
 650 505 650 505 631 474.5 c 128,-1,26
 612 444 612 444 584 395 c 2,0,-1
EndSplineSet
Validated: 1
Substitution2: "'c2sc' Capitals to Small Capitals lookup 59 subtable" uni0475.sc
Substitution2: "'aalt' Access All Alternates lookup 0 subtable" uni0475.sc
EndChar

StartChar: uni0414.bgr
Encoding: 65538 -1 304
Width: 754
GlyphClass: 1
Flags: W
LayerCount: 2
Fore
SplineSet
87 0 m 1,0,-1
 -55 -180 l 1,1,-1
 -72 -180 l 1,2,-1
 -31 56 l 1,3,-1
 34 56 l 1,4,-1
 379 681 l 1,5,-1
 470 681 l 1,6,-1
 613 56 l 1,7,-1
 689 56 l 1,8,-1
 648 -180 l 1,9,-1
 632 -180 l 1,10,-1
 553 0 l 1,11,-1
 87 0 l 1,0,-1
101 56 m 1,12,-1
 432 56 l 1,13,-1
 337 477 l 1,14,-1
 329 477 l 1,15,-1
 101 56 l 1,12,-1
EndSplineSet
Validated: 1
Substitution2: "'c2sc' Capitals to Small Capitals lookup 59 subtable" uni0434.bgr.sc
Substitution2: "'aalt' Access All Alternates lookup 0 subtable" uni0434.bgr.sc
EndChar

StartChar: uni041B.bgr
Encoding: 65541 -1 307
Width: 728
GlyphClass: 1
Flags: W
LayerCount: 2
Fore
SplineSet
456 681 m 1,0,-1
 599 53 l 1,1,-1
 658 16 l 1,2,-1
 654 0 l 1,3,-1
 337 0 l 1,4,-1
 341 16 l 1,5,-1
 419 52 l 1,6,-1
 323 477 l 1,7,-1
 314 477 l 1,8,-1
 85 53 l 1,9,-1
 157 16 l 1,10,-1
 154 0 l 1,11,-1
 -46 0 l 1,12,-1
 -42 16 l 1,13,-1
 15 49 l 1,14,-1
 365 681 l 1,15,-1
 456 681 l 1,0,-1
EndSplineSet
Validated: 1
Substitution2: "'c2sc' Capitals to Small Capitals lookup 59 subtable" uni043B.bgr.sc
Substitution2: "'aalt' Access All Alternates lookup 0 subtable" uni043B.bgr.sc
EndChar

StartChar: a
Encoding: 97 97 308
Width: 575
GlyphClass: 2
Flags: W
AnchorPoint: "Anchor-3" 361 522 basechar 0
AnchorPoint: "Anchor-2" 473 0 basechar 0
AnchorPoint: "Anchor-0" 268 0 basechar 0
LayerCount: 2
Fore
SplineSet
129 -10 m 0,0,1
 86 -10 86 -10 58.5 23.5 c 128,-1,2
 31 57 31 57 31 118 c 0,3,4
 31 198 31 198 60.5 264.5 c 128,-1,5
 90 331 90 331 138 379.5 c 128,-1,6
 186 428 186 428 243.5 454.5 c 128,-1,7
 301 481 301 481 356 481 c 0,8,9
 414 481 414 481 446 453 c 1,10,-1
 510 471 l 1,11,-1
 526 471 l 1,12,-1
 468 134 l 2,13,14
 465 116 465 116 469.5 103.5 c 128,-1,15
 474 91 474 91 486 91 c 0,16,17
 500 91 500 91 515 107 c 128,-1,18
 530 123 530 123 549 164 c 1,19,-1
 571 157 l 1,20,21
 543 82 543 82 504.5 36 c 128,-1,22
 466 -10 466 -10 409 -10 c 0,23,24
 361 -10 361 -10 332.5 16.5 c 128,-1,25
 304 43 304 43 302 96 c 1,26,-1
 296 96 l 1,27,28
 264 56 264 56 238.5 33 c 128,-1,29
 213 10 213 10 187.5 0 c 128,-1,30
 162 -10 162 -10 129 -10 c 0,0,1
205 182 m 0,31,32
 205 139 205 139 212.5 120 c 128,-1,33
 220 101 220 101 237 101 c 0,34,35
 255 101 255 101 271.5 114.5 c 128,-1,36
 288 128 288 128 306 152 c 1,37,-1
 306 154 l 1,38,-1
 351 420 l 1,39,40
 336 430 336 430 315 430 c 0,41,42
 283 430 283 430 258 395.5 c 128,-1,43
 233 361 233 361 219 305 c 128,-1,44
 205 249 205 249 205 182 c 0,31,32
EndSplineSet
Validated: 1
Substitution2: "'ss04' Style Set 4 lookup 72 subtable" blacksquare
Substitution2: "'case' Case-Sensitive Forms lookup 61 subtable" A
Substitution2: "'smcp' Lowercase to Small Capitals lookup 60 subtable" a.sc
Substitution2: "'c2sc' Capitals to Small Capitals lookup 59 subtable" a.sc
Substitution2: "'sups' Superscript lookup 53 subtable" a.superior
Substitution2: "Single Substitution lookup 21 subtable" ordfeminine
AlternateSubs2: "'aalt' Access All Alternates lookup 1 subtable" ordfeminine a.superior a.sc A blacksquare
EndChar

StartChar: b
Encoding: 98 98 309
Width: 540
GlyphClass: 1
Flags: W
LayerCount: 2
Fore
SplineSet
236 -10 m 0,0,1
 194 -10 194 -10 161.5 0 c 128,-1,2
 129 10 129 10 106 30 c 1,3,-1
 27 0 l 1,4,-1
 10 0 l 1,5,-1
 129 677 l 1,6,-1
 58 711 l 1,7,-1
 58 727 l 1,8,-1
 308 768 l 1,9,-1
 311 768 l 1,10,-1
 244 384 l 1,11,-1
 249 384 l 1,12,13
 281 422 281 422 302.5 443 c 128,-1,14
 324 464 324 464 345.5 472.5 c 128,-1,15
 367 481 367 481 398 481 c 0,16,17
 447 481 447 481 478.5 440.5 c 128,-1,18
 510 400 510 400 510 329 c 256,19,20
 510 257 510 257 488 195.5 c 128,-1,21
 466 134 466 134 428 88 c 128,-1,22
 390 42 390 42 340.5 16 c 128,-1,23
 291 -10 291 -10 236 -10 c 0,0,1
303 370 m 0,24,25
 284 370 284 370 266.5 357 c 128,-1,26
 249 344 249 344 233 326 c 1,27,-1
 188 73 l 1,28,29
 197 35 197 35 229 35 c 0,30,31
 259 35 259 35 284 69.5 c 128,-1,32
 309 104 309 104 325 164 c 128,-1,33
 341 224 341 224 341 298 c 0,34,35
 341 328 341 328 332 349 c 128,-1,36
 323 370 323 370 303 370 c 0,24,25
EndSplineSet
Validated: 1
Substitution2: "'ss04' Style Set 4 lookup 72 subtable" blackdiamond
Substitution2: "'case' Case-Sensitive Forms lookup 61 subtable" B
Substitution2: "'smcp' Lowercase to Small Capitals lookup 60 subtable" b.sc
Substitution2: "'c2sc' Capitals to Small Capitals lookup 59 subtable" b.sc
Substitution2: "'sups' Superscript lookup 53 subtable" b.superior
AlternateSubs2: "'aalt' Access All Alternates lookup 1 subtable" b.superior b.sc B blackdiamond
EndChar

StartChar: c
Encoding: 99 99 310
Width: 459
GlyphClass: 2
Flags: W
AnchorPoint: "Anchor-3" 313 522 basechar 0
AnchorPoint: "Anchor-0" 200 0 basechar 0
LayerCount: 2
Fore
SplineSet
429 156 m 1,0,1
 406 116 406 116 373 77.5 c 128,-1,2
 340 39 340 39 297 14.5 c 128,-1,3
 254 -10 254 -10 201 -10 c 0,4,5
 109 -10 109 -10 67.5 38.5 c 128,-1,6
 26 87 26 87 26 174 c 0,7,8
 26 235 26 235 50 290.5 c 128,-1,9
 74 346 74 346 115 389 c 128,-1,10
 156 432 156 432 209 456.5 c 128,-1,11
 262 481 262 481 321 481 c 0,12,13
 366 481 366 481 395.5 465 c 128,-1,14
 425 449 425 449 440 426 c 128,-1,15
 455 403 455 403 455 384 c 0,16,17
 455 376 455 376 451 368 c 128,-1,18
 447 360 447 360 439 355 c 2,19,-1
 378 321 l 1,20,-1
 312 435 l 2,21,22
 308 435 308 435 304 435 c 0,23,24
 277 435 277 435 251.5 412 c 128,-1,25
 226 389 226 389 209.5 345.5 c 128,-1,26
 193 302 193 302 193 239 c 0,27,28
 193 182 193 182 222.5 153 c 128,-1,29
 252 124 252 124 290 124 c 0,30,31
 321 124 321 124 347 136 c 128,-1,32
 373 148 373 148 408 174 c 1,33,-1
 411 174 l 1,34,-1
 429 156 l 1,0,1
EndSplineSet
Validated: 1
Substitution2: "'ss04' Style Set 4 lookup 72 subtable" blackcircle
Substitution2: "'case' Case-Sensitive Forms lookup 61 subtable" C
Substitution2: "'smcp' Lowercase to Small Capitals lookup 60 subtable" c.sc
Substitution2: "'c2sc' Capitals to Small Capitals lookup 59 subtable" c.sc
Substitution2: "'sups' Superscript lookup 53 subtable" c.superior
AlternateSubs2: "'aalt' Access All Alternates lookup 1 subtable" c.superior c.sc C blackcircle
EndChar

StartChar: d
Encoding: 100 100 311
Width: 578
GlyphClass: 2
Flags: W
AnchorPoint: "Anchor-2" 699 758 basechar 0
AnchorPoint: "Anchor-0" 261 0 basechar 0
LayerCount: 2
Fore
SplineSet
129 -10 m 0,0,1
 86 -10 86 -10 58.5 23.5 c 128,-1,2
 31 57 31 57 31 118 c 0,3,4
 31 198 31 198 60.5 264.5 c 128,-1,5
 90 331 90 331 138 379.5 c 128,-1,6
 186 428 186 428 243.5 454.5 c 128,-1,7
 301 481 301 481 356 481 c 0,8,9
 359 481 359 481 362 481 c 2,10,-1
 396 678 l 1,11,-1
 316 711 l 1,12,-1
 316 727 l 1,13,-1
 575 768 l 1,14,-1
 579 768 l 1,15,-1
 468 134 l 2,16,17
 465 116 465 116 469.5 103.5 c 128,-1,18
 474 91 474 91 486 91 c 0,19,20
 500 91 500 91 515 107 c 128,-1,21
 530 123 530 123 549 164 c 1,22,-1
 571 157 l 1,23,24
 543 82 543 82 504.5 36 c 128,-1,25
 466 -10 466 -10 409 -10 c 0,26,27
 361 -10 361 -10 332.5 16.5 c 128,-1,28
 304 43 304 43 302 96 c 1,29,-1
 296 96 l 1,30,31
 264 56 264 56 238.5 33 c 128,-1,32
 213 10 213 10 187.5 0 c 128,-1,33
 162 -10 162 -10 129 -10 c 0,0,1
205 182 m 0,34,35
 205 139 205 139 212.5 120 c 128,-1,36
 220 101 220 101 237 101 c 0,37,38
 255 101 255 101 271.5 114.5 c 128,-1,39
 288 128 288 128 306 152 c 1,40,-1
 306 154 l 1,41,-1
 351 420 l 1,42,43
 336 431 336 431 315 431 c 0,44,45
 283 431 283 431 258 396 c 128,-1,46
 233 361 233 361 219 305 c 128,-1,47
 205 249 205 249 205 182 c 0,34,35
EndSplineSet
Validated: 1
Substitution2: "'ss04' Style Set 4 lookup 72 subtable" blacktriangle
Substitution2: "'case' Case-Sensitive Forms lookup 61 subtable" D
Substitution2: "'smcp' Lowercase to Small Capitals lookup 60 subtable" d.sc
Substitution2: "'c2sc' Capitals to Small Capitals lookup 59 subtable" d.sc
Substitution2: "'sups' Superscript lookup 53 subtable" d.superior
AlternateSubs2: "'aalt' Access All Alternates lookup 1 subtable" d.superior d.sc D blacktriangle
EndChar

StartChar: e
Encoding: 101 101 312
Width: 447
GlyphClass: 2
Flags: W
AnchorPoint: "Anchor-3" 328 522 basechar 0
AnchorPoint: "Anchor-2" 299 0 basechar 0
AnchorPoint: "Anchor-0" 199 0 basechar 0
LayerCount: 2
Fore
SplineSet
195 -10 m 0,0,1
 108 -10 108 -10 67 40 c 128,-1,2
 26 90 26 90 26 175 c 0,3,4
 26 230 26 230 48 284.5 c 128,-1,5
 70 339 70 339 110 383.5 c 128,-1,6
 150 428 150 428 205 454.5 c 128,-1,7
 260 481 260 481 327 481 c 0,8,9
 381 481 381 481 409 457 c 128,-1,10
 437 433 437 433 437 397 c 0,11,12
 437 369 437 369 416.5 346 c 128,-1,13
 396 323 396 323 343 299 c 128,-1,14
 290 275 290 275 193 250 c 1,15,16
 193 242 193 242 193 232 c 0,17,18
 193 183 193 183 222.5 153.5 c 128,-1,19
 252 124 252 124 290 124 c 0,20,21
 321 124 321 124 347 136 c 128,-1,22
 373 148 373 148 408 174 c 1,23,-1
 411 174 l 1,24,-1
 429 156 l 1,25,26
 406 115 406 115 372 77 c 128,-1,27
 338 39 338 39 293.5 14.5 c 128,-1,28
 249 -10 249 -10 195 -10 c 0,0,1
289 435 m 0,29,30
 262 435 262 435 234.5 395 c 128,-1,31
 207 355 207 355 197 290 c 1,32,33
 266 316 266 316 292.5 345.5 c 128,-1,34
 319 375 319 375 319 403 c 0,35,36
 319 414 319 414 313.5 424.5 c 128,-1,37
 308 435 308 435 289 435 c 0,29,30
EndSplineSet
Validated: 1
Substitution2: "'case' Case-Sensitive Forms lookup 61 subtable" E
Substitution2: "'smcp' Lowercase to Small Capitals lookup 60 subtable" e.sc
Substitution2: "'c2sc' Capitals to Small Capitals lookup 59 subtable" e.sc
Substitution2: "'sups' Superscript lookup 53 subtable" e.superior
AlternateSubs2: "'aalt' Access All Alternates lookup 1 subtable" e.superior e.sc E
EndChar

StartChar: f
Encoding: 102 102 313
Width: 345
GlyphClass: 1
Flags: W
LayerCount: 2
Fore
SplineSet
41 426 m 1,0,-1
 41 471 l 1,1,-1
 118 471 l 1,2,-1
 123 502 l 2,3,4
 129 544 129 544 158 590 c 128,-1,5
 187 636 187 636 229 676.5 c 128,-1,6
 271 717 271 717 316.5 742.5 c 128,-1,7
 362 768 362 768 402 768 c 0,8,9
 441 768 441 768 465.5 754 c 128,-1,10
 490 740 490 740 490 720 c 0,11,12
 490 713 490 713 487 707 c 2,13,-1
 458 639 l 1,14,-1
 340 692 l 1,15,16
 328 680 328 680 319 653 c 128,-1,17
 310 626 310 626 302 573 c 2,18,-1
 285 471 l 1,19,-1
 380 471 l 1,20,-1
 380 426 l 1,21,-1
 278 426 l 1,22,-1
 205 -2 l 2,23,24
 199 -40 199 -40 170 -82 c 128,-1,25
 141 -124 141 -124 101 -161.5 c 128,-1,26
 61 -199 61 -199 19.5 -222.5 c 128,-1,27
 -22 -246 -22 -246 -54 -246 c 256,28,29
 -86 -246 -86 -246 -104.5 -232 c 128,-1,30
 -123 -218 -123 -218 -123 -202 c 0,31,32
 -123 -196 -123 -196 -120 -189 c 2,33,-1
 -93 -141 l 1,34,-1
 -6 -190 l 1,35,36
 5 -179 5 -179 13.5 -156 c 128,-1,37
 22 -133 22 -133 29 -87 c 2,38,-1
 111 426 l 1,39,-1
 41 426 l 1,0,-1
EndSplineSet
Validated: 1
Substitution2: "'case' Case-Sensitive Forms lookup 61 subtable" F
Substitution2: "'smcp' Lowercase to Small Capitals lookup 60 subtable" f.sc
Substitution2: "'c2sc' Capitals to Small Capitals lookup 59 subtable" f.sc
Substitution2: "'sups' Superscript lookup 53 subtable" f.superior
AlternateSubs2: "'aalt' Access All Alternates lookup 1 subtable" f.superior f.sc F
EndChar

StartChar: g
Encoding: 103 103 314
Width: 500
GlyphClass: 2
Flags: W
AnchorPoint: "Anchor-3" 308 522 basechar 0
LayerCount: 2
Fore
SplineSet
157 -246 m 0,0,1
 70 -246 70 -246 24 -218.5 c 128,-1,2
 -22 -191 -22 -191 -22 -146 c 0,3,4
 -22 -123 -22 -123 -14 -106.5 c 128,-1,5
 -6 -90 -6 -90 16 -65 c 1,6,-1
 75 -33 l 1,7,-1
 75 -30 l 1,8,9
 46 -19 46 -19 27 3 c 128,-1,10
 8 25 8 25 8 66 c 0,11,12
 8 96 8 96 20.5 119.5 c 128,-1,13
 33 143 33 143 54 163 c 1,14,-1
 119 197 l 1,15,-1
 119 204 l 1,16,17
 96 223 96 223 85.5 249 c 128,-1,18
 75 275 75 275 75 304 c 0,19,20
 75 350 75 350 102.5 390.5 c 128,-1,21
 130 431 130 431 177.5 456 c 128,-1,22
 225 481 225 481 286 481 c 0,23,24
 330 481 330 481 365 471 c 1,25,-1
 540 471 l 1,26,-1
 540 426 l 1,27,-1
 444 426 l 1,28,-1
 436 420 l 1,29,30
 453 403 453 403 462.5 382 c 128,-1,31
 472 361 472 361 472 337 c 0,32,33
 472 293 472 293 445 253 c 128,-1,34
 418 213 418 213 367.5 187.5 c 128,-1,35
 317 162 317 162 250 162 c 0,36,37
 219 162 219 162 194 167.5 c 128,-1,38
 169 173 169 173 150 183 c 1,39,40
 131 168 131 168 130 151 c 0,41,42
 130 126 130 126 152.5 114.5 c 128,-1,43
 175 103 175 103 210 97.5 c 128,-1,44
 245 92 245 92 285 85.5 c 128,-1,45
 325 79 325 79 359.5 65.5 c 128,-1,46
 394 52 394 52 416.5 25 c 128,-1,47
 439 -2 439 -2 439 -50 c 0,48,49
 439 -96 439 -96 406.5 -141 c 128,-1,50
 374 -186 374 -186 311 -216 c 128,-1,51
 248 -246 248 -246 157 -246 c 0,0,1
260 205 m 0,52,53
 279 205 279 205 294.5 226.5 c 128,-1,54
 310 248 310 248 319 283 c 128,-1,55
 328 318 328 318 328 358 c 0,56,57
 328 400 328 400 319 420.5 c 128,-1,58
 310 441 310 441 283 441 c 0,59,60
 264 441 264 441 248 419.5 c 128,-1,61
 232 398 232 398 223.5 363.5 c 128,-1,62
 215 329 215 329 215 287 c 0,63,64
 215 249 215 249 224 227 c 128,-1,65
 233 205 233 205 260 205 c 0,52,53
77 -128 m 0,66,67
 77 -160 77 -160 100.5 -185 c 128,-1,68
 124 -210 124 -210 173 -210 c 0,69,70
 227 -210 227 -210 257 -183 c 128,-1,71
 287 -156 287 -156 287 -123 c 0,72,73
 287 -96 287 -96 272 -82.5 c 128,-1,74
 257 -69 257 -69 233 -61.5 c 128,-1,75
 209 -54 209 -54 179.5 -50.5 c 128,-1,76
 150 -47 150 -47 121 -42 c 1,77,78
 95 -57 95 -57 86 -78.5 c 128,-1,79
 77 -100 77 -100 77 -128 c 0,66,67
EndSplineSet
Validated: 1
Substitution2: "'case' Case-Sensitive Forms lookup 61 subtable" G
Substitution2: "'smcp' Lowercase to Small Capitals lookup 60 subtable" g.sc
Substitution2: "'c2sc' Capitals to Small Capitals lookup 59 subtable" g.sc
Substitution2: "'sups' Superscript lookup 53 subtable" g.superior
AlternateSubs2: "'aalt' Access All Alternates lookup 1 subtable" g.superior g.sc G
EndChar

StartChar: h
Encoding: 104 104 315
Width: 587
GlyphClass: 2
Flags: W
AnchorPoint: "Anchor-3" 379 783 basechar 0
AnchorPoint: "Anchor-0" 243 0 basechar 0
LayerCount: 2
Fore
SplineSet
187 0 m 5,0,-1
 20 0 l 5,1,-1
 138 677 l 5,2,-1
 68 711 l 5,3,-1
 68 727 l 5,4,-1
 317 768 l 5,5,-1
 321 768 l 5,6,-1
 255 390 l 5,7,-1
 261 390 l 5,8,9
 292 424 292 424 314.5 444 c 132,-1,10
 337 464 337 464 359.5 472.5 c 132,-1,11
 382 481 382 481 413 481 c 4,12,13
 468 481 468 481 497 440 c 4,14,15
 518 411 518 411 518 368 c 4,16,17
 518 350 518 350 514 330 c 6,18,-1
 480 134 l 6,19,20
 477 116 477 116 481.5 103.5 c 132,-1,21
 486 91 486 91 499 91 c 4,22,23
 513 91 513 91 528 107 c 132,-1,24
 543 123 543 123 561 164 c 5,25,-1
 584 157 l 5,26,27
 556 82 556 82 517 36 c 132,-1,28
 478 -10 478 -10 421 -10 c 4,29,30
 362 -10 362 -10 333 31 c 4,31,32
 313 59 313 59 313 105 c 4,33,34
 313 127 313 127 318 154 c 6,35,-1
 348 325 l 6,36,37
 350 334 350 334 350 342 c 4,38,39
 350 355 350 355 346 364 c 4,40,41
 340 380 340 380 315 380 c 4,42,43
 297 380 297 380 279.5 368 c 132,-1,44
 262 356 262 356 246 339 c 5,45,-1
 187 0 l 5,0,-1
EndSplineSet
Validated: 1
Substitution2: "'case' Case-Sensitive Forms lookup 61 subtable" H
Substitution2: "'smcp' Lowercase to Small Capitals lookup 60 subtable" h.sc
Substitution2: "'c2sc' Capitals to Small Capitals lookup 59 subtable" h.sc
Substitution2: "'sups' Superscript lookup 53 subtable" h.superior
AlternateSubs2: "'aalt' Access All Alternates lookup 1 subtable" h.superior h.sc H
EndChar

StartChar: i
Encoding: 105 105 316
Width: 317
GlyphClass: 2
Flags: W
AnchorPoint: "Anchor-3" 198 522 basechar 0
AnchorPoint: "Anchor-2" 170 0 basechar 0
AnchorPoint: "Anchor-0" 140 0 basechar 0
LayerCount: 2
Fore
SplineSet
216 570 m 260,0,1
 181 570 181 570 158 592.5 c 132,-1,2
 135 615 135 615 135 650 c 4,3,4
 135 686 135 686 158 708.5 c 132,-1,5
 181 731 181 731 216 731 c 260,6,7
 251 731 251 731 273.5 708.5 c 132,-1,8
 296 686 296 686 296 650 c 4,9,10
 296 615 296 615 273.5 592.5 c 132,-1,11
 251 570 251 570 216 570 c 260,0,1
151 -10 m 4,12,13
 92 -10 92 -10 63 31 c 4,14,15
 43 59 43 59 43 105 c 4,16,17
 43 127 43 127 48 154 c 6,18,-1
 90 390 l 5,19,-1
 31 424 l 5,20,-1
 31 440 l 5,21,-1
 268 481 l 5,22,-1
 271 481 l 5,23,-1
 210 134 l 6,24,25
 207 116 207 116 211.5 103.5 c 132,-1,26
 216 91 216 91 228 91 c 4,27,28
 242 91 242 91 257 107 c 132,-1,29
 272 123 272 123 291 164 c 5,30,-1
 313 157 l 5,31,32
 285 82 285 82 246.5 36 c 132,-1,33
 208 -10 208 -10 151 -10 c 4,12,13
EndSplineSet
Validated: 1
Substitution2: "'case' Case-Sensitive Forms lookup 61 subtable" I
Substitution2: "'smcp' Lowercase to Small Capitals lookup 60 subtable" i.sc
Substitution2: "'c2sc' Capitals to Small Capitals lookup 59 subtable" i.sc
Substitution2: "'sups' Superscript lookup 53 subtable" i.superior
Substitution2: "'locl' Localized Forms in Latin lookup 15 subtable" idotaccent
Substitution2: "'locl' Localized Forms in Latin lookup 10 subtable" idotaccent
Substitution2: "'locl' Localized Forms in Latin lookup 6 subtable" idotaccent
Substitution2: "Single Substitution lookup 3 subtable" idotless
AlternateSubs2: "'aalt' Access All Alternates lookup 1 subtable" idotaccent i.superior i.sc I
EndChar

StartChar: j
Encoding: 106 106 317
Width: 302
GlyphClass: 2
Flags: W
AnchorPoint: "Anchor-3" 195 522 basechar 0
AnchorPoint: "Anchor-0" 54 -216 basechar 0
LayerCount: 2
Fore
SplineSet
212 570 m 256,0,1
 177 570 177 570 154 592.5 c 128,-1,2
 131 615 131 615 131 650 c 0,3,4
 131 686 131 686 154 708.5 c 128,-1,5
 177 731 177 731 212 731 c 256,6,7
 247 731 247 731 269.5 708.5 c 128,-1,8
 292 686 292 686 292 650 c 0,9,10
 292 615 292 615 269.5 592.5 c 128,-1,11
 247 570 247 570 212 570 c 256,0,1
-79 -236 m 1,12,-1
 -79 -215 l 1,13,14
 -51 -196 -51 -196 -33 -180.5 c 128,-1,15
 -15 -165 -15 -165 -4.5 -145 c 128,-1,16
 6 -125 6 -125 14 -93 c 128,-1,17
 22 -61 22 -61 29 -10 c 2,18,-1
 88 390 l 1,19,-1
 29 424 l 1,20,-1
 29 440 l 1,21,-1
 266 481 l 1,22,-1
 269 481 l 1,23,-1
 202 40 l 2,24,25
 188 -56 188 -56 122 -122 c 128,-1,26
 56 -188 56 -188 -79 -236 c 1,12,-1
EndSplineSet
Validated: 1
Substitution2: "'case' Case-Sensitive Forms lookup 61 subtable" J
Substitution2: "'smcp' Lowercase to Small Capitals lookup 60 subtable" j.sc
Substitution2: "'c2sc' Capitals to Small Capitals lookup 59 subtable" j.sc
Substitution2: "'sups' Superscript lookup 53 subtable" j.superior
Substitution2: "Single Substitution lookup 13 subtable" jacute
Substitution2: "Single Substitution lookup 3 subtable" jdotless
AlternateSubs2: "'aalt' Access All Alternates lookup 1 subtable" jacute j.superior j.sc J
EndChar

StartChar: k
Encoding: 107 107 318
Width: 562
GlyphClass: 2
Flags: W
AnchorPoint: "Anchor-0" 252 0 basechar 0
LayerCount: 2
Fore
SplineSet
20 0 m 1,0,-1
 138 677 l 1,1,-1
 68 711 l 1,2,-1
 68 727 l 1,3,-1
 317 768 l 1,4,-1
 321 768 l 1,5,-1
 236 281 l 1,6,7
 308 355 308 355 356 398.5 c 128,-1,8
 404 442 404 442 436.5 461.5 c 128,-1,9
 469 481 469 481 490 481 c 0,10,11
 514 481 514 481 526 471.5 c 128,-1,12
 538 462 538 462 538 452 c 0,13,14
 538 448 538 448 532 434 c 2,15,-1
 502 357 l 1,16,-1
 426 385 l 1,17,18
 417 382 417 382 408 376 c 2,19,-1
 354 343 l 1,20,-1
 441 138 l 2,21,22
 449 119 449 119 458 105 c 128,-1,23
 467 91 467 91 480 91 c 0,24,25
 494 91 494 91 505.5 106 c 128,-1,26
 517 121 517 121 526 161 c 1,27,-1
 549 156 l 1,28,29
 532 67 532 67 497 28.5 c 128,-1,30
 462 -10 462 -10 411 -10 c 0,31,32
 361 -10 361 -10 335.5 17.5 c 128,-1,33
 310 45 310 45 296 85 c 2,34,-1
 232 260 l 1,35,-1
 187 0 l 1,36,-1
 20 0 l 1,0,-1
EndSplineSet
Validated: 1
Substitution2: "'case' Case-Sensitive Forms lookup 61 subtable" K
Substitution2: "'smcp' Lowercase to Small Capitals lookup 60 subtable" k.sc
Substitution2: "'c2sc' Capitals to Small Capitals lookup 59 subtable" k.sc
Substitution2: "'sups' Superscript lookup 53 subtable" k.superior
AlternateSubs2: "'aalt' Access All Alternates lookup 1 subtable" k.superior k.sc K
EndChar

StartChar: l
Encoding: 108 108 319
Width: 315
GlyphClass: 2
Flags: W
AnchorPoint: "Anchor-3" 242 783 basechar 0
AnchorPoint: "Anchor-2" 441 758 basechar 0
AnchorPoint: "Anchor-1" 367 307 basechar 0
AnchorPoint: "Anchor-0" 140 0 basechar 0
LayerCount: 2
Fore
SplineSet
148 -10 m 4,0,1
 88 -10 88 -10 60 31 c 4,2,3
 41 58 41 58 41 104 c 4,4,5
 41 127 41 127 46 154 c 6,6,-1
 138 677 l 5,7,-1
 68 711 l 5,8,-1
 68 727 l 5,9,-1
 317 768 l 5,10,-1
 321 768 l 5,11,-1
 208 134 l 6,12,13
 205 116 205 116 209.5 103.5 c 132,-1,14
 214 91 214 91 226 91 c 4,15,16
 240 91 240 91 255 107 c 132,-1,17
 270 123 270 123 289 164 c 5,18,-1
 311 157 l 5,19,20
 283 82 283 82 244 36 c 132,-1,21
 205 -10 205 -10 148 -10 c 4,0,1
EndSplineSet
Validated: 1
Substitution2: "'case' Case-Sensitive Forms lookup 61 subtable" L
Substitution2: "'smcp' Lowercase to Small Capitals lookup 60 subtable" l.sc
Substitution2: "'c2sc' Capitals to Small Capitals lookup 59 subtable" l.sc
Substitution2: "'sups' Superscript lookup 53 subtable" l.superior
AlternateSubs2: "'aalt' Access All Alternates lookup 1 subtable" l.superior l.sc L
EndChar

StartChar: m
Encoding: 109 109 320
Width: 862
GlyphClass: 2
Flags: W
AnchorPoint: "Anchor-0" 381 0 basechar 0
LayerCount: 2
Fore
SplineSet
31 0 m 5,0,-1
 98 390 l 5,1,-1
 39 424 l 5,2,-1
 39 440 l 5,3,-1
 256 481 l 5,4,-1
 259 481 l 5,5,-1
 259 385 l 5,6,-1
 266 385 l 5,7,8
 298 421 298 421 320.5 442 c 132,-1,9
 343 463 343 463 365.5 472 c 132,-1,10
 388 481 388 481 420 481 c 4,11,12
 464 481 464 481 491.5 455.5 c 132,-1,13
 519 430 519 430 523 385 c 5,14,-1
 530 385 l 5,15,16
 562 421 562 421 585.5 442 c 132,-1,17
 609 463 609 463 632 472 c 132,-1,18
 655 481 655 481 687 481 c 4,19,20
 742 481 742 481 772 440 c 4,21,22
 792 412 792 412 792 370 c 4,23,24
 792 352 792 352 788 330 c 6,25,-1
 755 134 l 6,26,27
 752 116 752 116 756.5 103.5 c 132,-1,28
 761 91 761 91 773 91 c 4,29,30
 787 91 787 91 802 107 c 132,-1,31
 817 123 817 123 836 164 c 5,32,-1
 858 157 l 5,33,34
 830 82 830 82 791.5 36 c 132,-1,35
 753 -10 753 -10 695 -10 c 4,36,37
 636 -10 636 -10 608 31 c 4,38,39
 589 58 589 58 588 104 c 4,40,41
 588 127 588 127 593 154 c 6,42,-1
 623 325 l 6,43,44
 624 333 624 333 624 341 c 4,45,46
 624 354 624 354 620 364 c 4,47,48
 613 380 613 380 590 380 c 4,49,50
 573 380 573 380 556 369 c 132,-1,51
 539 358 539 358 523 342 c 4,52,53
 522 336 522 336 521 330 c 6,54,-1
 465 0 l 5,55,-1
 297 0 l 5,56,-1
 356 325 l 6,57,58
 358 334 358 334 358 342 c 4,59,60
 358 355 358 355 354 364 c 4,61,62
 348 380 348 380 323 380 c 4,63,64
 304 380 304 380 287 367.5 c 132,-1,65
 270 355 270 355 254 337 c 5,66,-1
 198 0 l 5,67,-1
 31 0 l 5,0,-1
EndSplineSet
Validated: 1
Substitution2: "'case' Case-Sensitive Forms lookup 61 subtable" M
Substitution2: "'smcp' Lowercase to Small Capitals lookup 60 subtable" m.sc
Substitution2: "'c2sc' Capitals to Small Capitals lookup 59 subtable" m.sc
Substitution2: "'sups' Superscript lookup 53 subtable" m.superior
AlternateSubs2: "'aalt' Access All Alternates lookup 1 subtable" m.superior m.sc M
EndChar

StartChar: n
Encoding: 110 110 321
Width: 598
GlyphClass: 2
Flags: W
AnchorPoint: "Anchor-3" 338 522 basechar 0
AnchorPoint: "Anchor-0" 294 0 basechar 0
LayerCount: 2
Fore
SplineSet
31 0 m 5,0,-1
 98 390 l 5,1,-1
 39 424 l 5,2,-1
 39 440 l 5,3,-1
 256 481 l 5,4,-1
 259 481 l 5,5,-1
 259 385 l 5,6,-1
 266 385 l 5,7,8
 298 421 298 421 321.5 442 c 132,-1,9
 345 463 345 463 368 472 c 132,-1,10
 391 481 391 481 423 481 c 4,11,12
 478 481 478 481 508 440 c 4,13,14
 528 412 528 412 528 370 c 4,15,16
 528 352 528 352 524 330 c 6,17,-1
 490 134 l 6,18,19
 487 116 487 116 492 103.5 c 132,-1,20
 497 91 497 91 509 91 c 4,21,22
 523 91 523 91 538 107 c 132,-1,23
 553 123 553 123 571 164 c 5,24,-1
 594 157 l 5,25,26
 566 82 566 82 527 36 c 132,-1,27
 488 -10 488 -10 431 -10 c 4,28,29
 372 -10 372 -10 343 31 c 4,30,31
 324 58 324 58 324 103 c 4,32,33
 324 126 324 126 329 154 c 6,34,-1
 358 325 l 6,35,36
 360 334 360 334 360 342 c 4,37,38
 360 355 360 355 356 364 c 4,39,40
 350 380 350 380 326 380 c 4,41,42
 307 380 307 380 288.5 367 c 132,-1,43
 270 354 270 354 254 337 c 5,44,-1
 198 0 l 5,45,-1
 31 0 l 5,0,-1
EndSplineSet
Validated: 1
Substitution2: "'case' Case-Sensitive Forms lookup 61 subtable" N
Substitution2: "'smcp' Lowercase to Small Capitals lookup 60 subtable" n.sc
Substitution2: "'c2sc' Capitals to Small Capitals lookup 59 subtable" n.sc
Substitution2: "'sups' Superscript lookup 53 subtable" n.superior
AlternateSubs2: "'aalt' Access All Alternates lookup 1 subtable" n.superior n.sc N
EndChar

StartChar: o
Encoding: 111 111 322
Width: 518
GlyphClass: 2
Flags: W
AnchorPoint: "Anchor-3" 310 522 basechar 0
AnchorPoint: "Anchor-2" 253 0 basechar 0
AnchorPoint: "Anchor-0" 219 0 basechar 0
LayerCount: 2
Fore
SplineSet
223 -10 m 0,0,1
 157 -10 157 -10 113.5 18.5 c 128,-1,2
 70 47 70 47 48 95 c 128,-1,3
 26 143 26 143 26 202 c 0,4,5
 26 256 26 256 46 306 c 128,-1,6
 66 356 66 356 100.5 395.5 c 128,-1,7
 135 435 135 435 181.5 458 c 128,-1,8
 228 481 228 481 282 481 c 0,9,10
 354 481 354 481 400 453 c 128,-1,11
 446 425 446 425 469.5 377 c 128,-1,12
 493 329 493 329 493 269 c 0,13,14
 493 217 493 217 474 167.5 c 128,-1,15
 455 118 455 118 419 78 c 128,-1,16
 383 38 383 38 333.5 14 c 128,-1,17
 284 -10 284 -10 223 -10 c 0,0,1
239 44 m 0,18,19
 264 44 264 44 284 81.5 c 128,-1,20
 304 119 304 119 316.5 179 c 128,-1,21
 329 239 329 239 329 306 c 0,22,23
 329 369 329 369 316.5 398.5 c 128,-1,24
 304 428 304 428 281 428 c 0,25,26
 256 428 256 428 235 391.5 c 128,-1,27
 214 355 214 355 201.5 297 c 128,-1,28
 189 239 189 239 189 170 c 0,29,30
 189 115 189 115 200.5 79.5 c 128,-1,31
 212 44 212 44 239 44 c 0,18,19
EndSplineSet
Validated: 1
Substitution2: "'case' Case-Sensitive Forms lookup 61 subtable" O
Substitution2: "'smcp' Lowercase to Small Capitals lookup 60 subtable" o.sc
Substitution2: "'c2sc' Capitals to Small Capitals lookup 59 subtable" o.sc
Substitution2: "'sups' Superscript lookup 53 subtable" o.superior
Substitution2: "Single Substitution lookup 21 subtable" ordmasculine
AlternateSubs2: "'aalt' Access All Alternates lookup 1 subtable" ordmasculine o.superior o.sc O
EndChar

StartChar: p
Encoding: 112 112 323
Width: 561
GlyphClass: 1
Flags: W
LayerCount: 2
Fore
SplineSet
-66 -236 m 1,0,-1
 -66 -219 l 1,1,-1
 -3 -186 l 1,2,-1
 98 390 l 1,3,-1
 39 424 l 1,4,-1
 39 440 l 1,5,-1
 256 481 l 1,6,-1
 259 481 l 1,7,-1
 259 381 l 1,8,-1
 267 381 l 1,9,10
 299 420 299 420 321 442 c 128,-1,11
 343 464 343 464 365 472.5 c 128,-1,12
 387 481 387 481 419 481 c 0,13,14
 468 481 468 481 499 440.5 c 128,-1,15
 530 400 530 400 530 329 c 256,16,17
 530 257 530 257 508 195.5 c 128,-1,18
 486 134 486 134 448.5 88 c 128,-1,19
 411 42 411 42 361 16 c 128,-1,20
 311 -10 311 -10 256 -10 c 0,21,22
 223 -10 223 -10 197 -4 c 1,23,-1
 165 -185 l 1,24,-1
 253 -219 l 1,25,-1
 253 -236 l 1,26,-1
 -66 -236 l 1,0,-1
324 370 m 0,27,28
 305 370 305 370 286 356.5 c 128,-1,29
 267 343 267 343 252 324 c 1,30,-1
 209 69 l 1,31,32
 220 35 220 35 250 35 c 256,33,34
 280 35 280 35 305.5 68.5 c 128,-1,35
 331 102 331 102 346 161.5 c 128,-1,36
 361 221 361 221 361 298 c 0,37,38
 361 328 361 328 352.5 349 c 128,-1,39
 344 370 344 370 324 370 c 0,27,28
EndSplineSet
Validated: 1
Substitution2: "'case' Case-Sensitive Forms lookup 61 subtable" P
Substitution2: "'smcp' Lowercase to Small Capitals lookup 60 subtable" p.sc
Substitution2: "'c2sc' Capitals to Small Capitals lookup 59 subtable" p.sc
Substitution2: "'sups' Superscript lookup 53 subtable" p.superior
AlternateSubs2: "'aalt' Access All Alternates lookup 1 subtable" p.superior p.sc P
EndChar

StartChar: q
Encoding: 113 113 324
Width: 558
GlyphClass: 1
Flags: W
LayerCount: 2
Fore
SplineSet
161 -236 m 1,0,-1
 161 -219 l 1,1,-1
 245 -186 l 1,2,-1
 292 82 l 1,3,-1
 284 82 l 1,4,5
 242 31 242 31 208 10.5 c 128,-1,6
 174 -10 174 -10 129 -10 c 0,7,8
 86 -10 86 -10 58.5 23.5 c 128,-1,9
 31 57 31 57 31 118 c 0,10,11
 31 198 31 198 60.5 264.5 c 128,-1,12
 90 331 90 331 138 379.5 c 128,-1,13
 186 428 186 428 243.5 454.5 c 128,-1,14
 301 481 301 481 356 481 c 0,15,16
 414 481 414 481 446 453 c 1,17,-1
 510 471 l 1,18,-1
 526 471 l 1,19,-1
 413 -187 l 1,20,-1
 479 -219 l 1,21,-1
 479 -236 l 1,22,-1
 161 -236 l 1,0,-1
205 182 m 0,23,24
 205 139 205 139 212.5 120 c 128,-1,25
 220 101 220 101 237 101 c 256,26,27
 254 101 254 101 270.5 114 c 128,-1,28
 287 127 287 127 304 150 c 1,29,-1
 351 420 l 1,30,31
 336 431 336 431 314 431 c 0,32,33
 281 431 281 431 256.5 398 c 128,-1,34
 232 365 232 365 218.5 308 c 128,-1,35
 205 251 205 251 205 182 c 0,23,24
EndSplineSet
Validated: 1
Substitution2: "'case' Case-Sensitive Forms lookup 61 subtable" Q
Substitution2: "'smcp' Lowercase to Small Capitals lookup 60 subtable" q.sc
Substitution2: "'c2sc' Capitals to Small Capitals lookup 59 subtable" q.sc
Substitution2: "'sups' Superscript lookup 53 subtable" q.superior
AlternateSubs2: "'aalt' Access All Alternates lookup 1 subtable" q.superior q.sc Q
EndChar

StartChar: r
Encoding: 114 114 325
Width: 415
GlyphClass: 2
Flags: W
AnchorPoint: "Anchor-3" 297 522 basechar 0
AnchorPoint: "Anchor-0" 116 0 basechar 0
LayerCount: 2
Fore
SplineSet
31 0 m 1,0,-1
 98 390 l 1,1,-1
 39 424 l 1,2,-1
 39 440 l 1,3,-1
 256 481 l 1,4,-1
 259 481 l 1,5,-1
 259 383 l 1,6,-1
 267 383 l 1,7,8
 299 425 299 425 319 446 c 128,-1,9
 339 467 339 467 354.5 474 c 128,-1,10
 370 481 370 481 388 481 c 0,11,12
 414 481 414 481 430.5 469 c 128,-1,13
 447 457 447 457 447 442 c 0,14,15
 447 433 447 433 442 422 c 2,16,-1
 399 335 l 1,17,-1
 329 376 l 1,18,19
 285 366 285 366 255 336 c 1,20,-1
 198 0 l 1,21,-1
 31 0 l 1,0,-1
EndSplineSet
Validated: 1
Substitution2: "'case' Case-Sensitive Forms lookup 61 subtable" R
Substitution2: "'smcp' Lowercase to Small Capitals lookup 60 subtable" r.sc
Substitution2: "'c2sc' Capitals to Small Capitals lookup 59 subtable" r.sc
Substitution2: "'sups' Superscript lookup 53 subtable" r.superior
AlternateSubs2: "'aalt' Access All Alternates lookup 1 subtable" r.superior r.sc R
EndChar

StartChar: s
Encoding: 115 115 326
Width: 408
GlyphClass: 2
Flags: W
AnchorPoint: "Anchor-3" 262 522 basechar 0
AnchorPoint: "Anchor-0" 159 0 basechar 0
LayerCount: 2
Fore
SplineSet
361 183 m 0,0,1
 361 134 361 134 335 89.5 c 128,-1,2
 309 45 309 45 261.5 17.5 c 128,-1,3
 214 -10 214 -10 147 -10 c 0,4,5
 89 -10 89 -10 56.5 14.5 c 128,-1,6
 24 39 24 39 24 61 c 0,7,8
 24 70 24 70 27.5 77 c 128,-1,9
 31 84 31 84 36 89 c 2,10,-1
 73 126 l 1,11,-1
 157 47 l 1,12,13
 166 46 166 46 175 46 c 0,14,15
 207 46 207 46 226 59 c 128,-1,16
 245 72 245 72 245 91 c 0,17,18
 245 107 245 107 237.5 119 c 128,-1,19
 230 131 230 131 209.5 145.5 c 128,-1,20
 189 160 189 160 147 182 c 0,21,22
 118 198 118 198 98 214 c 128,-1,23
 78 230 78 230 67 253 c 128,-1,24
 56 276 56 276 56 314 c 0,25,26
 56 343 56 343 74.5 372 c 128,-1,27
 93 401 93 401 125 426 c 128,-1,28
 157 451 157 451 196.5 466 c 128,-1,29
 236 481 236 481 276 481 c 0,30,31
 311 481 311 481 332.5 469 c 128,-1,32
 354 457 354 457 364.5 440.5 c 128,-1,33
 375 424 375 424 375 412 c 0,34,35
 375 405 375 405 372.5 400 c 128,-1,36
 370 395 370 395 361 388 c 2,37,-1
 315 350 l 1,38,-1
 239 432 l 1,39,40
 210 428 210 428 197.5 413.5 c 128,-1,41
 185 399 185 399 185 382 c 256,42,43
 185 365 185 365 199.5 349 c 128,-1,44
 214 333 214 333 264 306 c 0,45,46
 303 287 303 287 332 260 c 128,-1,47
 361 233 361 233 361 183 c 0,0,1
EndSplineSet
Validated: 1
Substitution2: "Single Substitution lookup 65 subtable" longs
Substitution2: "'case' Case-Sensitive Forms lookup 61 subtable" S
Substitution2: "'smcp' Lowercase to Small Capitals lookup 60 subtable" s.sc
Substitution2: "'c2sc' Capitals to Small Capitals lookup 59 subtable" s.sc
Substitution2: "'sups' Superscript lookup 53 subtable" s.superior
AlternateSubs2: "'aalt' Access All Alternates lookup 1 subtable" s.superior s.sc S longs
EndChar

StartChar: t
Encoding: 116 116 327
Width: 372
GlyphClass: 2
Flags: W
AnchorPoint: "Anchor-3" 251 625 basechar 0
AnchorPoint: "Anchor-2" 440 758 basechar 0
AnchorPoint: "Anchor-0" 150 0 basechar 0
LayerCount: 2
Fore
SplineSet
165 -10 m 0,0,1
 106 -10 106 -10 73 23.5 c 128,-1,2
 40 57 40 57 40 123 c 0,3,4
 40 135 40 135 41.5 149 c 128,-1,5
 43 163 43 163 45 177 c 2,6,-1
 88 426 l 1,7,-1
 29 426 l 1,8,-1
 33 445 l 1,9,-1
 157 504 l 1,10,-1
 254 577 l 1,11,-1
 281 577 l 1,12,-1
 262 471 l 1,13,-1
 384 471 l 1,14,-1
 384 426 l 1,15,-1
 254 426 l 1,16,-1
 214 201 l 2,17,18
 211 182 211 182 210 173 c 128,-1,19
 209 164 209 164 209 158 c 0,20,21
 209 112 209 112 249 112 c 0,22,23
 273 112 273 112 294 131 c 128,-1,24
 315 150 315 150 335 200 c 1,25,-1
 358 193 l 1,26,27
 329 102 329 102 281 46 c 128,-1,28
 233 -10 233 -10 165 -10 c 0,0,1
EndSplineSet
Validated: 1
Substitution2: "'case' Case-Sensitive Forms lookup 61 subtable" T
Substitution2: "'smcp' Lowercase to Small Capitals lookup 60 subtable" t.sc
Substitution2: "'c2sc' Capitals to Small Capitals lookup 59 subtable" t.sc
Substitution2: "'sups' Superscript lookup 53 subtable" t.superior
AlternateSubs2: "'aalt' Access All Alternates lookup 1 subtable" t.superior t.sc T
EndChar

StartChar: u
Encoding: 117 117 328
Width: 585
GlyphClass: 2
Flags: W
AnchorPoint: "Anchor-3" 334 522 basechar 0
AnchorPoint: "Anchor-2" 472 0 basechar 0
AnchorPoint: "Anchor-0" 244 0 basechar 0
LayerCount: 2
Fore
SplineSet
152 -10 m 0,0,1
 105 -10 105 -10 76 20.5 c 128,-1,2
 47 51 47 51 47 104 c 0,3,4
 47 121 47 121 50 141 c 2,5,-1
 93 390 l 1,6,-1
 34 424 l 1,7,-1
 34 440 l 1,8,-1
 272 481 l 1,9,-1
 275 481 l 1,10,-1
 219 165 l 2,11,12
 215 143 215 143 215 130 c 0,13,14
 215 114 215 114 222.5 102.5 c 128,-1,15
 230 91 230 91 249 91 c 0,16,17
 266 91 266 91 282 101 c 128,-1,18
 298 111 298 111 312 126 c 1,19,20
 314 139 314 139 316 154 c 2,21,-1
 357 390 l 1,22,-1
 309 424 l 1,23,-1
 309 440 l 1,24,-1
 537 481 l 1,25,-1
 540 481 l 1,26,-1
 478 134 l 2,27,28
 475 116 475 116 479.5 103.5 c 128,-1,29
 484 91 484 91 497 91 c 0,30,31
 511 91 511 91 526 107 c 128,-1,32
 541 123 541 123 559 164 c 1,33,-1
 582 157 l 1,34,35
 554 82 554 82 515 36 c 128,-1,36
 476 -10 476 -10 419 -10 c 0,37,38
 374 -10 374 -10 345.5 13.5 c 128,-1,39
 317 37 317 37 312 84 c 1,40,-1
 306 84 l 1,41,42
 275 49 275 49 251.5 28.5 c 128,-1,43
 228 8 228 8 206 -1 c 128,-1,44
 184 -10 184 -10 152 -10 c 0,0,1
EndSplineSet
Validated: 1
Substitution2: "'case' Case-Sensitive Forms lookup 61 subtable" U
Substitution2: "'smcp' Lowercase to Small Capitals lookup 60 subtable" u.sc
Substitution2: "'c2sc' Capitals to Small Capitals lookup 59 subtable" u.sc
Substitution2: "'sups' Superscript lookup 53 subtable" u.superior
AlternateSubs2: "'aalt' Access All Alternates lookup 1 subtable" u.superior u.sc U
EndChar

StartChar: v
Encoding: 118 118 329
Width: 480
GlyphClass: 1
Flags: W
LayerCount: 2
Fore
SplineSet
178 0 m 1,0,-1
 65 398 l 1,1,-1
 5 424 l 1,2,-1
 5 440 l 1,3,-1
 215 481 l 1,4,-1
 218 481 l 1,5,-1
 306 171 l 1,6,-1
 313 171 l 1,7,-1
 331 197 l 2,8,9
 355 232 355 232 369 267 c 128,-1,10
 383 302 383 302 389 336 c 1,11,-1
 324 392 l 1,12,-1
 364 453 l 2,13,14
 376 471 376 471 384 476 c 128,-1,15
 392 481 392 481 406 481 c 0,16,17
 424 481 424 481 440.5 468 c 128,-1,18
 457 455 457 455 467.5 434.5 c 128,-1,19
 478 414 478 414 478 391 c 0,20,21
 478 356 478 356 463.5 323.5 c 128,-1,22
 449 291 449 291 408 237 c 2,23,-1
 229 0 l 1,24,-1
 178 0 l 1,0,-1
EndSplineSet
Validated: 1
Substitution2: "'case' Case-Sensitive Forms lookup 61 subtable" V
Substitution2: "'smcp' Lowercase to Small Capitals lookup 60 subtable" v.sc
Substitution2: "'c2sc' Capitals to Small Capitals lookup 59 subtable" v.sc
Substitution2: "'sups' Superscript lookup 53 subtable" v.superior
AlternateSubs2: "'aalt' Access All Alternates lookup 1 subtable" v.superior v.sc V
EndChar

StartChar: w
Encoding: 119 119 330
Width: 702
GlyphClass: 2
Flags: W
AnchorPoint: "Anchor-3" 437 522 basechar 0
LayerCount: 2
Fore
SplineSet
158 0 m 1,0,-1
 63 398 l 1,1,-1
 5 424 l 1,2,-1
 5 440 l 1,3,-1
 215 481 l 1,4,-1
 218 481 l 1,5,-1
 279 212 l 1,6,-1
 285 212 l 1,7,-1
 412 471 l 1,8,-1
 463 471 l 1,9,-1
 548 195 l 1,10,-1
 556 195 l 1,11,-1
 570 223 l 2,12,13
 585 253 585 253 595.5 280 c 128,-1,14
 606 307 606 307 612 335 c 1,15,-1
 546 392 l 1,16,-1
 586 453 l 2,17,18
 598 471 598 471 606 476 c 128,-1,19
 614 481 614 481 628 481 c 0,20,21
 646 481 646 481 662.5 468 c 128,-1,22
 679 455 679 455 689.5 434.5 c 128,-1,23
 700 414 700 414 700 391 c 0,24,25
 700 373 700 373 695.5 356.5 c 128,-1,26
 691 340 691 340 676.5 313.5 c 128,-1,27
 662 287 662 287 630 237 c 2,28,-1
 481 0 l 1,29,-1
 430 0 l 1,30,-1
 353 251 l 1,31,-1
 209 0 l 1,32,-1
 158 0 l 1,0,-1
EndSplineSet
Validated: 1
Substitution2: "'case' Case-Sensitive Forms lookup 61 subtable" W
Substitution2: "'smcp' Lowercase to Small Capitals lookup 60 subtable" w.sc
Substitution2: "'c2sc' Capitals to Small Capitals lookup 59 subtable" w.sc
Substitution2: "'sups' Superscript lookup 53 subtable" w.superior
AlternateSubs2: "'aalt' Access All Alternates lookup 1 subtable" w.superior w.sc W
EndChar

StartChar: x
Encoding: 120 120 331
Width: 520
GlyphClass: 1
Flags: W
LayerCount: 2
Fore
SplineSet
-20 0 m 1,0,1
 -19 12 -19 12 -9.5 25 c 128,-1,2
 0 38 0 38 22 60 c 128,-1,3
 44 82 44 82 82.5 120 c 128,-1,4
 121 158 121 158 180 219 c 1,5,-1
 110 396 l 1,6,-1
 47 424 l 1,7,-1
 47 440 l 1,8,-1
 257 481 l 1,9,-1
 260 481 l 1,10,-1
 328 308 l 1,11,12
 362 351 362 351 380 379 c 128,-1,13
 398 407 398 407 406.5 423 c 128,-1,14
 415 439 415 439 418.5 450 c 128,-1,15
 422 461 422 461 427 471 c 1,16,-1
 517 471 l 1,17,18
 516 460 516 460 508.5 448 c 128,-1,19
 501 436 501 436 482 416.5 c 128,-1,20
 463 397 463 397 429 363 c 128,-1,21
 395 329 395 329 342 272 c 1,22,-1
 419 76 l 1,23,-1
 484 47 l 1,24,-1
 484 31 l 1,25,-1
 274 -10 l 1,26,-1
 271 -10 l 1,27,-1
 195 182 l 1,28,29
 155 132 155 132 133 102 c 128,-1,30
 111 72 111 72 100.5 53.5 c 128,-1,31
 90 35 90 35 85.5 23 c 128,-1,32
 81 11 81 11 75 0 c 1,33,-1
 -20 0 l 1,0,1
EndSplineSet
Validated: 1
Substitution2: "'case' Case-Sensitive Forms lookup 61 subtable" X
Substitution2: "'smcp' Lowercase to Small Capitals lookup 60 subtable" x.sc
Substitution2: "'c2sc' Capitals to Small Capitals lookup 59 subtable" x.sc
Substitution2: "'sups' Superscript lookup 53 subtable" x.superior
AlternateSubs2: "'aalt' Access All Alternates lookup 1 subtable" x.superior x.sc X
EndChar

StartChar: y
Encoding: 121 121 332
Width: 488
GlyphClass: 2
Flags: W
AnchorPoint: "Anchor-3" 322 522 basechar 0
AnchorPoint: "Anchor-0" 321 -10 basechar 0
LayerCount: 2
Fore
SplineSet
343 196 m 2,0,1
 386 261 386 261 398 335 c 1,2,-1
 332 392 l 1,3,-1
 372 453 l 2,4,5
 384 471 384 471 392 476 c 128,-1,6
 400 481 400 481 414 481 c 0,7,8
 432 481 432 481 448.5 468 c 128,-1,9
 465 455 465 455 475.5 434.5 c 128,-1,10
 486 414 486 414 486 391 c 0,11,12
 486 371 486 371 480.5 352.5 c 128,-1,13
 475 334 475 334 460 307.5 c 128,-1,14
 445 281 445 281 416 237 c 2,15,-1
 179 -120 l 2,16,17
 135 -188 135 -188 97.5 -216.5 c 128,-1,18
 60 -245 60 -245 24 -245 c 0,19,20
 -2 -245 -2 -245 -18 -230.5 c 128,-1,21
 -34 -216 -34 -216 -34 -187 c 0,22,23
 -34 -170 -34 -170 -25.5 -149.5 c 128,-1,24
 -17 -129 -17 -129 -1 -110 c 1,25,-1
 101 -132 l 1,26,27
 127 -117 127 -117 145.5 -96 c 128,-1,28
 164 -75 164 -75 194 -31 c 1,29,-1
 70 397 l 1,30,-1
 10 424 l 1,31,-1
 10 440 l 1,32,-1
 214 481 l 1,33,-1
 217 481 l 1,34,-1
 311 159 l 1,35,-1
 318 159 l 1,36,-1
 343 196 l 2,0,1
EndSplineSet
Validated: 1
Substitution2: "'case' Case-Sensitive Forms lookup 61 subtable" Y
Substitution2: "'smcp' Lowercase to Small Capitals lookup 60 subtable" y.sc
Substitution2: "'c2sc' Capitals to Small Capitals lookup 59 subtable" y.sc
Substitution2: "'sups' Superscript lookup 53 subtable" y.superior
AlternateSubs2: "'aalt' Access All Alternates lookup 1 subtable" y.superior y.sc Y
EndChar

StartChar: z
Encoding: 122 122 333
Width: 479
GlyphClass: 2
Flags: W
AnchorPoint: "Anchor-3" 276 522 basechar 0
AnchorPoint: "Anchor-0" 185 0 basechar 0
LayerCount: 2
Fore
SplineSet
15 0 m 1,0,-1
 3 20 l 1,1,-1
 284 337 l 1,2,-1
 108 337 l 1,3,-1
 71 263 l 1,4,-1
 54 263 l 1,5,-1
 88 471 l 1,6,-1
 436 471 l 1,7,-1
 442 447 l 1,8,-1
 160 134 l 1,9,-1
 349 134 l 1,10,-1
 407 220 l 1,11,-1
 423 220 l 1,12,-1
 381 0 l 1,13,-1
 15 0 l 1,0,-1
EndSplineSet
Validated: 1
Substitution2: "'case' Case-Sensitive Forms lookup 61 subtable" Z
Substitution2: "'smcp' Lowercase to Small Capitals lookup 60 subtable" z.sc
Substitution2: "'c2sc' Capitals to Small Capitals lookup 59 subtable" z.sc
Substitution2: "'sups' Superscript lookup 53 subtable" z.superior
AlternateSubs2: "'aalt' Access All Alternates lookup 1 subtable" z.superior z.sc Z
EndChar

StartChar: aogonek
Encoding: 261 261 344
Width: 575
GlyphClass: 1
Flags: W
LayerCount: 2
Fore
SplineSet
129 -10 m 0,0,1
 86 -10 86 -10 58.5 23.5 c 128,-1,2
 31 57 31 57 31 118 c 0,3,4
 31 198 31 198 60.5 264.5 c 128,-1,5
 90 331 90 331 138 379.5 c 128,-1,6
 186 428 186 428 243.5 454.5 c 128,-1,7
 301 481 301 481 356 481 c 0,8,9
 414 481 414 481 446 453 c 1,10,-1
 510 471 l 1,11,-1
 526 471 l 1,12,-1
 468 134 l 2,13,14
 465 116 465 116 469.5 103.5 c 128,-1,15
 474 91 474 91 486 91 c 0,16,17
 500 91 500 91 515 107 c 128,-1,18
 530 123 530 123 549 164 c 1,19,-1
 571 157 l 1,20,21
 557 117 557 117 535 84.5 c 128,-1,22
 513 52 513 52 493 28 c 0,23,24
 468 -7 468 -7 450 -49 c 128,-1,25
 432 -91 432 -91 432 -133 c 0,26,27
 432 -187 432 -187 486 -187 c 0,28,29
 497 -187 497 -187 509.5 -182.5 c 128,-1,30
 522 -178 522 -178 529 -171 c 1,31,-1
 534 -171 l 1,32,-1
 527 -194 l 1,33,34
 512 -218 512 -218 488 -232 c 128,-1,35
 464 -246 464 -246 430 -246 c 0,36,37
 386 -246 386 -246 361.5 -224 c 128,-1,38
 337 -202 337 -202 337 -164 c 0,39,40
 337 -120 337 -120 363 -82.5 c 128,-1,41
 389 -45 389 -45 428 -8 c 1,42,43
 419 -10 419 -10 409 -10 c 0,44,45
 359 -10 359 -10 330.5 18 c 128,-1,46
 302 46 302 46 302 104 c 1,47,48
 268 61 268 61 241.5 36 c 128,-1,49
 215 11 215 11 188.5 0.5 c 128,-1,50
 162 -10 162 -10 129 -10 c 0,0,1
205 182 m 0,51,52
 205 139 205 139 212.5 120 c 128,-1,53
 220 101 220 101 237 101 c 0,54,55
 255 101 255 101 271.5 114.5 c 128,-1,56
 288 128 288 128 306 152 c 1,57,-1
 306 154 l 1,58,-1
 351 420 l 1,59,60
 336 430 336 430 315 430 c 0,61,62
 283 430 283 430 258 395.5 c 128,-1,63
 233 361 233 361 219 305 c 128,-1,64
 205 249 205 249 205 182 c 0,51,52
EndSplineSet
Validated: 1
Substitution2: "'case' Case-Sensitive Forms lookup 61 subtable" Aogonek
Substitution2: "'smcp' Lowercase to Small Capitals lookup 60 subtable" aogonek.sc
Substitution2: "'c2sc' Capitals to Small Capitals lookup 59 subtable" aogonek.sc
AlternateSubs2: "'aalt' Access All Alternates lookup 1 subtable" aogonek.sc Aogonek
EndChar

StartChar: ae
Encoding: 230 230 358
Width: 735
GlyphClass: 2
Flags: W
AnchorPoint: "Anchor-3" 463 522 basechar 0
LayerCount: 2
Fore
SplineSet
129 -10 m 0,0,1
 86 -10 86 -10 58.5 23.5 c 128,-1,2
 31 57 31 57 31 118 c 0,3,4
 31 198 31 198 60.5 264.5 c 128,-1,5
 90 331 90 331 138 379.5 c 128,-1,6
 186 428 186 428 243.5 454.5 c 128,-1,7
 301 481 301 481 356 481 c 0,8,9
 391 481 391 481 421.5 472 c 128,-1,10
 452 463 452 463 474 444 c 1,11,12
 505 461 505 461 540 471 c 128,-1,13
 575 481 575 481 614 481 c 0,14,15
 668 481 668 481 696.5 457 c 128,-1,16
 725 433 725 433 725 397 c 0,17,18
 725 369 725 369 704.5 346 c 128,-1,19
 684 323 684 323 631 299 c 128,-1,20
 578 275 578 275 480 250 c 1,21,22
 480 242 480 242 480 232 c 0,23,24
 480 183 480 183 510 153.5 c 128,-1,25
 540 124 540 124 578 124 c 0,26,27
 609 124 609 124 634.5 136 c 128,-1,28
 660 148 660 148 695 174 c 1,29,-1
 698 174 l 1,30,-1
 717 156 l 1,31,32
 694 115 694 115 660 77 c 128,-1,33
 626 39 626 39 581.5 14.5 c 128,-1,34
 537 -10 537 -10 482 -10 c 0,35,36
 410 -10 410 -10 370.5 23.5 c 128,-1,37
 331 57 331 57 318 117 c 1,38,-1
 312 117 l 1,39,40
 260 47 260 47 219.5 18.5 c 128,-1,41
 179 -10 179 -10 129 -10 c 0,0,1
577 435 m 0,42,43
 550 435 550 435 522.5 395 c 128,-1,44
 495 355 495 355 484 290 c 1,45,46
 553 316 553 316 580 345.5 c 128,-1,47
 607 375 607 375 607 403 c 0,48,49
 607 414 607 414 601.5 424.5 c 128,-1,50
 596 435 596 435 577 435 c 0,42,43
237 101 m 0,51,52
 257 101 257 101 275.5 118 c 128,-1,53
 294 135 294 135 313 162 c 0,54,55
 313 165 313 165 313 168 c 128,-1,56
 313 171 313 171 313 175 c 0,57,58
 313 232 313 232 336 288 c 128,-1,59
 359 344 359 344 401 388 c 1,60,61
 388 406 388 406 372 418 c 128,-1,62
 356 430 356 430 332 430 c 0,63,64
 289 430 289 430 260.5 395.5 c 128,-1,65
 232 361 232 361 218.5 305 c 128,-1,66
 205 249 205 249 205 182 c 0,67,68
 205 139 205 139 213 120 c 128,-1,69
 221 101 221 101 237 101 c 0,51,52
EndSplineSet
Validated: 1
Substitution2: "'case' Case-Sensitive Forms lookup 61 subtable" AE
Substitution2: "'smcp' Lowercase to Small Capitals lookup 60 subtable" ae.sc
Substitution2: "'c2sc' Capitals to Small Capitals lookup 59 subtable" ae.sc
AlternateSubs2: "'aalt' Access All Alternates lookup 1 subtable" ae.sc AE
EndChar

StartChar: ccedilla
Encoding: 231 231 364
Width: 459
GlyphClass: 1
Flags: W
LayerCount: 2
Fore
SplineSet
168 -246 m 0,0,1
 142 -246 142 -246 124 -240 c 128,-1,2
 106 -234 106 -234 93 -226 c 1,3,-1
 97 -204 l 1,4,-1
 101 -204 l 1,5,6
 110 -208 110 -208 124.5 -210.5 c 128,-1,7
 139 -213 139 -213 152 -213 c 0,8,9
 179 -213 179 -213 194 -201.5 c 128,-1,10
 209 -190 209 -190 209 -171 c 0,11,12
 209 -153 209 -153 190 -136.5 c 128,-1,13
 171 -120 171 -120 120 -110 c 1,14,-1
 179 -9 l 1,15,16
 98 -3 98 -3 62 44.5 c 128,-1,17
 26 92 26 92 26 174 c 0,18,19
 26 235 26 235 50 290.5 c 128,-1,20
 74 346 74 346 115 389 c 128,-1,21
 156 432 156 432 209 456.5 c 128,-1,22
 262 481 262 481 321 481 c 0,23,24
 366 481 366 481 395.5 465 c 128,-1,25
 425 449 425 449 440 426 c 128,-1,26
 455 403 455 403 455 384 c 0,27,28
 455 376 455 376 451 368 c 128,-1,29
 447 360 447 360 439 355 c 2,30,-1
 378 321 l 1,31,-1
 312 435 l 2,32,33
 308 435 308 435 304 435 c 0,34,35
 277 435 277 435 251.5 412 c 128,-1,36
 226 389 226 389 209.5 345.5 c 128,-1,37
 193 302 193 302 193 239 c 0,38,39
 193 182 193 182 222.5 153 c 128,-1,40
 252 124 252 124 290 124 c 0,41,42
 321 124 321 124 347 136 c 128,-1,43
 373 148 373 148 408 174 c 1,44,-1
 411 174 l 1,45,-1
 429 156 l 1,46,47
 407 117 407 117 376 80.5 c 128,-1,48
 345 44 345 44 304.5 19 c 128,-1,49
 264 -6 264 -6 215 -9 c 1,50,-1
 196 -44 l 1,51,52
 248 -56 248 -56 270 -82 c 128,-1,53
 292 -108 292 -108 292 -140 c 0,54,55
 292 -186 292 -186 257 -216 c 128,-1,56
 222 -246 222 -246 168 -246 c 0,0,1
EndSplineSet
Validated: 1
Substitution2: "'case' Case-Sensitive Forms lookup 61 subtable" Ccedilla
Substitution2: "'smcp' Lowercase to Small Capitals lookup 60 subtable" ccedilla.sc
Substitution2: "'c2sc' Capitals to Small Capitals lookup 59 subtable" ccedilla.sc
AlternateSubs2: "'aalt' Access All Alternates lookup 1 subtable" ccedilla.sc Ccedilla
EndChar

StartChar: ccedillaacute
Encoding: 7689 7689 365
Width: 459
GlyphClass: 1
Flags: W
LayerCount: 2
Fore
SplineSet
304 543 m 1,0,-1
 398 724 l 1,1,-1
 529 724 l 1,2,-1
 528 695 l 1,3,-1
 330 543 l 1,4,-1
 304 543 l 1,0,-1
168 -246 m 0,5,6
 142 -246 142 -246 124 -240 c 128,-1,7
 106 -234 106 -234 93 -226 c 1,8,-1
 97 -204 l 1,9,-1
 101 -204 l 1,10,11
 110 -208 110 -208 124.5 -210.5 c 128,-1,12
 139 -213 139 -213 152 -213 c 0,13,14
 179 -213 179 -213 194 -201.5 c 128,-1,15
 209 -190 209 -190 209 -171 c 0,16,17
 209 -153 209 -153 190 -136.5 c 128,-1,18
 171 -120 171 -120 120 -110 c 1,19,-1
 179 -9 l 1,20,21
 98 -3 98 -3 62 44.5 c 128,-1,22
 26 92 26 92 26 174 c 0,23,24
 26 235 26 235 50 290.5 c 128,-1,25
 74 346 74 346 115 389 c 128,-1,26
 156 432 156 432 209 456.5 c 128,-1,27
 262 481 262 481 321 481 c 0,28,29
 366 481 366 481 395.5 465 c 128,-1,30
 425 449 425 449 440 426 c 128,-1,31
 455 403 455 403 455 384 c 0,32,33
 455 376 455 376 451 368 c 128,-1,34
 447 360 447 360 439 355 c 2,35,-1
 378 321 l 1,36,-1
 312 435 l 2,37,38
 308 435 308 435 304 435 c 0,39,40
 277 435 277 435 251.5 412 c 128,-1,41
 226 389 226 389 209.5 345.5 c 128,-1,42
 193 302 193 302 193 239 c 0,43,44
 193 182 193 182 222.5 153 c 128,-1,45
 252 124 252 124 290 124 c 0,46,47
 321 124 321 124 347 136 c 128,-1,48
 373 148 373 148 408 174 c 1,49,-1
 411 174 l 1,50,-1
 429 156 l 1,51,52
 407 117 407 117 376 80.5 c 128,-1,53
 345 44 345 44 304.5 19 c 128,-1,54
 264 -6 264 -6 215 -9 c 1,55,-1
 196 -44 l 1,56,57
 248 -56 248 -56 270 -82 c 128,-1,58
 292 -108 292 -108 292 -140 c 0,59,60
 292 -186 292 -186 257 -216 c 128,-1,61
 222 -246 222 -246 168 -246 c 0,5,6
EndSplineSet
Validated: 1
Substitution2: "'case' Case-Sensitive Forms lookup 61 subtable" Ccedillaacute
Substitution2: "'smcp' Lowercase to Small Capitals lookup 60 subtable" ccedillaacute.sc
Substitution2: "'c2sc' Capitals to Small Capitals lookup 59 subtable" ccedillaacute.sc
AlternateSubs2: "'aalt' Access All Alternates lookup 1 subtable" ccedillaacute.sc Ccedillaacute
EndChar

StartChar: dcroat
Encoding: 273 273 367
Width: 578
GlyphClass: 1
Flags: W
LayerCount: 2
Fore
SplineSet
129 -10 m 0,0,1
 86 -10 86 -10 58.5 23.5 c 128,-1,2
 31 57 31 57 31 118 c 0,3,4
 31 198 31 198 60.5 264.5 c 128,-1,5
 90 331 90 331 138 379.5 c 128,-1,6
 186 428 186 428 243.5 454.5 c 128,-1,7
 301 481 301 481 356 481 c 0,8,9
 359 481 359 481 362 481 c 2,10,-1
 375 551 l 1,11,-1
 248 551 l 1,12,-1
 258 599 l 1,13,-1
 383 599 l 1,14,-1
 396 678 l 1,15,-1
 316 711 l 1,16,-1
 316 727 l 1,17,-1
 575 768 l 1,18,-1
 579 768 l 1,19,-1
 549 599 l 1,20,-1
 621 599 l 1,21,-1
 610 551 l 1,22,-1
 541 551 l 1,23,-1
 468 134 l 2,24,25
 465 116 465 116 469.5 103.5 c 128,-1,26
 474 91 474 91 486 91 c 0,27,28
 500 91 500 91 515 107 c 128,-1,29
 530 123 530 123 549 164 c 1,30,-1
 571 157 l 1,31,32
 543 82 543 82 504.5 36 c 128,-1,33
 466 -10 466 -10 409 -10 c 0,34,35
 361 -10 361 -10 332.5 16.5 c 128,-1,36
 304 43 304 43 302 96 c 1,37,-1
 296 96 l 1,38,39
 264 56 264 56 238.5 33 c 128,-1,40
 213 10 213 10 187.5 0 c 128,-1,41
 162 -10 162 -10 129 -10 c 0,0,1
205 182 m 0,42,43
 205 139 205 139 212.5 120 c 128,-1,44
 220 101 220 101 237 101 c 0,45,46
 255 101 255 101 271.5 114.5 c 128,-1,47
 288 128 288 128 306 152 c 1,48,-1
 306 154 l 1,49,-1
 351 420 l 1,50,51
 346 424 346 424 337 427.5 c 128,-1,52
 328 431 328 431 315 431 c 0,53,54
 283 431 283 431 258 396 c 128,-1,55
 233 361 233 361 219 305 c 128,-1,56
 205 249 205 249 205 182 c 0,42,43
EndSplineSet
Validated: 1
Substitution2: "'case' Case-Sensitive Forms lookup 61 subtable" Dcroat
Substitution2: "'smcp' Lowercase to Small Capitals lookup 60 subtable" dcroat.sc
Substitution2: "'c2sc' Capitals to Small Capitals lookup 59 subtable" dcroat.sc
AlternateSubs2: "'aalt' Access All Alternates lookup 1 subtable" dcroat.sc Dcroat
EndChar

StartChar: eogonek
Encoding: 281 281 379
Width: 447
GlyphClass: 1
Flags: W
LayerCount: 2
Fore
SplineSet
195 -10 m 0,0,1
 108 -10 108 -10 67 40 c 128,-1,2
 26 90 26 90 26 175 c 0,3,4
 26 230 26 230 48 284.5 c 128,-1,5
 70 339 70 339 110 383.5 c 128,-1,6
 150 428 150 428 205 454.5 c 128,-1,7
 260 481 260 481 327 481 c 0,8,9
 381 481 381 481 409 457 c 128,-1,10
 437 433 437 433 437 397 c 0,11,12
 437 369 437 369 416.5 346 c 128,-1,13
 396 323 396 323 343 299 c 128,-1,14
 290 275 290 275 193 250 c 1,15,16
 193 242 193 242 193 232 c 0,17,18
 193 183 193 183 222.5 153.5 c 128,-1,19
 252 124 252 124 290 124 c 0,20,21
 321 124 321 124 347 136 c 128,-1,22
 373 148 373 148 408 174 c 1,23,-1
 411 174 l 1,24,-1
 429 156 l 1,25,26
 411 121 411 121 379.5 88.5 c 128,-1,27
 348 56 348 56 319 27 c 0,28,29
 293 -4 293 -4 275 -48.5 c 128,-1,30
 257 -93 257 -93 257 -133 c 0,31,32
 257 -187 257 -187 311 -187 c 0,33,34
 322 -187 322 -187 334.5 -182.5 c 128,-1,35
 347 -178 347 -178 354 -171 c 1,36,-1
 358 -171 l 1,37,-1
 352 -194 l 1,38,39
 337 -218 337 -218 313 -232 c 128,-1,40
 289 -246 289 -246 255 -246 c 0,41,42
 211 -246 211 -246 186.5 -224 c 128,-1,43
 162 -202 162 -202 162 -164 c 0,44,45
 162 -118 162 -118 191.5 -78 c 128,-1,46
 221 -38 221 -38 260 0 c 1,47,48
 245 -5 245 -5 228.5 -7.5 c 128,-1,49
 212 -10 212 -10 195 -10 c 0,0,1
289 435 m 0,50,51
 262 435 262 435 234.5 395 c 128,-1,52
 207 355 207 355 197 290 c 1,53,54
 266 316 266 316 292.5 345.5 c 128,-1,55
 319 375 319 375 319 403 c 0,56,57
 319 414 319 414 313.5 424.5 c 128,-1,58
 308 435 308 435 289 435 c 0,50,51
EndSplineSet
Validated: 1
Substitution2: "'case' Case-Sensitive Forms lookup 61 subtable" Eogonek
Substitution2: "'smcp' Lowercase to Small Capitals lookup 60 subtable" eogonek.sc
Substitution2: "'c2sc' Capitals to Small Capitals lookup 59 subtable" eogonek.sc
AlternateSubs2: "'aalt' Access All Alternates lookup 1 subtable" eogonek.sc Eogonek
EndChar

StartChar: ecedillabreve
Encoding: 7709 7709 391
Width: 447
GlyphClass: 1
Flags: W
LayerCount: 2
Fore
SplineSet
333 553 m 0,0,1
 256 553 256 553 225 597 c 128,-1,2
 194 641 194 641 191 724 c 1,3,-1
 217 724 l 1,4,5
 233 668 233 668 264 652 c 128,-1,6
 295 636 295 636 348 636 c 0,7,8
 400 636 400 636 437.5 653.5 c 128,-1,9
 475 671 475 671 506 724 c 1,10,-1
 531 724 l 1,11,12
 495 630 495 630 449 591.5 c 128,-1,13
 403 553 403 553 333 553 c 0,0,1
167 -246 m 0,14,15
 141 -246 141 -246 123 -240 c 128,-1,16
 105 -234 105 -234 92 -226 c 1,17,-1
 96 -204 l 1,18,-1
 100 -204 l 1,19,20
 109 -208 109 -208 123.5 -210.5 c 128,-1,21
 138 -213 138 -213 151 -213 c 0,22,23
 178 -213 178 -213 193 -201.5 c 128,-1,24
 208 -190 208 -190 208 -171 c 0,25,26
 208 -153 208 -153 189 -136.5 c 128,-1,27
 170 -120 170 -120 119 -110 c 1,28,-1
 177 -9 l 1,29,30
 99 -5 99 -5 62.5 44.5 c 128,-1,31
 26 94 26 94 26 175 c 0,32,33
 26 230 26 230 48 284.5 c 128,-1,34
 70 339 70 339 110 383.5 c 128,-1,35
 150 428 150 428 205 454.5 c 128,-1,36
 260 481 260 481 327 481 c 0,37,38
 381 481 381 481 409 457 c 128,-1,39
 437 433 437 433 437 397 c 0,40,41
 437 369 437 369 416.5 346 c 128,-1,42
 396 323 396 323 343 299 c 128,-1,43
 290 275 290 275 193 250 c 1,44,45
 193 242 193 242 193 232 c 0,46,47
 193 183 193 183 222.5 153.5 c 128,-1,48
 252 124 252 124 290 124 c 0,49,50
 321 124 321 124 347 136 c 128,-1,51
 373 148 373 148 408 174 c 1,52,-1
 411 174 l 1,53,-1
 429 156 l 1,54,55
 407 117 407 117 376 81 c 128,-1,56
 345 45 345 45 304 20 c 128,-1,57
 263 -5 263 -5 214 -9 c 1,58,-1
 195 -44 l 1,59,60
 247 -56 247 -56 269 -82 c 128,-1,61
 291 -108 291 -108 291 -140 c 0,62,63
 291 -186 291 -186 256 -216 c 128,-1,64
 221 -246 221 -246 167 -246 c 0,14,15
289 435 m 0,65,66
 262 435 262 435 234.5 395 c 128,-1,67
 207 355 207 355 197 290 c 1,68,69
 266 316 266 316 292.5 345.5 c 128,-1,70
 319 375 319 375 319 403 c 0,71,72
 319 414 319 414 313.5 424.5 c 128,-1,73
 308 435 308 435 289 435 c 0,65,66
EndSplineSet
Validated: 1
Substitution2: "'case' Case-Sensitive Forms lookup 61 subtable" Ecedillabreve
Substitution2: "'smcp' Lowercase to Small Capitals lookup 60 subtable" ecedillabreve.sc
Substitution2: "'c2sc' Capitals to Small Capitals lookup 59 subtable" ecedillabreve.sc
AlternateSubs2: "'aalt' Access All Alternates lookup 1 subtable" ecedillabreve.sc Ecedillabreve
EndChar

StartChar: hbar
Encoding: 295 295 399
Width: 587
GlyphClass: 1
Flags: W
LayerCount: 2
Fore
SplineSet
20 0 m 5,0,-1
 114 538 l 5,1,-1
 38 538 l 5,2,-1
 47 586 l 5,3,-1
 123 586 l 5,4,-1
 138 677 l 5,5,-1
 68 711 l 5,6,-1
 68 727 l 5,7,-1
 317 768 l 5,8,-1
 321 768 l 5,9,-1
 289 586 l 5,10,-1
 437 586 l 5,11,-1
 428 538 l 5,12,-1
 281 538 l 5,13,-1
 255 390 l 5,14,-1
 261 390 l 5,15,16
 292 424 292 424 314.5 444 c 132,-1,17
 337 464 337 464 359.5 472.5 c 132,-1,18
 382 481 382 481 413 481 c 4,19,20
 468 481 468 481 497 440 c 4,21,22
 518 411 518 411 518 368 c 4,23,24
 518 350 518 350 514 330 c 6,25,-1
 480 134 l 6,26,27
 477 116 477 116 481.5 103.5 c 132,-1,28
 486 91 486 91 499 91 c 4,29,30
 513 91 513 91 528 107 c 132,-1,31
 543 123 543 123 561 164 c 5,32,-1
 584 157 l 5,33,34
 556 82 556 82 517 36 c 132,-1,35
 478 -10 478 -10 421 -10 c 4,36,37
 362 -10 362 -10 333 31 c 4,38,39
 313 59 313 59 313 105 c 4,40,41
 313 127 313 127 318 154 c 6,42,-1
 348 325 l 6,43,44
 350 334 350 334 350 342 c 4,45,46
 350 355 350 355 346 364 c 4,47,48
 340 380 340 380 315 380 c 4,49,50
 297 380 297 380 279.5 368 c 132,-1,51
 262 356 262 356 246 339 c 5,52,-1
 187 0 l 5,53,-1
 20 0 l 5,0,-1
EndSplineSet
Validated: 1
Substitution2: "'case' Case-Sensitive Forms lookup 61 subtable" Hbar
Substitution2: "'smcp' Lowercase to Small Capitals lookup 60 subtable" hbar.sc
Substitution2: "'c2sc' Capitals to Small Capitals lookup 59 subtable" hbar.sc
AlternateSubs2: "'aalt' Access All Alternates lookup 1 subtable" hbar.sc Hbar
EndChar

StartChar: iogonek
Encoding: 303 303 410
Width: 317
GlyphClass: 1
Flags: W
LayerCount: 2
Fore
SplineSet
216 570 m 260,0,1
 181 570 181 570 158 592.5 c 132,-1,2
 135 615 135 615 135 650 c 4,3,4
 135 686 135 686 158 708.5 c 132,-1,5
 181 731 181 731 216 731 c 260,6,7
 251 731 251 731 273.5 708.5 c 132,-1,8
 296 686 296 686 296 650 c 4,9,10
 296 615 296 615 273.5 592.5 c 132,-1,11
 251 570 251 570 216 570 c 260,0,1
126 -246 m 4,12,13
 82 -246 82 -246 57.5 -224 c 132,-1,14
 33 -202 33 -202 33 -164 c 4,15,16
 33 -121 33 -121 60 -81.5 c 132,-1,17
 87 -42 87 -42 124 -8 c 5,18,19
 77 1 77 1 56 41 c 4,20,21
 43 66 43 66 43 103 c 4,22,23
 43 126 43 126 48 154 c 6,24,-1
 90 390 l 5,25,-1
 31 424 l 5,26,-1
 31 440 l 5,27,-1
 268 481 l 5,28,-1
 271 481 l 5,29,-1
 210 134 l 6,30,31
 207 116 207 116 211.5 103.5 c 132,-1,32
 216 91 216 91 228 91 c 4,33,34
 242 91 242 91 257 107 c 132,-1,35
 272 123 272 123 291 164 c 5,36,-1
 313 157 l 5,37,38
 287 86 287 86 251.5 41 c 132,-1,39
 216 -4 216 -4 165 -9 c 5,40,41
 149 -39 149 -39 138.5 -70.5 c 132,-1,42
 128 -102 128 -102 128 -133 c 4,43,44
 128 -187 128 -187 182 -187 c 4,45,46
 193 -187 193 -187 205.5 -182.5 c 132,-1,47
 218 -178 218 -178 225 -171 c 5,48,-1
 229 -171 l 5,49,-1
 223 -194 l 5,50,51
 208 -218 208 -218 184 -232 c 132,-1,52
 160 -246 160 -246 126 -246 c 4,12,13
EndSplineSet
Validated: 1
Substitution2: "'case' Case-Sensitive Forms lookup 61 subtable" Iogonek
Substitution2: "'smcp' Lowercase to Small Capitals lookup 60 subtable" iogonek.sc
Substitution2: "'c2sc' Capitals to Small Capitals lookup 59 subtable" iogonek.sc
MultipleSubs2: "Multiple Substitution lookup 4 subtable" idotless ogonekcomb
AlternateSubs2: "'aalt' Access All Alternates lookup 1 subtable" iogonek.sc Iogonek
EndChar

StartChar: idotless
Encoding: 305 305 412
Width: 317
GlyphClass: 2
Flags: W
AnchorPoint: "Anchor-3" 198 522 basechar 0
AnchorPoint: "Anchor-2" 205 0 basechar 0
AnchorPoint: "Anchor-0" 140 0 basechar 0
LayerCount: 2
Fore
SplineSet
151 -10 m 4,0,1
 92 -10 92 -10 63 31 c 4,2,3
 43 59 43 59 43 105 c 4,4,5
 43 127 43 127 48 154 c 6,6,-1
 90 390 l 5,7,-1
 31 424 l 5,8,-1
 31 440 l 5,9,-1
 268 481 l 5,10,-1
 271 481 l 5,11,-1
 210 134 l 6,12,13
 207 116 207 116 211.5 103.5 c 132,-1,14
 216 91 216 91 228 91 c 4,15,16
 242 91 242 91 257 107 c 132,-1,17
 272 123 272 123 291 164 c 5,18,-1
 313 157 l 5,19,20
 285 82 285 82 246.5 36 c 132,-1,21
 208 -10 208 -10 151 -10 c 4,0,1
EndSplineSet
Validated: 1
Substitution2: "'case' Case-Sensitive Forms lookup 62 subtable" I
Substitution2: "'smcp' Lowercase to Small Capitals lookup 60 subtable" i.sc
AlternateSubs2: "'aalt' Access All Alternates lookup 1 subtable" i.sc I
EndChar

StartChar: jdotless
Encoding: 567 567 420
Width: 302
GlyphClass: 2
Flags: W
AnchorPoint: "Anchor-3" 182 522 basechar 0
AnchorPoint: "Anchor-0" 54 -216 basechar 0
LayerCount: 2
Fore
SplineSet
-79 -236 m 1,0,-1
 -79 -215 l 1,1,2
 -51 -196 -51 -196 -33 -180.5 c 128,-1,3
 -15 -165 -15 -165 -4.5 -145 c 128,-1,4
 6 -125 6 -125 14 -93 c 128,-1,5
 22 -61 22 -61 29 -10 c 2,6,-1
 88 390 l 1,7,-1
 29 424 l 1,8,-1
 29 440 l 1,9,-1
 266 481 l 1,10,-1
 269 481 l 1,11,-1
 202 40 l 2,12,13
 188 -56 188 -56 122 -122 c 128,-1,14
 56 -188 56 -188 -79 -236 c 1,0,-1
EndSplineSet
Validated: 1
EndChar

StartChar: kgreenlandic
Encoding: 312 312 422
Width: 562
GlyphClass: 1
Flags: W
LayerCount: 2
Fore
SplineSet
20 0 m 1,0,-1
 88 390 l 1,1,-1
 17 424 l 1,2,-1
 17 440 l 1,3,-1
 267 481 l 1,4,-1
 270 481 l 1,5,-1
 236 280 l 1,6,7
 308 355 308 355 356 398.5 c 128,-1,8
 404 442 404 442 436.5 461.5 c 128,-1,9
 469 481 469 481 490 481 c 0,10,11
 514 481 514 481 526 471.5 c 128,-1,12
 538 462 538 462 538 452 c 0,13,14
 538 448 538 448 532 434 c 2,15,-1
 502 357 l 1,16,-1
 426 385 l 1,17,18
 417 382 417 382 408 376 c 2,19,-1
 354 343 l 1,20,-1
 441 138 l 2,21,22
 449 119 449 119 458 105 c 128,-1,23
 467 91 467 91 480 91 c 0,24,25
 494 91 494 91 505.5 106 c 128,-1,26
 517 121 517 121 526 161 c 1,27,-1
 549 156 l 1,28,29
 532 67 532 67 497 28.5 c 128,-1,30
 462 -10 462 -10 411 -10 c 0,31,32
 361 -10 361 -10 335.5 17.5 c 128,-1,33
 310 45 310 45 296 85 c 2,34,-1
 232 260 l 1,35,-1
 187 0 l 1,36,-1
 20 0 l 1,0,-1
EndSplineSet
Validated: 1
EndChar

StartChar: lslash
Encoding: 322 322 426
Width: 315
GlyphClass: 1
Flags: W
LayerCount: 2
Fore
SplineSet
148 -10 m 4,0,1
 88 -10 88 -10 60 31 c 4,2,3
 41 58 41 58 41 104 c 4,4,5
 41 127 41 127 46 154 c 6,6,-1
 63 255 l 5,7,-1
 0 212 l 5,8,-1
 12 275 l 5,9,-1
 75 318 l 5,10,-1
 138 677 l 5,11,-1
 68 711 l 5,12,-1
 68 727 l 5,13,-1
 317 768 l 5,14,-1
 321 768 l 5,15,-1
 259 421 l 5,16,-1
 345 478 l 5,17,-1
 332 415 l 5,18,-1
 248 356 l 5,19,-1
 208 134 l 6,20,21
 205 116 205 116 209.5 103.5 c 132,-1,22
 214 91 214 91 226 91 c 4,23,24
 240 91 240 91 255 107 c 132,-1,25
 270 123 270 123 289 164 c 5,26,-1
 311 157 l 5,27,28
 283 82 283 82 244 36 c 132,-1,29
 205 -10 205 -10 148 -10 c 4,0,1
EndSplineSet
Validated: 1
Substitution2: "'case' Case-Sensitive Forms lookup 61 subtable" Lslash
Substitution2: "'smcp' Lowercase to Small Capitals lookup 60 subtable" lslash.sc
Substitution2: "'c2sc' Capitals to Small Capitals lookup 59 subtable" lslash.sc
AlternateSubs2: "'aalt' Access All Alternates lookup 1 subtable" lslash.sc Lslash
EndChar

StartChar: oogonek
Encoding: 491 491 447
Width: 518
GlyphClass: 1
Flags: W
LayerCount: 2
Fore
SplineSet
209 -246 m 0,0,1
 165 -246 165 -246 140.5 -224 c 128,-1,2
 116 -202 116 -202 116 -164 c 0,3,4
 116 -122 116 -122 142.5 -83 c 128,-1,5
 169 -44 169 -44 205 -9 c 1,6,7
 145 -5 145 -5 105.5 24 c 128,-1,8
 66 53 66 53 46 99.5 c 128,-1,9
 26 146 26 146 26 202 c 0,10,11
 26 256 26 256 46 306 c 128,-1,12
 66 356 66 356 100.5 395.5 c 128,-1,13
 135 435 135 435 181.5 458 c 128,-1,14
 228 481 228 481 282 481 c 0,15,16
 354 481 354 481 400 453 c 128,-1,17
 446 425 446 425 469.5 377 c 128,-1,18
 493 329 493 329 493 269 c 0,19,20
 493 203 493 203 462.5 142 c 128,-1,21
 432 81 432 81 377.5 39.5 c 128,-1,22
 323 -2 323 -2 248 -9 c 1,23,24
 233 -38 233 -38 222 -70 c 128,-1,25
 211 -102 211 -102 211 -133 c 0,26,27
 211 -187 211 -187 265 -187 c 0,28,29
 276 -187 276 -187 288.5 -182.5 c 128,-1,30
 301 -178 301 -178 308 -171 c 1,31,-1
 312 -171 l 1,32,-1
 306 -194 l 1,33,34
 291 -218 291 -218 267 -232 c 128,-1,35
 243 -246 243 -246 209 -246 c 0,0,1
239 44 m 0,36,37
 264 44 264 44 284 81.5 c 128,-1,38
 304 119 304 119 316.5 179 c 128,-1,39
 329 239 329 239 329 306 c 0,40,41
 329 369 329 369 316.5 398.5 c 128,-1,42
 304 428 304 428 281 428 c 0,43,44
 256 428 256 428 235 391.5 c 128,-1,45
 214 355 214 355 201.5 297 c 128,-1,46
 189 239 189 239 189 170 c 0,47,48
 189 115 189 115 200.5 79.5 c 128,-1,49
 212 44 212 44 239 44 c 0,36,37
EndSplineSet
Validated: 1
Substitution2: "'case' Case-Sensitive Forms lookup 61 subtable" Oogonek
Substitution2: "'smcp' Lowercase to Small Capitals lookup 60 subtable" oogonek.sc
Substitution2: "'c2sc' Capitals to Small Capitals lookup 59 subtable" oogonek.sc
AlternateSubs2: "'aalt' Access All Alternates lookup 1 subtable" oogonek.sc Oogonek
EndChar

StartChar: oslash
Encoding: 248 248 463
Width: 518
GlyphClass: 2
Flags: W
AnchorPoint: "Anchor-3" 310 522 basechar 0
LayerCount: 2
Fore
SplineSet
-6 0 m 5,0,-1
 61 70 l 5,1,2
 26 123 26 123 26 198 c 4,3,4
 26 200 26 200 26 202 c 4,5,6
 26 256 26 256 46 306 c 132,-1,7
 66 356 66 356 100.5 395.5 c 132,-1,8
 135 435 135 435 181.5 458 c 132,-1,9
 228 481 228 481 282 481 c 4,10,11
 327 481 327 481 361.5 470 c 132,-1,12
 396 459 396 459 422 438 c 5,13,-1
 454 471 l 5,14,-1
 524 471 l 5,15,-1
 456 401 l 5,16,17
 493 347 493 347 493 269 c 4,18,19
 493 217 493 217 474 167.5 c 132,-1,20
 455 118 455 118 419 78 c 132,-1,21
 383 38 383 38 334 14 c 132,-1,22
 285 -10 285 -10 223 -10 c 4,23,24
 183 -10 183 -10 151 1 c 132,-1,25
 119 12 119 12 95 32 c 5,26,-1
 65 0 l 5,27,-1
 -6 0 l 5,0,-1
281 428 m 4,28,29
 258 428 258 428 238.5 397 c 132,-1,30
 219 366 219 366 206.5 314.5 c 132,-1,31
 194 263 194 263 190 201 c 5,32,-1
 328 342 l 5,33,34
 322 428 322 428 281 428 c 4,28,29
239 44 m 4,35,36
 262 44 262 44 280.5 75 c 132,-1,37
 299 106 299 106 312 157.5 c 132,-1,38
 325 209 325 209 328 269 c 5,39,-1
 191 130 l 5,40,41
 194 91 194 91 205.5 67.5 c 132,-1,42
 217 44 217 44 239 44 c 4,35,36
EndSplineSet
Validated: 1
Substitution2: "'case' Case-Sensitive Forms lookup 61 subtable" Oslash
Substitution2: "'smcp' Lowercase to Small Capitals lookup 60 subtable" oslash.sc
Substitution2: "'c2sc' Capitals to Small Capitals lookup 59 subtable" oslash.sc
AlternateSubs2: "'aalt' Access All Alternates lookup 1 subtable" oslash.sc Oslash
EndChar

StartChar: ohorn
Encoding: 417 417 465
Width: 518
GlyphClass: 2
Flags: W
AnchorPoint: "Anchor-3" 310 522 basechar 0
AnchorPoint: "Anchor-2" 253 0 basechar 0
AnchorPoint: "Anchor-0" 219 0 basechar 0
LayerCount: 2
Fore
SplineSet
223 -10 m 0,0,1
 157 -10 157 -10 113.5 18.5 c 128,-1,2
 70 47 70 47 48 95 c 128,-1,3
 26 143 26 143 26 202 c 0,4,5
 26 256 26 256 46 306 c 128,-1,6
 66 356 66 356 100.5 395.5 c 128,-1,7
 135 435 135 435 181.5 458 c 128,-1,8
 228 481 228 481 282 481 c 0,9,10
 318 481 318 481 347.5 473.5 c 128,-1,11
 377 466 377 466 400 453 c 1,12,-1
 418 453 l 2,13,14
 445 453 445 453 462.5 455.5 c 128,-1,15
 480 458 480 458 495 464 c 1,16,-1
 510 556 l 1,17,-1
 566 556 l 2,18,19
 591 556 591 556 601 545 c 128,-1,20
 611 534 611 534 611 513 c 0,21,22
 611 471 611 471 578.5 442 c 128,-1,23
 546 413 546 413 472 413 c 2,24,-1
 447 413 l 1,25,26
 470 385 470 385 481.5 348 c 128,-1,27
 493 311 493 311 493 269 c 0,28,29
 493 217 493 217 474 167.5 c 128,-1,30
 455 118 455 118 419 78 c 128,-1,31
 383 38 383 38 333.5 14 c 128,-1,32
 284 -10 284 -10 223 -10 c 0,0,1
239 44 m 0,33,34
 264 44 264 44 284 81.5 c 128,-1,35
 304 119 304 119 316.5 179 c 128,-1,36
 329 239 329 239 329 306 c 0,37,38
 329 369 329 369 316.5 398.5 c 128,-1,39
 304 428 304 428 281 428 c 0,40,41
 256 428 256 428 235 391.5 c 128,-1,42
 214 355 214 355 201.5 297 c 128,-1,43
 189 239 189 239 189 170 c 0,44,45
 189 115 189 115 200.5 79.5 c 128,-1,46
 212 44 212 44 239 44 c 0,33,34
EndSplineSet
Validated: 1
Substitution2: "'case' Case-Sensitive Forms lookup 61 subtable" Ohorn
Substitution2: "'smcp' Lowercase to Small Capitals lookup 60 subtable" ohorn.sc
Substitution2: "'c2sc' Capitals to Small Capitals lookup 59 subtable" ohorn.sc
AlternateSubs2: "'aalt' Access All Alternates lookup 1 subtable" ohorn.sc Ohorn
EndChar

StartChar: oe
Encoding: 339 339 471
Width: 746
GlyphClass: 1
Flags: W
LayerCount: 2
Fore
SplineSet
223 -10 m 0,0,1
 157 -10 157 -10 113.5 18.5 c 128,-1,2
 70 47 70 47 48 95 c 128,-1,3
 26 143 26 143 26 202 c 0,4,5
 26 256 26 256 46 306 c 128,-1,6
 66 356 66 356 100.5 395.5 c 128,-1,7
 135 435 135 435 181.5 458 c 128,-1,8
 228 481 228 481 282 481 c 0,9,10
 337 481 337 481 377.5 463.5 c 128,-1,11
 418 446 418 446 443 417 c 1,12,13
 480 447 480 447 526 464 c 128,-1,14
 572 481 572 481 626 481 c 256,15,16
 680 481 680 481 708 457 c 128,-1,17
 736 433 736 433 736 397 c 0,18,19
 736 369 736 369 715.5 346 c 128,-1,20
 695 323 695 323 642 299 c 128,-1,21
 589 275 589 275 492 250 c 1,22,23
 492 242 492 242 492 232 c 0,24,25
 492 183 492 183 521.5 153.5 c 128,-1,26
 551 124 551 124 589 124 c 0,27,28
 620 124 620 124 646 136 c 128,-1,29
 672 148 672 148 707 174 c 1,30,-1
 710 174 l 1,31,-1
 728 156 l 1,32,33
 705 115 705 115 671 77 c 128,-1,34
 637 39 637 39 592.5 14.5 c 128,-1,35
 548 -10 548 -10 494 -10 c 0,36,37
 413 -10 413 -10 371 35 c 1,38,39
 340 13 340 13 302.5 1.5 c 128,-1,40
 265 -10 265 -10 223 -10 c 0,0,1
588 435 m 0,41,42
 561 435 561 435 533.5 395 c 128,-1,43
 506 355 506 355 496 290 c 1,44,45
 565 316 565 316 591.5 345.5 c 128,-1,46
 618 375 618 375 618 403 c 0,47,48
 618 414 618 414 612.5 424.5 c 128,-1,49
 607 435 607 435 588 435 c 0,41,42
239 44 m 0,50,51
 264 44 264 44 284 81.5 c 128,-1,52
 304 119 304 119 316.5 179 c 128,-1,53
 329 239 329 239 329 306 c 0,54,55
 329 369 329 369 316.5 398.5 c 128,-1,56
 304 428 304 428 281 428 c 0,57,58
 256 428 256 428 235 391.5 c 128,-1,59
 214 355 214 355 201.5 297 c 128,-1,60
 189 239 189 239 189 170 c 0,61,62
 189 115 189 115 200.5 79.5 c 128,-1,63
 212 44 212 44 239 44 c 0,50,51
EndSplineSet
Validated: 1
Substitution2: "'case' Case-Sensitive Forms lookup 61 subtable" OE
Substitution2: "'smcp' Lowercase to Small Capitals lookup 60 subtable" oe.sc
Substitution2: "'c2sc' Capitals to Small Capitals lookup 59 subtable" oe.sc
AlternateSubs2: "'aalt' Access All Alternates lookup 1 subtable" oe.sc OE
EndChar

StartChar: scedilla
Encoding: 351 351 482
Width: 408
GlyphClass: 1
Flags: W
LayerCount: 2
Fore
SplineSet
127 -246 m 0,0,1
 101 -246 101 -246 83.5 -240 c 128,-1,2
 66 -234 66 -234 52 -226 c 1,3,-1
 56 -204 l 1,4,-1
 60 -204 l 1,5,6
 69 -208 69 -208 83.5 -210.5 c 128,-1,7
 98 -213 98 -213 111 -213 c 0,8,9
 138 -213 138 -213 153 -201.5 c 128,-1,10
 168 -190 168 -190 168 -171 c 0,11,12
 168 -153 168 -153 149 -136.5 c 128,-1,13
 130 -120 130 -120 79 -110 c 1,14,-1
 137 -10 l 1,15,16
 84 -7 84 -7 54 16 c 128,-1,17
 24 39 24 39 24 61 c 0,18,19
 24 70 24 70 27.5 77 c 128,-1,20
 31 84 31 84 36 89 c 2,21,-1
 73 126 l 1,22,-1
 157 47 l 1,23,24
 166 46 166 46 175 46 c 0,25,26
 207 46 207 46 226 59 c 128,-1,27
 245 72 245 72 245 91 c 0,28,29
 245 107 245 107 237.5 119 c 128,-1,30
 230 131 230 131 209.5 145.5 c 128,-1,31
 189 160 189 160 147 182 c 0,32,33
 118 198 118 198 98 214 c 128,-1,34
 78 230 78 230 67 253 c 128,-1,35
 56 276 56 276 56 314 c 0,36,37
 56 343 56 343 74.5 372 c 128,-1,38
 93 401 93 401 125 426 c 128,-1,39
 157 451 157 451 196.5 466 c 128,-1,40
 236 481 236 481 276 481 c 0,41,42
 311 481 311 481 332.5 469 c 128,-1,43
 354 457 354 457 364.5 440.5 c 128,-1,44
 375 424 375 424 375 412 c 0,45,46
 375 405 375 405 372.5 400 c 128,-1,47
 370 395 370 395 361 388 c 2,48,-1
 315 350 l 1,49,-1
 239 432 l 1,50,51
 210 428 210 428 197.5 413.5 c 128,-1,52
 185 399 185 399 185 382 c 256,53,54
 185 365 185 365 199.5 349 c 128,-1,55
 214 333 214 333 264 306 c 0,56,57
 303 287 303 287 332 260 c 128,-1,58
 361 233 361 233 361 183 c 0,59,60
 361 137 361 137 338.5 95 c 128,-1,61
 316 53 316 53 274 25 c 128,-1,62
 232 -3 232 -3 174 -9 c 1,63,-1
 155 -44 l 1,64,65
 207 -56 207 -56 229 -82 c 128,-1,66
 251 -108 251 -108 251 -140 c 0,67,68
 251 -186 251 -186 216 -216 c 128,-1,69
 181 -246 181 -246 127 -246 c 0,0,1
EndSplineSet
Validated: 1
Substitution2: "'case' Case-Sensitive Forms lookup 61 subtable" Scedilla
Substitution2: "'smcp' Lowercase to Small Capitals lookup 60 subtable" scedilla.sc
Substitution2: "'c2sc' Capitals to Small Capitals lookup 59 subtable" scedilla.sc
Substitution2: "'locl' Localized Forms in Latin lookup 14 subtable" scommaaccent
Substitution2: "'locl' Localized Forms in Latin lookup 11 subtable" scommaaccent
AlternateSubs2: "'aalt' Access All Alternates lookup 1 subtable" scommaaccent scedilla.sc Scedilla
EndChar

StartChar: germandbls
Encoding: 223 223 489
Width: 698
GlyphClass: 1
Flags: W
LayerCount: 2
Fore
SplineSet
90 423 m 5,0,-1
 90 471 l 5,1,-1
 180 471 l 5,2,-1
 183 489 l 6,3,4
 191 541 191 541 218.5 591 c 132,-1,5
 246 641 246 641 289 681 c 132,-1,6
 332 721 332 721 388 744.5 c 132,-1,7
 444 768 444 768 512 768 c 4,8,9
 603 768 603 768 646 731.5 c 132,-1,10
 689 695 689 695 689 643 c 4,11,12
 689 608 689 608 672.5 583.5 c 132,-1,13
 656 559 656 559 632 539.5 c 132,-1,14
 608 520 608 520 584 500.5 c 132,-1,15
 560 481 560 481 543.5 458 c 132,-1,16
 527 435 527 435 527 402 c 4,17,18
 527 375 527 375 540.5 357 c 132,-1,19
 554 339 554 339 574.5 322.5 c 132,-1,20
 595 306 595 306 617 286 c 4,21,22
 653 254 653 254 663 227 c 132,-1,23
 673 200 673 200 673 170 c 4,24,25
 673 123 673 123 647 81.5 c 132,-1,26
 621 40 621 40 572 15 c 132,-1,27
 523 -10 523 -10 455 -10 c 4,28,29
 421 -10 421 -10 397 -2 c 132,-1,30
 373 6 373 6 356 17 c 4,31,32
 326 35 326 35 326 57 c 4,33,34
 326 58 326 58 326 58 c 4,35,36
 326 72 326 72 337 81 c 6,37,-1
 385 119 l 5,38,-1
 391 119 l 5,39,-1
 409 97 l 6,40,41
 427 74 427 74 444.5 58 c 132,-1,42
 462 42 462 42 485 42 c 4,43,44
 552 42 552 42 552 102 c 4,45,46
 552 129 552 129 537.5 145 c 132,-1,47
 523 161 523 161 499 175.5 c 132,-1,48
 475 190 475 190 447 213 c 4,49,50
 427 230 427 230 411 252 c 132,-1,51
 395 274 395 274 395 311 c 4,52,53
 395 354 395 354 412.5 386 c 132,-1,54
 430 418 430 418 455 445 c 132,-1,55
 480 472 480 472 505 499 c 132,-1,56
 530 526 530 526 547.5 558.5 c 132,-1,57
 565 591 565 591 565 634 c 4,58,59
 565 670 565 670 547 693 c 132,-1,60
 529 716 529 716 489 716 c 4,61,62
 435 716 435 716 406 671.5 c 132,-1,63
 377 627 377 627 364 549 c 6,64,-1
 266 -2 l 6,65,66
 261 -32 261 -32 240.5 -65.5 c 132,-1,67
 220 -99 220 -99 190.5 -131 c 132,-1,68
 161 -163 161 -163 127 -189 c 132,-1,69
 93 -215 93 -215 61 -230.5 c 132,-1,70
 29 -246 29 -246 4 -246 c 4,71,72
 -23 -246 -23 -246 -43 -236.5 c 132,-1,73
 -63 -227 -63 -227 -63 -217 c 4,74,75
 -63 -208 -63 -208 -58 -201 c 6,76,-1
 -19 -138 l 5,77,-1
 -13 -138 l 5,78,-1
 23 -173 l 6,79,80
 37 -187 37 -187 54 -187 c 4,81,82
 62 -187 62 -187 67.5 -180 c 132,-1,83
 73 -173 73 -173 78 -151.5 c 132,-1,84
 83 -130 83 -130 90 -87 c 6,85,-1
 172 423 l 5,86,-1
 90 423 l 5,0,-1
EndSplineSet
Validated: 1
Substitution2: "'case' Case-Sensitive Forms lookup 62 subtable" Germandbls
Substitution2: "'smcp' Lowercase to Small Capitals lookup 60 subtable" germandbls.sc
AlternateSubs2: "'aalt' Access All Alternates lookup 1 subtable" germandbls.sc Germandbls
EndChar

StartChar: tbar
Encoding: 359 359 492
Width: 372
GlyphClass: 1
Flags: W
LayerCount: 2
Fore
SplineSet
165 -10 m 0,0,1
 106 -10 106 -10 73 23.5 c 128,-1,2
 40 57 40 57 40 123 c 0,3,4
 40 135 40 135 41.5 149 c 128,-1,5
 43 163 43 163 45 177 c 2,6,-1
 60 263 l 1,7,-1
 0 263 l 1,8,-1
 9 311 l 1,9,-1
 69 311 l 1,10,-1
 88 426 l 1,11,-1
 29 426 l 1,12,-1
 33 445 l 1,13,-1
 157 504 l 1,14,-1
 254 577 l 1,15,-1
 281 577 l 1,16,-1
 262 471 l 1,17,-1
 384 471 l 1,18,-1
 384 426 l 1,19,-1
 254 426 l 1,20,-1
 233 311 l 1,21,-1
 358 311 l 1,22,-1
 349 263 l 1,23,-1
 225 263 l 1,24,-1
 211 183 l 2,25,26
 210 176 210 176 209.5 170 c 128,-1,27
 209 164 209 164 209 158 c 0,28,29
 209 112 209 112 249 112 c 0,30,31
 273 112 273 112 294 131 c 128,-1,32
 315 150 315 150 335 200 c 1,33,-1
 358 193 l 1,34,35
 329 102 329 102 281 46 c 128,-1,36
 233 -10 233 -10 165 -10 c 0,0,1
EndSplineSet
Validated: 1
Substitution2: "'case' Case-Sensitive Forms lookup 61 subtable" Tbar
Substitution2: "'smcp' Lowercase to Small Capitals lookup 60 subtable" tbar.sc
Substitution2: "'c2sc' Capitals to Small Capitals lookup 59 subtable" tbar.sc
AlternateSubs2: "'aalt' Access All Alternates lookup 1 subtable" tbar.sc Tbar
EndChar

StartChar: tcedilla
Encoding: 355 355 493
Width: 372
GlyphClass: 1
Flags: W
LayerCount: 2
Fore
SplineSet
165 -10 m 2,0,-1
 164 -10 l 1,1,-1
 145 -44 l 1,2,3
 197 -56 197 -56 219.5 -82 c 128,-1,4
 242 -108 242 -108 242 -140 c 0,5,6
 242 -186 242 -186 207 -216 c 128,-1,7
 172 -246 172 -246 118 -246 c 0,8,9
 92 -246 92 -246 74 -240 c 128,-1,10
 56 -234 56 -234 43 -226 c 1,11,-1
 47 -204 l 1,12,-1
 51 -204 l 1,13,14
 60 -208 60 -208 74.5 -210.5 c 128,-1,15
 89 -213 89 -213 101 -213 c 0,16,17
 128 -213 128 -213 143.5 -201.5 c 128,-1,18
 159 -190 159 -190 159 -171 c 0,19,20
 159 -153 159 -153 140 -136.5 c 128,-1,21
 121 -120 121 -120 70 -110 c 1,22,-1
 130 -7 l 1,23,24
 87 2 87 2 63.5 35 c 128,-1,25
 40 68 40 68 40 123 c 0,26,27
 40 135 40 135 41.5 149 c 128,-1,28
 43 163 43 163 45 177 c 2,29,-1
 88 426 l 1,30,-1
 29 426 l 1,31,-1
 33 445 l 1,32,-1
 157 504 l 1,33,-1
 254 577 l 1,34,-1
 281 577 l 1,35,-1
 262 471 l 1,36,-1
 384 471 l 1,37,-1
 384 426 l 1,38,-1
 254 426 l 1,39,-1
 211 183 l 2,40,41
 210 176 210 176 209.5 170 c 128,-1,42
 209 164 209 164 209 158 c 0,43,44
 209 112 209 112 249 112 c 0,45,46
 273 112 273 112 294 131 c 128,-1,47
 315 150 315 150 335 200 c 1,48,-1
 358 193 l 1,49,50
 329 102 329 102 281 46 c 128,-1,51
 233 -10 233 -10 165 -10 c 2,0,-1
EndSplineSet
Validated: 1
Substitution2: "'case' Case-Sensitive Forms lookup 61 subtable" Tcedilla
Substitution2: "'smcp' Lowercase to Small Capitals lookup 60 subtable" tcedilla.sc
Substitution2: "'c2sc' Capitals to Small Capitals lookup 59 subtable" tcedilla.sc
AlternateSubs2: "'aalt' Access All Alternates lookup 1 subtable" tcedilla.sc Tcedilla
EndChar

StartChar: uogonek
Encoding: 371 371 506
Width: 585
GlyphClass: 1
Flags: W
LayerCount: 2
Fore
SplineSet
152 -10 m 0,0,1
 105 -10 105 -10 76 20.5 c 128,-1,2
 47 51 47 51 47 104 c 0,3,4
 47 121 47 121 50 141 c 2,5,-1
 93 390 l 1,6,-1
 34 424 l 1,7,-1
 34 440 l 1,8,-1
 272 481 l 1,9,-1
 275 481 l 1,10,-1
 216 146 l 2,11,12
 215 142 215 142 215 138 c 128,-1,13
 215 134 215 134 215 130 c 0,14,15
 215 114 215 114 222.5 102.5 c 128,-1,16
 230 91 230 91 249 91 c 0,17,18
 266 91 266 91 282 101 c 128,-1,19
 298 111 298 111 312 126 c 1,20,21
 314 139 314 139 316 154 c 2,22,-1
 357 390 l 1,23,-1
 309 424 l 1,24,-1
 309 440 l 1,25,-1
 537 481 l 1,26,-1
 540 481 l 1,27,-1
 478 134 l 2,28,29
 475 116 475 116 479.5 103.5 c 128,-1,30
 484 91 484 91 497 91 c 0,31,32
 511 91 511 91 526 107 c 128,-1,33
 541 123 541 123 559 164 c 1,34,-1
 582 157 l 1,35,36
 563 105 563 105 535 70.5 c 128,-1,37
 507 36 507 36 480 8 c 0,38,39
 460 -19 460 -19 445 -56 c 128,-1,40
 430 -93 430 -93 430 -132 c 0,41,42
 430 -187 430 -187 483 -187 c 0,43,44
 494 -187 494 -187 506.5 -183 c 128,-1,45
 519 -179 519 -179 527 -171 c 1,46,-1
 531 -171 l 1,47,-1
 525 -194 l 1,48,49
 510 -218 510 -218 486 -232 c 128,-1,50
 462 -246 462 -246 428 -246 c 0,51,52
 384 -246 384 -246 359.5 -224 c 128,-1,53
 335 -202 335 -202 335 -164 c 0,54,55
 335 -121 335 -121 361 -83.5 c 128,-1,56
 387 -46 387 -46 423 -10 c 1,57,-1
 419 -10 l 2,58,59
 374 -10 374 -10 345.5 13.5 c 128,-1,60
 317 37 317 37 312 84 c 1,61,-1
 306 84 l 1,62,63
 275 49 275 49 251.5 28.5 c 128,-1,64
 228 8 228 8 206 -1 c 128,-1,65
 184 -10 184 -10 152 -10 c 0,0,1
EndSplineSet
Validated: 1
Substitution2: "'case' Case-Sensitive Forms lookup 61 subtable" Uogonek
Substitution2: "'smcp' Lowercase to Small Capitals lookup 60 subtable" uogonek.sc
Substitution2: "'c2sc' Capitals to Small Capitals lookup 59 subtable" uogonek.sc
AlternateSubs2: "'aalt' Access All Alternates lookup 1 subtable" uogonek.sc Uogonek
EndChar

StartChar: uhorn
Encoding: 432 432 513
Width: 585
GlyphClass: 2
Flags: W
AnchorPoint: "Anchor-3" 334 522 basechar 0
AnchorPoint: "Anchor-2" 472 0 basechar 0
AnchorPoint: "Anchor-0" 244 0 basechar 0
LayerCount: 2
Fore
SplineSet
152 -10 m 0,0,1
 105 -10 105 -10 76 20.5 c 128,-1,2
 47 51 47 51 47 104 c 0,3,4
 47 121 47 121 50 141 c 2,5,-1
 93 390 l 1,6,-1
 34 424 l 1,7,-1
 34 440 l 1,8,-1
 272 481 l 1,9,-1
 275 481 l 1,10,-1
 216 146 l 2,11,12
 215 142 215 142 215 138 c 128,-1,13
 215 134 215 134 215 130 c 0,14,15
 215 114 215 114 222.5 102.5 c 128,-1,16
 230 91 230 91 249 91 c 0,17,18
 266 91 266 91 282 101 c 128,-1,19
 298 111 298 111 312 126 c 1,20,21
 314 139 314 139 316 154 c 2,22,-1
 357 390 l 1,23,-1
 309 424 l 1,24,-1
 309 440 l 1,25,-1
 537 481 l 1,26,-1
 540 481 l 1,27,-1
 535 453 l 1,28,-1
 543 453 l 2,29,30
 570 453 570 453 587.5 455.5 c 128,-1,31
 605 458 605 458 620 464 c 1,32,-1
 635 556 l 1,33,-1
 691 556 l 2,34,35
 716 556 716 556 726 545 c 128,-1,36
 736 534 736 534 736 513 c 0,37,38
 736 471 736 471 703.5 442 c 128,-1,39
 671 413 671 413 597 413 c 2,40,-1
 527 413 l 1,41,-1
 478 134 l 2,42,43
 475 116 475 116 479.5 103.5 c 128,-1,44
 484 91 484 91 497 91 c 0,45,46
 511 91 511 91 526 107 c 128,-1,47
 541 123 541 123 559 164 c 1,48,-1
 582 157 l 1,49,50
 554 82 554 82 515 36 c 128,-1,51
 476 -10 476 -10 419 -10 c 0,52,53
 374 -10 374 -10 345.5 13.5 c 128,-1,54
 317 37 317 37 312 84 c 1,55,-1
 306 84 l 1,56,57
 275 49 275 49 251.5 28.5 c 128,-1,58
 228 8 228 8 206 -1 c 128,-1,59
 184 -10 184 -10 152 -10 c 0,0,1
EndSplineSet
Validated: 1
Substitution2: "'case' Case-Sensitive Forms lookup 61 subtable" Uhorn
Substitution2: "'smcp' Lowercase to Small Capitals lookup 60 subtable" uhorn.sc
Substitution2: "'c2sc' Capitals to Small Capitals lookup 59 subtable" uhorn.sc
AlternateSubs2: "'aalt' Access All Alternates lookup 1 subtable" uhorn.sc Uhorn
EndChar

StartChar: schwa
Encoding: 601 601 536
Width: 447
GlyphClass: 1
Flags: W
LayerCount: 2
Fore
SplineSet
136 -10 m 0,0,1
 83 -10 83 -10 54.5 14 c 128,-1,2
 26 38 26 38 26 74 c 0,3,4
 26 102 26 102 46.5 125 c 128,-1,5
 67 148 67 148 120 172 c 128,-1,6
 173 196 173 196 270 221 c 1,7,8
 270 229 270 229 270 239 c 0,9,10
 270 288 270 288 240.5 317.5 c 128,-1,11
 211 347 211 347 173 347 c 0,12,13
 142 347 142 347 116 335 c 128,-1,14
 90 323 90 323 55 297 c 1,15,-1
 52 297 l 1,16,-1
 34 315 l 1,17,18
 57 356 57 356 91 394 c 128,-1,19
 125 432 125 432 169.5 456.5 c 128,-1,20
 214 481 214 481 268 481 c 0,21,22
 356 481 356 481 396.5 431 c 128,-1,23
 437 381 437 381 437 296 c 0,24,25
 437 241 437 241 415 186.5 c 128,-1,26
 393 132 393 132 353 87.5 c 128,-1,27
 313 43 313 43 258 16.5 c 128,-1,28
 203 -10 203 -10 136 -10 c 0,0,1
143 68 m 0,29,30
 143 57 143 57 149 46.5 c 128,-1,31
 155 36 155 36 174 36 c 0,32,33
 201 36 201 36 228.5 76 c 128,-1,34
 256 116 256 116 266 181 c 1,35,36
 197 155 197 155 170 126 c 128,-1,37
 143 97 143 97 143 68 c 0,29,30
EndSplineSet
Validated: 1
Substitution2: "'case' Case-Sensitive Forms lookup 61 subtable" Schwa
Substitution2: "'smcp' Lowercase to Small Capitals lookup 60 subtable" schwa.sc
Substitution2: "'c2sc' Capitals to Small Capitals lookup 59 subtable" schwa.sc
AlternateSubs2: "'aalt' Access All Alternates lookup 1 subtable" schwa.sc Schwa
EndChar

StartChar: eng
Encoding: 331 331 537
Width: 574
GlyphClass: 1
Flags: W
LayerCount: 2
Fore
SplineSet
31 0 m 5,0,-1
 98 390 l 5,1,-1
 39 424 l 5,2,-1
 39 440 l 5,3,-1
 256 481 l 5,4,-1
 259 481 l 5,5,-1
 259 381 l 5,6,-1
 264 381 l 5,7,8
 297 418 297 418 320.5 440 c 132,-1,9
 344 462 344 462 367.5 471.5 c 132,-1,10
 391 481 391 481 423 481 c 4,11,12
 478 481 478 481 507 440 c 4,13,14
 528 411 528 411 528 368 c 4,15,16
 528 350 528 350 524 330 c 6,17,-1
 474 40 l 6,18,19
 463 -25 463 -25 431 -75 c 132,-1,20
 399 -125 399 -125 341.5 -164 c 132,-1,21
 284 -203 284 -203 194 -236 c 5,22,-1
 194 -215 l 5,23,24
 222 -196 222 -196 239 -180.5 c 132,-1,25
 256 -165 256 -165 267 -145 c 132,-1,26
 278 -125 278 -125 285 -93 c 132,-1,27
 292 -61 292 -61 301 -10 c 6,28,-1
 358 325 l 6,29,30
 360 334 360 334 360 342 c 4,31,32
 360 355 360 355 356 364 c 4,33,34
 350 380 350 380 326 380 c 4,35,36
 307 380 307 380 288.5 367 c 132,-1,37
 270 354 270 354 254 337 c 5,38,-1
 198 0 l 5,39,-1
 31 0 l 5,0,-1
EndSplineSet
Validated: 1
Substitution2: "'case' Case-Sensitive Forms lookup 61 subtable" Eng
Substitution2: "'smcp' Lowercase to Small Capitals lookup 60 subtable" eng.sc
Substitution2: "'c2sc' Capitals to Small Capitals lookup 59 subtable" eng.sc
AlternateSubs2: "'aalt' Access All Alternates lookup 1 subtable" eng.sc Eng
EndChar

StartChar: eth
Encoding: 240 240 538
Width: 518
GlyphClass: 1
Flags: W
LayerCount: 2
Fore
SplineSet
227 -10 m 0,0,1
 165 -10 165 -10 119 16.5 c 128,-1,2
 73 43 73 43 48.5 89 c 128,-1,3
 24 135 24 135 24 195 c 0,4,5
 24 249 24 249 43.5 300 c 128,-1,6
 63 351 63 351 99.5 392 c 128,-1,7
 136 433 136 433 185 457 c 128,-1,8
 234 481 234 481 293 481 c 0,9,10
 318 481 318 481 338 477 c 1,11,12
 329 540 329 540 303 590 c 1,13,-1
 232 536 l 1,14,-1
 153 536 l 1,15,-1
 278 631 l 1,16,17
 251 667 251 667 213 693.5 c 128,-1,18
 175 720 175 720 127 739 c 1,19,-1
 135 767 l 1,20,21
 194 755 194 755 245.5 732 c 128,-1,22
 297 709 297 709 339 678 c 1,23,-1
 444 758 l 1,24,-1
 524 758 l 1,25,-1
 378 646 l 1,26,27
 444 587 444 587 479 507.5 c 128,-1,28
 514 428 514 428 514 338 c 0,29,30
 514 238 514 238 476.5 159 c 128,-1,31
 439 80 439 80 374.5 35 c 128,-1,32
 310 -10 310 -10 227 -10 c 0,0,1
188 148 m 0,33,34
 188 44 188 44 238 44 c 0,35,36
 265 44 265 44 288.5 89 c 128,-1,37
 312 134 312 134 327.5 213.5 c 128,-1,38
 343 293 343 293 343 396 c 0,39,40
 343 402 343 402 343 408 c 0,41,42
 336 417 336 417 325.5 422.5 c 128,-1,43
 315 428 315 428 300 428 c 0,44,45
 254 428 254 428 221 357.5 c 128,-1,46
 188 287 188 287 188 148 c 0,33,34
EndSplineSet
Validated: 1
Substitution2: "'case' Case-Sensitive Forms lookup 61 subtable" Eth
Substitution2: "'smcp' Lowercase to Small Capitals lookup 60 subtable" eth.sc
Substitution2: "'c2sc' Capitals to Small Capitals lookup 59 subtable" eth.sc
AlternateSubs2: "'aalt' Access All Alternates lookup 1 subtable" eth.sc Eth
EndChar

StartChar: thorn
Encoding: 254 254 539
Width: 561
GlyphClass: 1
Flags: W
LayerCount: 2
Fore
SplineSet
-66 -236 m 1,0,-1
 -66 -219 l 1,1,-1
 -3 -186 l 1,2,-1
 148 677 l 1,3,-1
 78 711 l 1,4,-1
 78 727 l 1,5,-1
 328 768 l 1,6,-1
 331 768 l 1,7,-1
 264 386 l 1,8,-1
 271 386 l 1,9,10
 302 423 302 423 323 443.5 c 128,-1,11
 344 464 344 464 365.5 472.5 c 128,-1,12
 387 481 387 481 419 481 c 0,13,14
 468 481 468 481 499 440.5 c 128,-1,15
 530 400 530 400 530 329 c 256,16,17
 530 257 530 257 508 195.5 c 128,-1,18
 486 134 486 134 448.5 88 c 128,-1,19
 411 42 411 42 361 16 c 128,-1,20
 311 -10 311 -10 256 -10 c 0,21,22
 223 -10 223 -10 197 -4 c 1,23,-1
 165 -185 l 1,24,-1
 253 -219 l 1,25,-1
 253 -236 l 1,26,-1
 -66 -236 l 1,0,-1
324 370 m 0,27,28
 305 370 305 370 287 357 c 128,-1,29
 269 344 269 344 254 327 c 1,30,-1
 210 69 l 1,31,32
 220 35 220 35 250 35 c 256,33,34
 280 35 280 35 305.5 68.5 c 128,-1,35
 331 102 331 102 346 161.5 c 128,-1,36
 361 221 361 221 361 298 c 0,37,38
 361 328 361 328 352.5 349 c 128,-1,39
 344 370 344 370 324 370 c 0,27,28
EndSplineSet
Validated: 1
Substitution2: "'case' Case-Sensitive Forms lookup 61 subtable" Thorn
Substitution2: "'smcp' Lowercase to Small Capitals lookup 60 subtable" thorn.sc
Substitution2: "'c2sc' Capitals to Small Capitals lookup 59 subtable" thorn.sc
AlternateSubs2: "'aalt' Access All Alternates lookup 1 subtable" thorn.sc Thorn
EndChar

StartChar: uni0431
Encoding: 1073 1073 544
Width: 524
GlyphClass: 1
Flags: W
LayerCount: 2
Fore
SplineSet
525 768 m 1,0,-1
 557 768 l 1,1,-1
 560 764 l 1,2,-1
 550 706 l 2,3,4
 537 631 537 631 494 597 c 128,-1,5
 451 563 451 563 396 563 c 0,6,7
 344 563 344 563 318 571.5 c 128,-1,8
 292 580 292 580 275 580 c 0,9,10
 247 580 247 580 239.5 565 c 128,-1,11
 232 550 232 550 231 518 c 128,-1,12
 230 486 230 486 225 434 c 1,13,14
 242 446 242 446 264 453.5 c 128,-1,15
 286 461 286 461 312 461 c 0,16,17
 364 461 364 461 405 435 c 128,-1,18
 446 409 446 409 470 362 c 128,-1,19
 494 315 494 315 494 255 c 0,20,21
 494 186 494 186 461.5 125.5 c 128,-1,22
 429 65 429 65 367.5 27.5 c 128,-1,23
 306 -10 306 -10 218 -10 c 0,24,25
 150 -10 150 -10 110.5 21 c 128,-1,26
 71 52 71 52 53.5 102 c 128,-1,27
 36 152 36 152 36 205 c 0,28,29
 36 319 36 319 76.5 419.5 c 128,-1,30
 117 520 117 520 206 597.5 c 128,-1,31
 295 675 295 675 440 715 c 0,32,33
 489 729 489 729 505.5 740.5 c 128,-1,34
 522 752 522 752 525 768 c 1,0,-1
189 161 m 0,35,36
 189 108 189 108 200.5 76 c 128,-1,37
 212 44 212 44 238 44 c 256,38,39
 264 44 264 44 284 76 c 128,-1,40
 304 108 304 108 316.5 162.5 c 128,-1,41
 329 217 329 217 329 284 c 0,42,43
 329 334 329 334 319 371 c 128,-1,44
 309 408 309 408 280 408 c 0,45,46
 263 408 263 408 245.5 397.5 c 128,-1,47
 228 387 228 387 216 374 c 1,48,49
 215 367 215 367 213 358 c 0,50,51
 202 305 202 305 195.5 260 c 128,-1,52
 189 215 189 215 189 161 c 0,35,36
EndSplineSet
Validated: 1
Substitution2: "'smcp' Lowercase to Small Capitals lookup 60 subtable" uni0431.sc
Substitution2: "'c2sc' Capitals to Small Capitals lookup 59 subtable" uni0431.sc
Substitution2: "'ss05' Style Set 5 lookup 18 subtable" uni0431.locl
Substitution2: "'locl' Localized Forms in Cyrillic lookup 16 subtable" uni0431.locl
AlternateSubs2: "'aalt' Access All Alternates lookup 1 subtable" uni0431.locl uni0431.sc
EndChar

StartChar: uni0432
Encoding: 1074 1074 545
Width: 493
GlyphClass: 1
Flags: W
LayerCount: 2
Fore
SplineSet
468 160 m 0,0,1
 468 115 468 115 436 76 c 128,-1,2
 404 37 404 37 351.5 13.5 c 128,-1,3
 299 -10 299 -10 236 -10 c 0,4,5
 170 -10 170 -10 123 15.5 c 128,-1,6
 76 41 76 41 51 83.5 c 128,-1,7
 26 126 26 126 26 177 c 0,8,9
 26 236 26 236 43.5 290.5 c 128,-1,10
 61 345 61 345 97.5 388 c 128,-1,11
 134 431 134 431 188 456 c 128,-1,12
 242 481 242 481 312 481 c 0,13,14
 375 481 375 481 413 466.5 c 128,-1,15
 451 452 451 452 467 430 c 128,-1,16
 483 408 483 408 483 385 c 0,17,18
 483 343 483 343 452 314.5 c 128,-1,19
 421 286 421 286 351 269 c 1,20,21
 409 265 409 265 438.5 234 c 128,-1,22
 468 203 468 203 468 160 c 0,0,1
292 432 m 0,23,24
 255 432 255 432 232 383.5 c 128,-1,25
 209 335 209 335 198 261 c 1,26,-1
 222 267 l 2,27,28
 276 280 276 280 299 317.5 c 128,-1,29
 322 355 322 355 322 394 c 0,30,31
 322 432 322 432 292 432 c 0,23,24
233 39 m 0,32,33
 255 39 255 39 270 57.5 c 128,-1,34
 285 76 285 76 293 103.5 c 128,-1,35
 301 131 301 131 301 158 c 0,36,37
 301 191 301 191 287.5 209 c 128,-1,38
 274 227 274 227 248 227 c 0,39,40
 238 227 238 227 227.5 225.5 c 128,-1,41
 217 224 217 224 206 222 c 0,42,43
 200 221 200 221 193 220 c 1,44,45
 189 173 189 173 188 123 c 0,46,47
 188 89 188 89 199 64 c 128,-1,48
 210 39 210 39 233 39 c 0,32,33
EndSplineSet
Validated: 1
Substitution2: "'smcp' Lowercase to Small Capitals lookup 60 subtable" uni0432.sc
Substitution2: "'c2sc' Capitals to Small Capitals lookup 59 subtable" uni0432.sc
Substitution2: "'ss06' Style Set 6 lookup 19 subtable" uni0432.bgr
Substitution2: "'locl' Localized Forms in Cyrillic lookup 17 subtable" uni0432.bgr
AlternateSubs2: "'aalt' Access All Alternates lookup 1 subtable" uni0432.bgr uni0432.sc
EndChar

StartChar: uni0433
Encoding: 1075 1075 546
Width: 444
GlyphClass: 2
Flags: W
AnchorPoint: "Anchor-3" 268 522 basechar 0
LayerCount: 2
Fore
SplineSet
204 -10 m 0,0,1
 112 -10 112 -10 69 22 c 128,-1,2
 26 54 26 54 26 114 c 0,3,4
 26 159 26 159 46.5 189.5 c 128,-1,5
 67 220 67 220 98.5 242.5 c 128,-1,6
 130 265 130 265 164 284 c 0,7,8
 194 300 194 300 220 315 c 128,-1,9
 246 330 246 330 262.5 348 c 128,-1,10
 279 366 279 366 279 387 c 0,11,12
 279 407 279 407 268 419 c 128,-1,13
 257 431 257 431 236 431 c 0,14,15
 186 431 186 431 130 369 c 2,16,-1
 91 325 l 1,17,-1
 75 325 l 1,18,-1
 97 453 l 1,19,20
 121 464 121 464 150 470 c 128,-1,21
 179 476 179 476 209 478.5 c 128,-1,22
 239 481 239 481 260 481 c 0,23,24
 338 481 338 481 378.5 449 c 128,-1,25
 419 417 419 417 419 354 c 0,26,27
 419 308 419 308 397.5 277 c 128,-1,28
 376 246 376 246 343.5 224.5 c 128,-1,29
 311 203 311 203 279 184 c 0,30,31
 239 161 239 161 208 140 c 128,-1,32
 177 119 177 119 177 85 c 0,33,34
 177 41 177 41 224 41 c 0,35,36
 253 41 253 41 282 55.5 c 128,-1,37
 311 70 311 70 336 97 c 2,38,-1
 383 150 l 1,39,-1
 399 150 l 1,40,-1
 378 29 l 1,41,42
 338 7 338 7 295 -1.5 c 128,-1,43
 252 -10 252 -10 204 -10 c 0,0,1
EndSplineSet
Validated: 1
Substitution2: "'smcp' Lowercase to Small Capitals lookup 60 subtable" uni0433.sc
Substitution2: "'c2sc' Capitals to Small Capitals lookup 59 subtable" uni0433.sc
Substitution2: "'ss06' Style Set 6 lookup 19 subtable" uni0433.bgr
Substitution2: "'ss05' Style Set 5 lookup 18 subtable" uni0433.locl
Substitution2: "'locl' Localized Forms in Cyrillic lookup 17 subtable" uni0433.bgr
Substitution2: "'locl' Localized Forms in Cyrillic lookup 16 subtable" uni0433.locl
AlternateSubs2: "'aalt' Access All Alternates lookup 1 subtable" uni0433.locl uni0433.bgr uni0433.sc
EndChar

StartChar: uni0493
Encoding: 1171 1171 548
Width: 444
GlyphClass: 1
Flags: W
LayerCount: 2
Fore
SplineSet
204 -10 m 0,0,1
 112 -10 112 -10 69 20.5 c 128,-1,2
 26 51 26 51 26 120 c 0,3,4
 26 150 26 150 38.5 173.5 c 128,-1,5
 51 197 51 197 72 215 c 1,6,-1
 16 215 l 1,7,-1
 25 266 l 1,8,-1
 146 266 l 2,9,10
 152 269 152 269 158 272 c 128,-1,11
 164 275 164 275 169 279 c 0,12,13
 212 303 212 303 245.5 327.5 c 128,-1,14
 279 352 279 352 279 387 c 0,15,16
 279 407 279 407 268 419 c 128,-1,17
 257 431 257 431 236 431 c 0,18,19
 186 431 186 431 130 369 c 2,20,-1
 91 325 l 1,21,-1
 75 325 l 1,22,-1
 97 453 l 1,23,24
 121 464 121 464 150 470 c 128,-1,25
 179 476 179 476 209 478.5 c 128,-1,26
 239 481 239 481 260 481 c 0,27,28
 338 481 338 481 378.5 449 c 128,-1,29
 419 417 419 417 419 354 c 0,30,31
 419 326 419 326 409.5 305 c 128,-1,32
 400 284 400 284 385 266 c 1,33,-1
 442 266 l 1,34,-1
 434 215 l 1,35,-1
 319 215 l 1,36,37
 308 208 308 208 296.5 202 c 128,-1,38
 285 196 285 196 273 189 c 0,39,40
 234 167 234 167 205.5 144 c 128,-1,41
 177 121 177 121 177 85 c 0,42,43
 177 41 177 41 224 41 c 0,44,45
 253 41 253 41 282 55.5 c 128,-1,46
 311 70 311 70 336 97 c 2,47,-1
 383 150 l 1,48,-1
 399 150 l 1,49,-1
 378 29 l 1,50,51
 338 7 338 7 295 -1.5 c 128,-1,52
 252 -10 252 -10 204 -10 c 0,0,1
EndSplineSet
Validated: 1
Substitution2: "'smcp' Lowercase to Small Capitals lookup 60 subtable" uni0493.sc
Substitution2: "'c2sc' Capitals to Small Capitals lookup 59 subtable" uni0493.sc
Substitution2: "'aalt' Access All Alternates lookup 0 subtable" uni0493.sc
EndChar

StartChar: uni0434
Encoding: 1076 1076 549
Width: 528
GlyphClass: 1
Flags: W
LayerCount: 2
Fore
SplineSet
227 -10 m 0,0,1
 165 -10 165 -10 119 16.5 c 128,-1,2
 73 43 73 43 48.5 89 c 128,-1,3
 24 135 24 135 24 195 c 0,4,5
 24 249 24 249 43.5 300 c 128,-1,6
 63 351 63 351 99.5 392 c 128,-1,7
 136 433 136 433 185 457 c 128,-1,8
 234 481 234 481 293 481 c 0,9,10
 317 481 317 481 333.5 477.5 c 128,-1,11
 350 474 350 474 365 468 c 1,12,13
 365 534 365 534 353 588.5 c 128,-1,14
 341 643 341 643 315 676 c 128,-1,15
 289 709 289 709 245 709 c 0,16,17
 192 709 192 709 158 662 c 1,18,-1
 135 681 l 1,19,20
 148 703 148 703 165 721.5 c 128,-1,21
 182 740 182 740 210 752.5 c 128,-1,22
 238 765 238 765 280 765 c 0,23,24
 342 765 342 765 388 736 c 128,-1,25
 434 707 434 707 465 656.5 c 128,-1,26
 496 606 496 606 511 542.5 c 128,-1,27
 526 479 526 479 526 412 c 0,28,29
 526 335 526 335 507 260 c 128,-1,30
 488 185 488 185 450.5 123.5 c 128,-1,31
 413 62 413 62 357 26 c 128,-1,32
 301 -10 301 -10 227 -10 c 0,0,1
188 148 m 0,33,34
 188 44 188 44 238 44 c 0,35,36
 258 44 258 44 279 76.5 c 128,-1,37
 300 109 300 109 317.5 162 c 128,-1,38
 335 215 335 215 347 280.5 c 128,-1,39
 359 346 359 346 364 413 c 1,40,41
 344 428 344 428 307 428 c 0,42,43
 256 428 256 428 222 357.5 c 128,-1,44
 188 287 188 287 188 148 c 0,33,34
EndSplineSet
Validated: 1
Substitution2: "'smcp' Lowercase to Small Capitals lookup 60 subtable" uni0434.sc
Substitution2: "'c2sc' Capitals to Small Capitals lookup 59 subtable" uni0434.sc
Substitution2: "'ss06' Style Set 6 lookup 19 subtable" uni0434.bgr
Substitution2: "'ss05' Style Set 5 lookup 18 subtable" uni0434.locl
Substitution2: "'locl' Localized Forms in Cyrillic lookup 17 subtable" uni0434.bgr
Substitution2: "'locl' Localized Forms in Cyrillic lookup 16 subtable" uni0434.locl
AlternateSubs2: "'aalt' Access All Alternates lookup 1 subtable" uni0434.locl uni0434.bgr uni0434.sc
EndChar

StartChar: uni0436
Encoding: 1078 1078 552
Width: 909
GlyphClass: 1
Flags: W
LayerCount: 2
Fore
SplineSet
411 471 m 1,0,-1
 574 471 l 1,1,-1
 541 273 l 1,2,-1
 609 280 l 1,3,4
 631 334 631 334 664 380 c 128,-1,5
 697 426 697 426 737.5 453.5 c 128,-1,6
 778 481 778 481 821 481 c 0,7,8
 851 481 851 481 873 469 c 128,-1,9
 895 457 895 457 907.5 439.5 c 128,-1,10
 920 422 920 422 920 407 c 0,11,12
 920 400 920 400 916.5 392.5 c 128,-1,13
 913 385 913 385 904 379 c 2,14,-1
 853 344 l 1,15,-1
 792 444 l 1,16,17
 773 427 773 427 756 365 c 128,-1,18
 739 303 739 303 739 205 c 0,19,20
 739 146 739 146 750 119.5 c 128,-1,21
 761 93 761 93 776 93 c 0,22,23
 790 93 790 93 804 104.5 c 128,-1,24
 818 116 818 116 838 151 c 1,25,-1
 844 151 l 1,26,-1
 860 135 l 1,27,28
 831 67 831 67 784.5 28.5 c 128,-1,29
 738 -10 738 -10 689 -10 c 0,30,31
 638 -10 638 -10 608.5 29.5 c 128,-1,32
 579 69 579 69 579 130 c 0,33,34
 579 176 579 176 592 226 c 1,35,-1
 531 222 l 1,36,-1
 493 0 l 1,37,-1
 329 0 l 1,38,-1
 366 209 l 1,39,-1
 300 205 l 1,40,41
 278 147 278 147 244.5 98 c 128,-1,42
 211 49 211 49 169 19.5 c 128,-1,43
 127 -10 127 -10 83 -10 c 0,44,45
 54 -10 54 -10 31.5 2 c 128,-1,46
 9 14 9 14 -3 31.5 c 128,-1,47
 -15 49 -15 49 -15 65 c 0,48,49
 -15 73 -15 73 -12 79.5 c 128,-1,50
 -9 86 -9 86 0 92 c 2,51,-1
 51 127 l 1,52,-1
 113 27 l 1,53,54
 132 44 132 44 148.5 106 c 128,-1,55
 165 168 165 168 165 266 c 0,56,57
 165 326 165 326 154 352 c 128,-1,58
 143 378 143 378 128 378 c 0,59,60
 115 378 115 378 101 366.5 c 128,-1,61
 87 355 87 355 67 321 c 1,62,-1
 60 321 l 1,63,-1
 44 336 l 1,64,65
 73 404 73 404 119.5 442.5 c 128,-1,66
 166 481 166 481 215 481 c 0,67,68
 266 481 266 481 296 441.5 c 128,-1,69
 326 402 326 402 326 341 c 0,70,71
 326 300 326 300 315 257 c 1,72,-1
 374 261 l 1,73,-1
 411 471 l 1,0,-1
EndSplineSet
Validated: 1
Substitution2: "'smcp' Lowercase to Small Capitals lookup 60 subtable" uni0436.sc
Substitution2: "'c2sc' Capitals to Small Capitals lookup 59 subtable" uni0436.sc
Substitution2: "'ss06' Style Set 6 lookup 19 subtable" uni0436.bgr
Substitution2: "'locl' Localized Forms in Cyrillic lookup 17 subtable" uni0436.bgr
AlternateSubs2: "'aalt' Access All Alternates lookup 1 subtable" uni0436.bgr uni0436.sc
EndChar

StartChar: uni0437
Encoding: 1079 1079 553
Width: 441
GlyphClass: 1
Flags: W
LayerCount: 2
Fore
SplineSet
164 -10 m 0,0,1
 86 -10 86 -10 44.5 16 c 128,-1,2
 3 42 3 42 3 70 c 0,3,4
 3 76 3 76 6.5 82.5 c 128,-1,5
 10 89 10 89 20 98 c 2,6,-1
 69 142 l 1,7,-1
 156 36 l 2,8,9
 160 36 160 36 164 36 c 0,10,11
 201 36 201 36 222.5 61 c 128,-1,12
 244 86 244 86 244 132 c 0,13,14
 244 166 244 166 222.5 187 c 128,-1,15
 201 208 201 208 162 208 c 2,16,-1
 122 208 l 1,17,-1
 131 259 l 1,18,-1
 170 259 l 2,19,20
 219 259 219 259 242.5 280.5 c 128,-1,21
 266 302 266 302 266 335 c 0,22,23
 266 360 266 360 253 374 c 128,-1,24
 240 388 240 388 210 388 c 0,25,26
 176 388 176 388 147.5 374 c 128,-1,27
 119 360 119 360 74 318 c 1,28,-1
 71 318 l 1,29,-1
 52 337 l 1,30,31
 98 410 98 410 156.5 445.5 c 128,-1,32
 215 481 215 481 299 481 c 0,33,34
 360 481 360 481 393 450.5 c 128,-1,35
 426 420 426 420 426 372 c 0,36,37
 426 330 426 330 387 291 c 128,-1,38
 348 252 348 252 276 239 c 1,39,40
 407 227 407 227 408 133 c 0,41,42
 408 68 408 68 347 29 c 128,-1,43
 286 -10 286 -10 164 -10 c 0,0,1
EndSplineSet
Validated: 1
Substitution2: "'smcp' Lowercase to Small Capitals lookup 60 subtable" uni0437.sc
Substitution2: "'c2sc' Capitals to Small Capitals lookup 59 subtable" uni0437.sc
Substitution2: "'ss06' Style Set 6 lookup 19 subtable" uni0437.bgr
Substitution2: "'locl' Localized Forms in Cyrillic lookup 17 subtable" uni0437.bgr
AlternateSubs2: "'aalt' Access All Alternates lookup 1 subtable" uni0437.bgr uni0437.sc
EndChar

StartChar: uni043A
Encoding: 1082 1082 557
Width: 562
GlyphClass: 2
Flags: W
AnchorPoint: "Anchor-3" 361 522 basechar 0
LayerCount: 2
Fore
SplineSet
31 0 m 1,0,-1
 98 390 l 1,1,-1
 39 424 l 1,2,-1
 39 440 l 1,3,-1
 274 481 l 1,4,-1
 278 481 l 1,5,-1
 238 240 l 1,6,7
 299 320 299 320 340.5 368 c 128,-1,8
 382 416 382 416 409 440.5 c 128,-1,9
 436 465 436 465 455 473 c 128,-1,10
 474 481 474 481 490 481 c 0,11,12
 513 481 513 481 527 470 c 128,-1,13
 541 459 541 459 541 444 c 0,14,15
 541 442 541 442 539 435.5 c 128,-1,16
 537 429 537 429 530 415 c 2,17,-1
 506 354 l 1,18,-1
 432 385 l 1,19,20
 419 377 419 377 404.5 365 c 128,-1,21
 390 353 390 353 376 338 c 2,22,-1
 352 311 l 1,23,-1
 446 139 l 2,24,25
 463 107 463 107 471.5 99 c 128,-1,26
 480 91 480 91 490 91 c 0,27,28
 504 91 504 91 515.5 106 c 128,-1,29
 527 121 527 121 537 161 c 1,30,-1
 559 156 l 1,31,32
 542 67 542 67 507 28.5 c 128,-1,33
 472 -10 472 -10 421 -10 c 0,34,35
 385 -10 385 -10 361.5 6.5 c 128,-1,36
 338 23 338 23 314 67 c 2,37,-1
 233 219 l 1,38,-1
 198 0 l 1,39,-1
 31 0 l 1,0,-1
EndSplineSet
Validated: 1
Substitution2: "'smcp' Lowercase to Small Capitals lookup 60 subtable" uni043A.sc
Substitution2: "'c2sc' Capitals to Small Capitals lookup 59 subtable" uni043A.sc
Substitution2: "'ss06' Style Set 6 lookup 19 subtable" uni043A.bgr
Substitution2: "'locl' Localized Forms in Cyrillic lookup 17 subtable" uni043A.bgr
AlternateSubs2: "'aalt' Access All Alternates lookup 1 subtable" uni043A.bgr uni043A.sc
EndChar

